<?xml version="1.0" standalone="no"?>
<!DOCTYPE svg PUBLIC "-//W3C//DTD SVG 20010904//EN"
 "http://www.w3.org/TR/2001/REC-SVG-20010904/DTD/svg10.dtd">
<svg version="1.0" xmlns="http://www.w3.org/2000/svg"
 width="9045.000000pt" height="4523.000000pt" viewBox="0 0 9045.000000 4523.000000"
 preserveAspectRatio="xMidYMid meet">

<g transform="translate(0.000000,4523.000000) scale(0.100000,-0.100000)"
fill="currentColor" stroke="none">
<path d="M16615 40770 c-654 -41 -1434 -232 -2375 -582 -2024 -753 -4099
-1931 -5831 -3309 -875 -697 -1762 -1525 -2354 -2199 -936 -1066 -1464 -2066
-1565 -2965 -14 -130 -12 -442 4 -565 97 -715 522 -1320 1246 -1772 338 -211
450 -260 2250 -993 2303 -938 4000 -1712 4790 -2185 426 -255 763 -512 1050
-799 205 -206 365 -408 483 -612 l27 -45 -173 -135 c-269 -210 -1135 -902
-1469 -1176 -2594 -2119 -4474 -3902 -5607 -5318 -665 -831 -1044 -1499 -1158
-2045 -22 -107 -26 -150 -26 -295 0 -153 2 -180 26 -270 107 -398 399 -628
857 -676 320 -33 850 52 1345 216 727 241 1462 626 2255 1184 231 162 470 343
470 356 0 7 17 21 38 30 20 10 69 43 107 73 181 144 315 257 315 265 0 13 81
82 96 82 18 0 318 268 590 526 302 286 653 652 890 929 681 792 1341 1848
1739 2780 262 613 482 1340 574 1895 76 455 63 866 -38 1255 -28 108 -29 116
-13 132 9 9 154 121 322 250 1153 884 2453 1850 3690 2743 151 109 290 210
309 224 l34 26 -5 -40 c-13 -90 -304 -1721 -379 -2125 -45 -239 -86 -440 -93
-447 -27 -29 -438 -176 -626 -223 -139 -35 -212 -85 -259 -178 -45 -88 -45
-225 -1 -313 52 -100 158 -169 262 -169 56 0 230 43 423 104 43 14 81 24 83
22 2 -2 -85 -500 -192 -1107 -796 -4500 -1331 -7643 -1652 -9704 -74 -474 -79
-545 -47 -617 30 -65 95 -133 162 -165 49 -25 67 -28 146 -27 103 0 166 22
223 77 68 65 77 98 153 535 530 3076 1558 8100 2239 10937 50 209 100 421 112
471 l21 92 144 76 c704 375 1366 867 1943 1445 322 323 504 539 709 841 383
566 606 1121 695 1735 101 690 -31 1322 -341 1627 -86 86 -120 111 -213 158
-161 81 -343 118 -493 99 -96 -12 -255 -63 -359 -115 -384 -192 -798 -638
-1138 -1224 -261 -449 -594 -1185 -836 -1847 -27 -73 -50 -131 -51 -129 -2 2
71 421 161 932 305 1720 489 2779 561 3229 41 256 41 304 1 383 -73 144 -184
202 -345 181 -86 -10 -140 -38 -195 -100 -54 -59 -74 -111 -87 -225 -18 -166
-169 -1052 -462 -2714 l-112 -634 -60 -16 c-80 -22 -76 -19 -350 -214 -1457
-1036 -2873 -2083 -4179 -3092 l-209 -161 -60 91 c-263 400 -635 772 -1110
1110 -225 159 -753 491 -1152 723 -546 318 -840 457 -2115 1005 -1044 448
-1853 783 -3018 1249 -980 392 -1117 455 -1406 647 -222 147 -447 357 -579
542 -248 349 -341 769 -271 1225 48 307 170 667 345 1016 696 1391 2463 3113
4709 4591 227 150 352 230 775 498 1892 1198 3924 2053 5324 2240 649 86 1158
11 1452 -215 264 -204 341 -477 273 -968 -17 -128 -11 -190 27 -263 71 -134
234 -207 380 -170 103 27 166 78 213 172 40 80 50 179 51 489 0 231 -3 298
-19 380 -51 275 -144 492 -283 659 -116 140 -372 336 -540 412 -169 78 -401
139 -639 168 -153 19 -443 27 -609 16z m6078 -10539 c24 -11 61 -36 82 -58
118 -121 196 -446 181 -759 -36 -777 -343 -1492 -943 -2195 -125 -147 -502
-525 -661 -663 -172 -150 -380 -313 -571 -451 -166 -119 -463 -316 -469 -310
-4 4 110 431 195 730 221 779 470 1451 786 2121 286 605 545 1001 858 1312
254 251 410 330 542 273z m-8108 -6130 c-3 -5 2 -65 11 -133 24 -182 15 -492
-20 -693 -66 -380 -221 -921 -391 -1371 -386 -1018 -1039 -2111 -1773 -2969
-338 -395 -887 -936 -1368 -1350 -762 -654 -1535 -1187 -2234 -1539 -717 -362
-1375 -567 -1820 -567 -203 0 -306 29 -389 109 -48 47 -61 90 -61 208 0 264
183 665 557 1223 149 222 430 601 446 602 7 0 72 76 144 167 73 92 193 238
267 324 74 86 136 163 138 172 4 18 208 249 215 243 2 -3 38 31 79 75 41 45
72 83 69 86 -7 7 156 183 164 178 8 -5 243 239 251 260 8 21 130 154 142 154
6 0 162 147 347 328 518 504 853 818 1291 1211 113 101 221 199 240 217 19 18
103 92 185 164 83 72 157 143 166 158 9 15 23 27 31 27 19 0 60 34 53 45 -5 8
146 136 156 133 4 -1 61 44 126 100 702 609 2151 1799 2821 2316 45 35 82 69
82 75 0 6 15 21 33 34 33 23 52 29 42 13z"/>
<path d="M13820 23113 c-961 -772 -1829 -1502 -2647 -2227 l-273 -241 0 -1387
c0 -849 4 -1388 9 -1388 13 0 286 247 516 466 592 565 997 1038 1420 1663 705
1040 1199 2163 1414 3218 30 144 35 133 -62 133 l-83 0 -294 -237z"/>
<path d="M37423 38726 c-87 -28 -162 -94 -195 -171 -47 -107 -649 -2452 -939
-3657 l-33 -138 -66 0 c-37 0 -347 -7 -691 -15 -343 -8 -1040 -24 -1549 -35
-509 -11 -1202 -29 -1540 -40 -338 -10 -901 -26 -1250 -35 -349 -8 -743 -19
-875 -23 l-240 -8 -54 -29 c-107 -59 -165 -159 -165 -285 0 -90 25 -159 82
-219 68 -72 124 -94 251 -99 155 -6 1953 32 3611 78 927 25 1448 38 1931 46
l386 7 -78 -334 c-1152 -4889 -2564 -11555 -3213 -15169 -250 -1389 -428
-2492 -486 -3010 -11 -102 -29 -246 -40 -320 -55 -385 -45 -674 30 -820 55
-108 124 -161 241 -186 165 -35 279 22 420 209 75 100 121 197 199 422 60 175
62 182 58 265 -7 146 -66 225 -204 270 -64 22 -64 22 -59 53 3 18 14 106 26
197 341 2756 1943 10606 3610 17700 94 399 174 728 178 732 14 15 3171 75
5206 99 1114 13 4002 7 4460 -10 371 -13 695 -28 885 -41 325 -23 609 -62 664
-92 13 -7 48 -26 77 -43 47 -26 64 -30 134 -30 68 0 88 4 135 28 125 64 184
158 185 292 0 68 -4 89 -28 137 -59 120 -174 191 -402 249 -323 81 -803 116
-2030 149 -2202 58 -4850 41 -8549 -55 -318 -9 -580 -14 -582 -12 -9 9 513
2050 807 3153 120 455 127 496 88 598 -27 74 -95 147 -161 176 -65 28 -175 36
-235 16z"/>
<path d="M28974 34585 c-822 -493 -1409 -1341 -1505 -2174 -15 -135 -7 -476
15 -591 115 -610 433 -1076 1054 -1544 592 -446 998 -946 1165 -1436 176 -517
124 -1118 -155 -1785 -109 -261 -331 -665 -505 -919 -41 -59 -72 -111 -68
-114 13 -13 249 143 405 268 588 473 988 1087 1134 1742 45 202 59 337 59 558
-1 415 -82 748 -283 1155 -241 491 -603 912 -1179 1370 -203 161 -326 277
-425 398 -175 217 -268 409 -318 659 -30 150 -32 463 -5 633 76 462 266 955
651 1683 48 89 82 162 78 162 -5 0 -58 -29 -118 -65z"/>
<path d="M26675 30834 c-358 -292 -637 -601 -888 -986 -383 -586 -595 -1204
-626 -1823 -15 -300 10 -570 79 -841 50 -198 94 -314 195 -519 288 -587 793
-1070 1460 -1395 498 -243 1066 -402 1630 -455 201 -19 575 -31 575 -19 0 10
-46 36 -490 279 -926 506 -1390 820 -1784 1204 -485 475 -720 936 -792 1551
-20 175 -15 567 10 750 81 590 256 1166 627 2066 54 132 99 244 99 247 0 15
-18 3 -95 -59z"/>
<path d="M42130 24274 c-36 -2 -150 -8 -255 -14 -2101 -117 -3994 -814 -5485
-2020 -446 -361 -928 -843 -1287 -1287 -491 -606 -930 -1326 -1240 -2033 l-81
-185 -71 -395 c-183 -1028 -298 -1734 -397 -2436 l-36 -261 70 -70 c132 -133
200 -333 172 -508 -12 -78 -110 -377 -164 -503 -72 -168 -169 -307 -304 -432
l-86 -81 13 -222 c185 -3342 1785 -5888 4546 -7233 1494 -728 3243 -1072 5280
-1040 1536 24 2667 153 3740 426 985 250 1901 638 2760 1167 l130 80 -3 1844
c-1 1014 -5 3039 -8 4500 l-6 2656 -1782 6 c-979 4 -2651 10 -3713 14 l-1933
6 0 -1936 0 -1937 1585 0 1585 0 0 -1263 0 -1263 -142 -42 c-466 -138 -933
-216 -1553 -262 -233 -18 -928 -24 -1125 -11 -1382 93 -2477 669 -3197 1681
-546 768 -858 1808 -891 2975 -23 786 56 1476 243 2126 380 1317 1176 2305
2300 2854 586 287 1219 446 1965 496 201 13 945 7 1160 -11 725 -58 1176 -195
1625 -495 182 -121 354 -261 597 -484 109 -99 201 -181 206 -181 10 0 2780
3372 2788 3394 7 17 -478 399 -792 623 -794 567 -1566 968 -2414 1255 -809
273 -1602 421 -2615 488 -156 11 -1055 21 -1185 14z"/>
<path d="M25330 14585 l0 -8805 2555 0 2555 0 0 8805 0 8805 -2555 0 -2555 0
0 -8805z"/>
<path d="M53020 14585 l0 -8805 2565 0 2565 0 0 3805 0 3805 2980 0 2980 0 0
-3805 0 -3805 2555 0 2555 0 0 8805 0 8805 -2555 0 -2555 0 0 -3090 0 -3090
-212 0 c-117 0 -1448 14 -2958 30 -1510 16 -2755 30 -2767 30 l-23 0 0 3060 0
3060 -2565 0 -2565 0 0 -8805z"/>
<path d="M71200 21430 l0 -1960 2440 0 2440 0 0 -6845 0 -6845 2550 0 2550 0
0 6845 0 6845 2455 0 2455 0 0 1960 0 1960 -7445 0 -7445 0 0 -1960z"/>
<path d="M10900 22833 c0 -491 1 -515 18 -501 9 8 96 82 192 164 245 209 657
556 835 703 83 68 157 130 165 137 12 12 -81 14 -598 14 l-612 0 0 -517z"/>
<path d="M15535 23303 c-75 -555 -278 -1291 -535 -1933 -375 -938 -975 -1954
-1658 -2809 -595 -744 -1456 -1573 -2334 -2250 l-108 -82 0 -5245 0 -5244
5870 0 5870 0 0 2245 0 2245 -3305 0 -3305 0 0 6560 0 6560 -244 0 -245 0 -6
-47z"/>
</g>
</svg>
