<?xml version="1.0" standalone="no"?>
<!DOCTYPE svg PUBLIC "-//W3C//DTD SVG 20010904//EN"
 "http://www.w3.org/TR/2001/REC-SVG-20010904/DTD/svg10.dtd">
<svg version="1.0" xmlns="http://www.w3.org/2000/svg"
 width="6350.000000pt" height="6350.000000pt" viewBox="0 0 6350.000000 6350.000000"
 preserveAspectRatio="xMidYMid meet">

<g transform="translate(0.000000,6350.000000) scale(0.100000,-0.100000)"
fill="currentColor" stroke="none">
<path d="M38290 60154 c-939 -492 -2168 -1366 -3220 -2290 -320 -281 -568
-512 -889 -829 -601 -594 -1098 -1144 -1632 -1805 -1978 -2450 -3190 -5191
-3513 -7950 -62 -524 -80 -859 -81 -1445 0 -747 43 -1293 156 -1970 398 -2380
1484 -4542 3278 -6525 203 -225 725 -752 951 -960 514 -474 895 -788 1670
-1375 677 -512 912 -697 1360 -1069 675 -560 1219 -1054 1810 -1646 859 -858
1469 -1574 2130 -2499 1266 -1772 2013 -3669 2249 -5711 57 -494 75 -837 75
-1420 0 -490 -7 -689 -40 -1080 -229 -2786 -1302 -5776 -3274 -9130 -461 -784
-1020 -1657 -1462 -2285 -59 -82 -105 -152 -103 -154 4 -3 176 88 185 98 3 3
21 14 41 23 61 28 430 252 638 386 739 480 1567 1116 2306 1772 604 537 1257
1193 1785 1795 2102 2394 3507 5138 4076 7959 217 1073 306 2090 282 3213 -22
1063 -164 2098 -439 3198 -539 2155 -1572 4248 -3087 6255 -1313 1739 -2936
3349 -4927 4885 -386 298 -772 608 -980 787 -1360 1173 -2306 2376 -2870 3648
-664 1497 -870 3144 -634 5060 183 1493 695 3326 1467 5255 626 1563 1484
3339 2696 5578 86 159 156 293 156 298 0 15 -11 11 -160 -67z"/>
<path d="M24835 38347 c-753 -550 -1273 -990 -1975 -1672 -2131 -2067 -3983
-4630 -5221 -7225 -1196 -2508 -1893 -5052 -2053 -7495 -39 -588 -46 -1473
-16 -1980 56 -969 168 -1795 356 -2650 752 -3407 2558 -6376 5329 -8761 1876
-1614 4145 -2927 6718 -3888 2921 -1091 6133 -1707 9312 -1786 399 -10 1062
-7 1164 6 l45 6 -50 30 c-86 54 -1175 657 -2309 1278 -2369 1298 -3267 1805
-4385 2473 -2413 1443 -4348 2827 -5875 4203 -334 300 -518 476 -860 818
-1186 1188 -2050 2311 -2765 3593 -124 221 -413 793 -509 1008 -762 1696
-1128 3348 -1202 5430 -18 507 -5 1239 31 1815 164 2565 799 5396 1960 8745
532 1532 1137 3088 2091 5377 164 394 299 720 299 723 0 11 -18 2 -85 -48z"/>
</g>
</svg>
