<?xml version="1.0" encoding="UTF-8"?>
<!DOCTYPE svg PUBLIC "-//W3C//DTD SVG 1.1//EN" "http://www.w3.org/Graphics/SVG/1.1/DTD/svg11.dtd">
<svg xmlns="http://www.w3.org/2000/svg" version="1.1" width="3375px" height="4219px" style="shape-rendering:geometricPrecision; text-rendering:geometricPrecision; image-rendering:optimizeQuality; fill-rule:evenodd; clip-rule:evenodd" xmlns:xlink="http://www.w3.org/1999/xlink">
<g><path style="opacity:0.97" fill="#fefffe" d="M 2256.5,834.5 C 2259.22,843.202 2261.22,852.035 2262.5,861C 2260.58,860.973 2258.92,860.139 2257.5,858.5C 2256.75,867.818 2260.75,874.318 2269.5,878C 2267.96,879.579 2266.79,881.413 2266,883.5C 2262.9,894.577 2263.23,905.577 2267,916.5C 2275.89,922.951 2279.89,931.617 2279,942.5C 2274.89,935.581 2273.56,936.247 2275,944.5C 2276.56,949.28 2278.89,953.613 2282,957.5C 2283.32,960.406 2283.65,963.406 2283,966.5C 2281.43,962.622 2279.93,962.622 2278.5,966.5C 2280.85,973.371 2283.68,980.038 2287,986.5C 2291.73,992.134 2296.56,997.634 2301.5,1003C 2298.8,1003.25 2296.13,1003.25 2293.5,1003C 2301.95,1019.19 2307.29,1036.36 2309.5,1054.5C 2312.13,1055.3 2313.97,1056.97 2315,1059.5C 2316,1062.5 2317,1065.5 2318,1068.5C 2320.51,1083.24 2321.67,1097.91 2321.5,1112.5C 2320.44,1109.05 2318.44,1107.38 2315.5,1107.5C 2319.89,1117.74 2322.73,1128.41 2324,1139.5C 2324.97,1163.23 2326.47,1186.9 2328.5,1210.5C 2325.34,1212.92 2322,1215.08 2318.5,1217C 2317.43,1217.74 2316.76,1218.74 2316.5,1220C 2317.42,1224.01 2319.25,1227.51 2322,1230.5C 2327.63,1235.13 2332.97,1240.13 2338,1245.5C 2341.68,1249.88 2343.35,1254.88 2343,1260.5C 2341.29,1259.12 2339.95,1257.46 2339,1255.5C 2340,1269.8 2341,1284.14 2342,1298.5C 2342.5,1309.83 2342.67,1321.16 2342.5,1332.5C 2339.81,1332.34 2337.15,1332.5 2334.5,1333C 2337.69,1343.77 2340.69,1354.6 2343.5,1365.5C 2339.16,1373.02 2337.16,1381.19 2337.5,1390C 2340.16,1414.47 2342.5,1438.97 2344.5,1463.5C 2344.44,1477.07 2341.44,1489.9 2335.5,1502C 2340.47,1503.08 2345.47,1503.91 2350.5,1504.5C 2351.97,1515.91 2351.81,1527.57 2350,1539.5C 2348.82,1544.54 2346.15,1548.54 2342,1551.5C 2341.51,1550.21 2341.34,1548.87 2341.5,1547.5C 2338.05,1547.57 2336.72,1549.41 2337.5,1553C 2339.44,1561.39 2340.61,1569.89 2341,1578.5C 2342.91,1582.75 2345.57,1583.41 2349,1580.5C 2347.53,1592.43 2346.19,1604.43 2345,1616.5C 2344.07,1639.22 2342.4,1661.89 2340,1684.5C 2338.45,1696.48 2335.28,1707.98 2330.5,1719C 2332.91,1742.18 2335.41,1765.34 2338,1788.5C 2338.99,1805.89 2338.49,1823.23 2336.5,1840.5C 2333.13,1852.31 2329.3,1863.98 2325,1875.5C 2322.77,1882.24 2318.27,1886.24 2311.5,1887.5C 2312.35,1904.6 2314.18,1921.6 2317,1938.5C 2317.67,1948.5 2317.67,1958.5 2317,1968.5C 2316.3,1974.33 2314.97,1980 2313,1985.5C 2312,1983.17 2311,1980.83 2310,1978.5C 2308.01,1988.1 2308.51,1997.6 2311.5,2007C 2310.14,2008.68 2308.64,2008.85 2307,2007.5C 2305.26,2009.71 2304.09,2012.21 2303.5,2015C 2304.91,2020.46 2305.74,2025.96 2306,2031.5C 2304.9,2029.61 2303.57,2028.94 2302,2029.5C 2299.93,2035.05 2298.26,2040.71 2297,2046.5C 2294.4,2074.1 2292.73,2101.77 2292,2129.5C 2291.32,2137.29 2289.98,2144.96 2288,2152.5C 2287.02,2146.67 2284.52,2146.01 2280.5,2150.5C 2283.56,2158.18 2284.89,2166.18 2284.5,2174.5C 2283.26,2193.99 2280.76,2213.33 2277,2232.5C 2276.14,2230.91 2275.47,2229.25 2275,2227.5C 2274,2231.83 2273,2236.17 2272,2240.5C 2268.45,2247.38 2264.11,2253.72 2259,2259.5C 2255.9,2266.17 2254.57,2273.17 2255,2280.5C 2258.28,2274.89 2261.94,2269.56 2266,2264.5C 2264.78,2269.9 2263.61,2275.4 2262.5,2281C 2261.69,2285.26 2263.36,2287.42 2267.5,2287.5C 2266.91,2290.61 2265.24,2293.11 2262.5,2295C 2259.53,2295.76 2257.03,2297.26 2255,2299.5C 2252.88,2303.34 2251.05,2307.34 2249.5,2311.5C 2248.91,2311.29 2248.41,2310.96 2248,2310.5C 2247.67,2306.83 2247.33,2303.17 2247,2299.5C 2245.43,2298.94 2244.1,2299.61 2243,2301.5C 2237.25,2312 2231.25,2322.33 2225,2332.5C 2223.74,2336.75 2222.9,2341.09 2222.5,2345.5C 2225.32,2345.08 2227.49,2346.08 2229,2348.5C 2229.39,2353.51 2229.22,2358.51 2228.5,2363.5C 2231.86,2363.93 2234.7,2362.93 2237,2360.5C 2237.67,2362.17 2237.67,2363.83 2237,2365.5C 2228.8,2393.89 2219.47,2421.89 2209,2449.5C 2205.64,2460.96 2203.31,2472.63 2202,2484.5C 2198.67,2487.17 2195.67,2490.17 2193,2493.5C 2185.13,2511.45 2177.46,2529.45 2170,2547.5C 2167.12,2552.28 2163.12,2553.95 2158,2552.5C 2151.11,2570.43 2149.44,2588.76 2153,2607.5C 2154.19,2603.62 2154.86,2599.62 2155,2595.5C 2155.6,2597.14 2156.1,2598.8 2156.5,2600.5C 2154.89,2613.96 2151.55,2626.96 2146.5,2639.5C 2146.17,2638.33 2145.83,2637.17 2145.5,2636C 2146.27,2626.01 2146.93,2616.01 2147.5,2606C 2147.32,2600.04 2146.49,2594.21 2145,2588.5C 2141.51,2608.36 2139.35,2628.36 2138.5,2648.5C 2134.18,2648.93 2129.84,2649.26 2125.5,2649.5C 2126.28,2656.6 2123.78,2662.27 2118,2666.5C 2115.1,2670.79 2114.93,2675.13 2117.5,2679.5C 2118.75,2678.96 2119.91,2678.29 2121,2677.5C 2119.17,2684.02 2117.5,2690.69 2116,2697.5C 2115.67,2705.5 2115.33,2713.5 2115,2721.5C 2114.43,2727.67 2113.1,2733.67 2111,2739.5C 2109.89,2740.71 2108.72,2740.71 2107.5,2739.5C 2106.81,2740.03 2106.31,2740.69 2106,2741.5C 2104.77,2747.85 2103.44,2754.19 2102,2760.5C 2100.79,2763.76 2098.96,2766.59 2096.5,2769C 2094.96,2770.19 2093.29,2770.52 2091.5,2770C 2093.5,2764.67 2095.5,2759.33 2097.5,2754C 2094.07,2753.54 2091.07,2754.54 2088.5,2757C 2084.33,2761.17 2080.17,2765.33 2076,2769.5C 2075.33,2773.5 2075.33,2777.5 2076,2781.5C 2078.33,2783.17 2080.67,2784.83 2083,2786.5C 2083.49,2788.13 2083.66,2789.8 2083.5,2791.5C 2081.47,2791.66 2079.47,2791.5 2077.5,2791C 2076.6,2788.8 2075.6,2786.63 2074.5,2784.5C 2067.09,2807.18 2061.92,2829.51 2059,2851.5C 2058,2853.83 2057,2856.17 2056,2858.5C 2052.88,2873.22 2049.55,2887.88 2046,2902.5C 2044.71,2904.25 2043.54,2906.08 2042.5,2908C 2041.26,2908.31 2040.26,2907.81 2039.5,2906.5C 2037.81,2908.36 2036.31,2910.36 2035,2912.5C 2030.84,2923.46 2026.84,2934.46 2023,2945.5C 2019.61,2949.55 2015.28,2951.55 2010,2951.5C 2011.11,2947.31 2011.94,2942.97 2012.5,2938.5C 2010.69,2938.49 2009.02,2938.99 2007.5,2940C 2001.04,2948.1 1999.87,2956.93 2004,2966.5C 2005.34,2972.81 2004,2978.48 2000,2983.5C 1999.33,2982.83 1998.67,2982.17 1998,2981.5C 1989.45,3000.6 1981.45,3019.94 1974,3039.5C 1969,3043.17 1964.67,3047.5 1961,3052.5C 1954.26,3063.99 1948.59,3075.99 1944,3088.5C 1940.07,3096.09 1935.73,3103.43 1931,3110.5C 1927.17,3115.67 1922.67,3120.17 1917.5,3124C 1919.06,3126 1919.73,3128.33 1919.5,3131C 1919.33,3132.83 1919.17,3134.67 1919,3136.5C 1918.33,3135.17 1917.67,3135.17 1917,3136.5C 1915.12,3141.86 1915.29,3147.19 1917.5,3152.5C 1912.16,3160.32 1908.66,3168.99 1907,3178.5C 1904.4,3181.95 1903.4,3185.61 1904,3189.5C 1902.07,3193.76 1899.73,3197.76 1897,3201.5C 1896.66,3199.17 1896.83,3196.83 1897.5,3194.5C 1897.42,3192.7 1896.92,3191.03 1896,3189.5C 1893.71,3188.21 1891.71,3186.54 1890,3184.5C 1887.78,3188.27 1886.11,3192.27 1885,3196.5C 1884.2,3207.58 1882.87,3218.58 1881,3229.5C 1879.36,3234.11 1877.19,3238.45 1874.5,3242.5C 1869.83,3245.83 1865.17,3249.17 1860.5,3252.5C 1861.27,3254.3 1861.93,3256.13 1862.5,3258C 1859.94,3266.92 1857.28,3275.76 1854.5,3284.5C 1851.48,3284.84 1848.82,3286.01 1846.5,3288C 1844.23,3288.76 1842.06,3288.59 1840,3287.5C 1836.16,3294.51 1831.83,3301.17 1827,3307.5C 1825.12,3309.91 1824.45,3312.58 1825,3315.5C 1827.39,3312.4 1830.22,3310.24 1833.5,3309C 1826.95,3316.58 1821.79,3325.08 1818,3334.5C 1813.39,3349.36 1807.05,3363.36 1799,3376.5C 1796.67,3378.83 1794.33,3381.17 1792,3383.5C 1787.59,3380.09 1782.92,3377.09 1778,3374.5C 1775.01,3376.15 1772.68,3378.49 1771,3381.5C 1767.33,3389.83 1763.67,3398.17 1760,3406.5C 1758.5,3408.67 1756.67,3410.5 1754.5,3412C 1755.91,3412.37 1756.91,3413.2 1757.5,3414.5C 1756.52,3416.1 1756.35,3417.76 1757,3419.5C 1761.02,3411.47 1765.02,3403.47 1769,3395.5C 1768.23,3402.48 1767.56,3409.48 1767,3416.5C 1771.94,3406.96 1776.61,3397.29 1781,3387.5C 1780.84,3392.16 1780.34,3396.83 1779.5,3401.5C 1782.21,3401.42 1784.87,3401.09 1787.5,3400.5C 1786.49,3404.86 1784.66,3408.86 1782,3412.5C 1777.33,3417.51 1772.33,3422.17 1767,3426.5C 1763.89,3430.39 1761.56,3434.72 1760,3439.5C 1756.23,3441.82 1752.56,3441.49 1749,3438.5C 1747.93,3439.19 1746.77,3439.69 1745.5,3440C 1741.02,3450.15 1734.02,3458.15 1724.5,3464C 1720.22,3467.77 1716.56,3471.93 1713.5,3476.5C 1713.65,3475.45 1713.48,3474.45 1713,3473.5C 1710,3479.17 1707,3484.83 1704,3490.5C 1703.33,3492.17 1703.33,3493.83 1704,3495.5C 1706.63,3493.87 1708.96,3491.87 1711,3489.5C 1709.52,3499.59 1704.85,3507.92 1697,3514.5C 1695.09,3519.18 1695.09,3523.85 1697,3528.5C 1699.54,3529.88 1701.54,3529.21 1703,3526.5C 1701.82,3531.14 1698.65,3533.48 1693.5,3533.5C 1692.01,3533.29 1690.84,3532.62 1690,3531.5C 1684.56,3538.7 1683.06,3546.7 1685.5,3555.5C 1685.31,3557.58 1684.81,3559.58 1684,3561.5C 1680.96,3564.37 1678.13,3567.37 1675.5,3570.5C 1674.73,3569.74 1674.23,3568.74 1674,3567.5C 1671.48,3570.57 1668.98,3573.57 1666.5,3576.5C 1667.37,3571.71 1665.37,3569.37 1660.5,3569.5C 1660.38,3564.9 1662.05,3561.06 1665.5,3558C 1664.5,3557.33 1663.5,3557.33 1662.5,3558C 1657.23,3563.26 1652.73,3569.1 1649,3575.5C 1644.71,3577.93 1643.38,3581.59 1645,3586.5C 1647.48,3589.07 1650.15,3591.4 1653,3593.5C 1653.48,3594.45 1653.65,3595.45 1653.5,3596.5C 1649.64,3596.85 1646.64,3598.68 1644.5,3602C 1647.17,3602.33 1649.83,3602.67 1652.5,3603C 1649.61,3606.22 1647.11,3609.72 1645,3613.5C 1644.67,3612.5 1644.33,3611.5 1644,3610.5C 1637.17,3616 1630.33,3621.5 1623.5,3627C 1617.64,3632.54 1613.14,3639.04 1610,3646.5C 1609.5,3643.98 1609.67,3641.48 1610.5,3639C 1609.28,3633.58 1606.78,3633.08 1603,3637.5C 1601.11,3641.97 1598.28,3645.63 1594.5,3648.5C 1590.74,3645.65 1587.24,3645.98 1584,3649.5C 1580.4,3655.88 1578.74,3662.55 1579,3669.5C 1575.25,3675.26 1570.75,3680.42 1565.5,3685C 1567.83,3685.33 1570.17,3685.67 1572.5,3686C 1561.46,3698.04 1550.79,3710.37 1540.5,3723C 1541.83,3726.37 1541.33,3729.53 1539,3732.5C 1537.77,3730.05 1536.27,3729.89 1534.5,3732C 1528.29,3737.88 1521.79,3743.38 1515,3748.5C 1514.41,3749.9 1514.57,3751.23 1515.5,3752.5C 1513.95,3753.45 1512.29,3753.79 1510.5,3753.5C 1511,3747.17 1513.16,3741.51 1517,3736.5C 1518.28,3737.57 1518.62,3738.91 1518,3740.5C 1522.07,3733.15 1519.91,3729.65 1511.5,3730C 1499.96,3733.57 1494.79,3741.4 1496,3753.5C 1498.12,3755.65 1500.62,3757.15 1503.5,3758C 1498.56,3760.95 1495.06,3765.11 1493,3770.5C 1492.66,3785.25 1486.49,3796.75 1474.5,3805C 1465,3808.61 1455.67,3812.61 1446.5,3817C 1443.58,3819.05 1440.74,3821.21 1438,3823.5C 1437.4,3824.97 1437.9,3825.97 1439.5,3826.5C 1443.6,3823.73 1447.94,3821.39 1452.5,3819.5C 1455.08,3819.75 1455.91,3821.08 1455,3823.5C 1445.97,3826.85 1438.3,3832.18 1432,3839.5C 1424.08,3851.67 1416.42,3864 1409,3876.5C 1401.94,3885.39 1393.77,3893.06 1384.5,3899.5C 1382.71,3896.42 1381.21,3893.09 1380,3889.5C 1373.48,3894.35 1368.15,3900.01 1364,3906.5C 1374.61,3900.12 1375.94,3901.45 1368,3910.5C 1364.36,3914.65 1359.86,3917.31 1354.5,3918.5C 1353.01,3918.29 1351.84,3917.62 1351,3916.5C 1347.72,3924.78 1342.55,3931.61 1335.5,3937C 1330.58,3940.38 1325.74,3943.88 1321,3947.5C 1320.33,3946.83 1320.33,3946.17 1321,3945.5C 1323.95,3944.22 1325.79,3942.05 1326.5,3939C 1326.33,3938.17 1326.17,3937.33 1326,3936.5C 1320.63,3940.02 1315.63,3944.02 1311,3948.5C 1308.03,3952.97 1304.86,3957.31 1301.5,3961.5C 1297.18,3958.98 1292.85,3959.15 1288.5,3962C 1284.7,3968.43 1280.54,3974.59 1276,3980.5C 1267.46,3989.37 1259.3,3998.54 1251.5,4008C 1250.17,4008 1248.83,4008 1247.5,4008C 1242.8,4013.03 1237.8,4017.7 1232.5,4022C 1207.9,4038.26 1185.4,4057.09 1165,4078.5C 1163.19,4080.3 1163.35,4081.3 1165.5,4081.5C 1166.5,4083.8 1166.66,4086.14 1166,4088.5C 1166.8,4087.2 1167.97,4086.53 1169.5,4086.5C 1172.94,4087.19 1176.27,4088.19 1179.5,4089.5C 1180.24,4091.54 1181.07,4093.54 1182,4095.5C 1181.28,4088.87 1180.94,4082.2 1181,4075.5C 1181.47,4077.25 1182.14,4078.91 1183,4080.5C 1186.3,4078.4 1189.8,4078.07 1193.5,4079.5C 1194.15,4081.12 1194.65,4082.78 1195,4084.5C 1195.75,4082.67 1196.75,4081 1198,4079.5C 1199.04,4081.59 1200.54,4083.25 1202.5,4084.5C 1205.2,4081.96 1208.03,4079.63 1211,4077.5C 1213.46,4077.89 1215.13,4079.22 1216,4081.5C 1216,4078.48 1215.5,4075.48 1214.5,4072.5C 1216.5,4068.55 1218.67,4068.55 1221,4072.5C 1222.72,4075.67 1224.06,4079.01 1225,4082.5C 1227.15,4078.39 1226.98,4074.39 1224.5,4070.5C 1224.83,4070.17 1225.17,4069.83 1225.5,4069.5C 1230.32,4071.16 1235.32,4071.99 1240.5,4072C 1242,4073.5 1243.5,4075 1245,4076.5C 1247.06,4072.32 1248.73,4067.99 1250,4063.5C 1253.73,4056.97 1257.73,4056.97 1262,4063.5C 1264.19,4067.08 1266.19,4070.74 1268,4074.5C 1269.25,4070.23 1270.25,4065.9 1271,4061.5C 1274.61,4055.95 1276.61,4056.62 1277,4063.5C 1277.21,4056.21 1278.21,4055.87 1280,4062.5C 1280.22,4060.62 1280.88,4058.95 1282,4057.5C 1282.04,4059.94 1282.87,4061.94 1284.5,4063.5C 1287.66,4060.17 1290.66,4056.67 1293.5,4053C 1295.11,4052.34 1296.27,4052.84 1297,4054.5C 1297.88,4050.15 1300.38,4047.15 1304.5,4045.5C 1307.55,4049.22 1310.22,4053.22 1312.5,4057.5C 1313.42,4054.28 1312.76,4051.28 1310.5,4048.5C 1310.85,4047.3 1311.35,4047.3 1312,4048.5C 1312.42,4045.76 1312.42,4043.1 1312,4040.5C 1313.41,4044.81 1315.41,4048.81 1318,4052.5C 1318.33,4055.83 1318.67,4059.17 1319,4062.5C 1321.25,4065.33 1323.25,4068.33 1325,4071.5C 1325.05,4065.47 1324.55,4059.47 1323.5,4053.5C 1323.81,4052.69 1324.31,4052.03 1325,4051.5C 1328.59,4052.53 1332.09,4053.86 1335.5,4055.5C 1337.75,4054.88 1339.42,4053.54 1340.5,4051.5C 1341.74,4053.73 1343.08,4055.9 1344.5,4058C 1347.47,4058.76 1349.97,4060.26 1352,4062.5C 1352.88,4065.88 1353.88,4069.22 1355,4072.5C 1357.69,4067.4 1358.69,4062.07 1358,4056.5C 1359.21,4053.94 1360.71,4053.44 1362.5,4055C 1360.61,4060.04 1359.78,4065.2 1360,4070.5C 1361.48,4066.38 1363.15,4062.38 1365,4058.5C 1365.34,4062.84 1367.01,4066.51 1370,4069.5C 1370.39,4067.82 1370.23,4066.15 1369.5,4064.5C 1373.12,4060.53 1373.28,4056.53 1370,4052.5C 1369.54,4047.6 1370.54,4047.6 1373,4052.5C 1375.02,4050.21 1377.18,4050.21 1379.5,4052.5C 1380.9,4054.88 1380.57,4057.05 1378.5,4059C 1382.95,4075.76 1384.45,4075.59 1383,4058.5C 1383.88,4061.79 1384.55,4065.12 1385,4068.5C 1387.77,4064.2 1389.77,4059.53 1391,4054.5C 1391.33,4054.83 1391.67,4055.17 1392,4055.5C 1393.42,4053.66 1394.59,4051.66 1395.5,4049.5C 1396.32,4048.61 1397.32,4048.28 1398.5,4048.5C 1398.89,4054.24 1400.89,4054.9 1404.5,4050.5C 1404.83,4050.83 1405.17,4051.17 1405.5,4051.5C 1407.26,4056.86 1408.09,4062.19 1408,4067.5C 1408.94,4063.53 1409.78,4059.53 1410.5,4055.5C 1411.48,4055.98 1412.31,4056.64 1413,4057.5C 1414.97,4056.36 1416.81,4055.03 1418.5,4053.5C 1419.41,4055.39 1420.41,4057.22 1421.5,4059C 1424.2,4059.25 1426.87,4059.25 1429.5,4059C 1430.7,4059.9 1431.53,4061.07 1432,4062.5C 1432.85,4058.53 1433.52,4054.53 1434,4050.5C 1434.33,4050.83 1434.67,4051.17 1435,4051.5C 1436.67,4049 1438.51,4046.67 1440.5,4044.5C 1440.14,4048.13 1440.64,4051.79 1442,4055.5C 1442.53,4051.7 1443.53,4048.03 1445,4044.5C 1447.56,4043.35 1448.89,4044.35 1449,4047.5C 1449.77,4044.5 1451.44,4042.17 1454,4040.5C 1454.86,4043.96 1456.03,4047.29 1457.5,4050.5C 1459.62,4049.6 1459.95,4048.26 1458.5,4046.5C 1461.36,4044.48 1463.69,4041.98 1465.5,4039C 1466.78,4038.32 1467.95,4038.48 1469,4039.5C 1469.33,4041.5 1469.67,4043.5 1470,4045.5C 1470.96,4041.2 1471.8,4036.87 1472.5,4032.5C 1474.15,4033.78 1475.31,4035.45 1476,4037.5C 1476.67,4036.83 1477.33,4036.17 1478,4035.5C 1478.5,4039.15 1478.67,4042.82 1478.5,4046.5C 1481.35,4046.81 1482.85,4048.48 1483,4051.5C 1484,4052.83 1485,4052.83 1486,4051.5C 1486.33,4052.17 1486.67,4052.83 1487,4053.5C 1487.74,4051.56 1487.58,4049.73 1486.5,4048C 1489.09,4043.8 1490.93,4039.96 1492,4036.5C 1492.33,4037.17 1492.67,4037.83 1493,4038.5C 1493.23,4034.68 1494.07,4031.01 1495.5,4027.5C 1496.57,4029.56 1497.9,4031.39 1499.5,4033C 1498.69,4037.78 1498.02,4042.61 1497.5,4047.5C 1498.5,4047.5 1499.5,4047.5 1500.5,4047.5C 1500.36,4040.14 1500.7,4032.8 1501.5,4025.5C 1503.94,4025.12 1504.61,4025.79 1503.5,4027.5C 1504.37,4030.95 1506.37,4033.29 1509.5,4034.5C 1509.33,4037.85 1509.5,4041.18 1510,4044.5C 1510.41,4044.04 1510.91,4043.71 1511.5,4043.5C 1512.32,4046.45 1512.82,4049.45 1513,4052.5C 1513.37,4047.76 1514.87,4043.42 1517.5,4039.5C 1519.41,4040.35 1521.41,4040.68 1523.5,4040.5C 1523.23,4037.82 1524.23,4036.32 1526.5,4036C 1525.31,4038.44 1525.81,4040.61 1528,4042.5C 1528.93,4040.03 1529.76,4040.2 1530.5,4043C 1528.84,4044.94 1529.17,4045.61 1531.5,4045C 1532.65,4040.85 1534.31,4037.02 1536.5,4033.5C 1538.57,4036.21 1539.9,4039.21 1540.5,4042.5C 1540.34,4040.8 1540.51,4039.13 1541,4037.5C 1542,4039.5 1543,4041.5 1544,4043.5C 1546.17,4040.67 1548.33,4037.83 1550.5,4035C 1551.5,4034.33 1552.5,4034.33 1553.5,4035C 1554.55,4038.82 1554.72,4042.65 1554,4046.5C 1554.91,4047.65 1555.75,4047.49 1556.5,4046C 1555.24,4044.19 1555.24,4042.35 1556.5,4040.5C 1558.13,4042.06 1558.96,4044.06 1559,4046.5C 1559.69,4045.64 1560.52,4044.98 1561.5,4044.5C 1564.54,4047.07 1564.87,4049.73 1562.5,4052.5C 1563.36,4054.87 1564.53,4054.87 1566,4052.5C 1566.29,4054.95 1566.96,4057.29 1568,4059.5C 1569.73,4056.3 1572.4,4054.3 1576,4053.5C 1579.05,4055.29 1581.89,4057.46 1584.5,4060C 1585.5,4060.67 1586.5,4060.67 1587.5,4060C 1588.15,4056.81 1588.98,4053.64 1590,4050.5C 1591.89,4049.87 1593.56,4048.87 1595,4047.5C 1595.33,4049.17 1595.67,4050.83 1596,4052.5C 1599.82,4043.08 1601.49,4043.74 1601,4054.5C 1601.33,4052.17 1601.67,4049.83 1602,4047.5C 1603.12,4050.08 1604.12,4052.74 1605,4055.5C 1605.33,4054.5 1605.67,4053.5 1606,4052.5C 1606.69,4053.36 1607.52,4054.02 1608.5,4054.5C 1610.56,4052.73 1612.39,4050.73 1614,4048.5C 1614.33,4050.17 1614.67,4051.83 1615,4053.5C 1615.73,4051.84 1616.89,4051.34 1618.5,4052C 1616.58,4055.02 1616.25,4058.19 1617.5,4061.5C 1619.74,4058.95 1621.24,4055.95 1622,4052.5C 1623.97,4055.97 1626.14,4059.3 1628.5,4062.5C 1630.4,4063.47 1632.4,4063.8 1634.5,4063.5C 1635.4,4056.13 1636.9,4055.8 1639,4062.5C 1640.34,4047.06 1641.51,4046.89 1642.5,4062C 1642.42,4064.5 1641.75,4066.83 1640.5,4069C 1640.55,4070.03 1640.88,4070.37 1641.5,4070C 1644,4064.1 1645,4064.6 1644.5,4071.5C 1646.46,4072.14 1648.29,4072.14 1650,4071.5C 1650.25,4068.21 1651.25,4065.21 1653,4062.5C 1652.7,4068.15 1652.7,4073.81 1653,4079.5C 1653.75,4075.1 1654.75,4070.77 1656,4066.5C 1658.44,4063.85 1659.77,4064.52 1660,4068.5C 1664.74,4063.08 1665.91,4063.74 1663.5,4070.5C 1663.85,4071.7 1664.35,4071.7 1665,4070.5C 1665.75,4072.2 1666.58,4073.87 1667.5,4075.5C 1666.5,4078.48 1666,4081.48 1666,4084.5C 1667,4082.5 1668,4080.5 1669,4078.5C 1668.82,4081.54 1668.49,4084.54 1668,4087.5C 1669.53,4086.27 1670.7,4084.77 1671.5,4083C 1672.45,4082.52 1673.45,4082.35 1674.5,4082.5C 1674.5,4084.5 1674.5,4086.5 1674.5,4088.5C 1673.69,4090.22 1672.69,4091.89 1671.5,4093.5C 1667.94,4096.62 1665.94,4100.62 1665.5,4105.5C 1663.39,4102.65 1663.39,4099.99 1665.5,4097.5C 1664.92,4093.7 1663.25,4090.53 1660.5,4088C 1662.1,4085.32 1662.94,4082.49 1663,4079.5C 1659.6,4085.96 1655.93,4092.3 1652,4098.5C 1651.31,4099.36 1650.48,4100.02 1649.5,4100.5C 1647.14,4098.81 1645.14,4096.81 1643.5,4094.5C 1640.89,4096.19 1640.22,4098.36 1641.5,4101C 1640.28,4105.73 1639.44,4105.56 1639,4100.5C 1637.6,4101.05 1636.27,4101.38 1635,4101.5C 1634.11,4095.84 1633.28,4090.18 1632.5,4084.5C 1631.91,4084.29 1631.41,4083.96 1631,4083.5C 1628.58,4087.5 1626.91,4091.84 1626,4096.5C 1623.16,4092.64 1621.49,4088.31 1621,4083.5C 1620.58,4084.96 1619.74,4085.46 1618.5,4085C 1620.1,4082.32 1620.94,4079.49 1621,4076.5C 1618.14,4082.1 1616.47,4081.76 1616,4075.5C 1614.36,4083.11 1610.69,4089.44 1605,4094.5C 1604.61,4092.82 1604.77,4091.15 1605.5,4089.5C 1605.25,4087.34 1604.25,4085.67 1602.5,4084.5C 1599.52,4086.32 1596.68,4088.32 1594,4090.5C 1592.01,4089.85 1590.68,4088.51 1590,4086.5C 1587.26,4092.43 1584.26,4092.1 1581,4085.5C 1578.84,4089.9 1575.51,4091.9 1571,4091.5C 1571.3,4087.02 1570.3,4082.69 1568,4078.5C 1567.67,4080.5 1567.33,4082.5 1567,4084.5C 1565.93,4083.72 1564.76,4083.89 1563.5,4085C 1560.3,4088.54 1556.8,4091.7 1553,4094.5C 1552.33,4092.5 1552.33,4090.5 1553,4088.5C 1554.52,4086.43 1555.36,4084.1 1555.5,4081.5C 1551.77,4081.87 1548.1,4082.54 1544.5,4083.5C 1544.33,4091.47 1543.83,4091.47 1543,4083.5C 1541.47,4088.63 1540.47,4088.63 1540,4083.5C 1537.46,4084.76 1535.8,4086.76 1535,4089.5C 1534.98,4087.2 1535.15,4084.87 1535.5,4082.5C 1533.82,4082.71 1532.82,4082.05 1532.5,4080.5C 1530.74,4078.86 1529.24,4076.86 1528,4074.5C 1526.02,4079.3 1526.19,4083.97 1528.5,4088.5C 1525.23,4092.92 1523.73,4092.26 1524,4086.5C 1523.67,4086.83 1523.33,4087.17 1523,4087.5C 1523.21,4090.81 1523.21,4094.14 1523,4097.5C 1519.08,4093.17 1518.58,4088.34 1521.5,4083C 1521.37,4081.94 1520.87,4081.11 1520,4080.5C 1516.77,4083.94 1513.77,4087.61 1511,4091.5C 1509.96,4090.38 1509.29,4089.04 1509,4087.5C 1507.25,4089.49 1506.25,4091.82 1506,4094.5C 1504.5,4095.33 1503.33,4096.5 1502.5,4098C 1501.5,4098.67 1500.5,4098.67 1499.5,4098C 1501.33,4091.49 1500.5,4085.33 1497,4079.5C 1496.01,4083.13 1495.18,4086.8 1494.5,4090.5C 1494.79,4092.04 1495.46,4093.38 1496.5,4094.5C 1495.94,4098.41 1494.44,4099.08 1492,4096.5C 1487.99,4096.96 1484.16,4097.96 1480.5,4099.5C 1480.17,4099.17 1479.83,4098.83 1479.5,4098.5C 1480.09,4096.62 1480.76,4094.78 1481.5,4093C 1480.97,4092.31 1480.31,4091.81 1479.5,4091.5C 1475.69,4095.78 1472.35,4100.44 1469.5,4105.5C 1467.58,4101.21 1468.58,4097.88 1472.5,4095.5C 1473.43,4094.23 1473.59,4092.9 1473,4091.5C 1467.33,4095.83 1462.33,4100.83 1458,4106.5C 1457.59,4103.77 1456.92,4101.1 1456,4098.5C 1454.95,4100.09 1453.79,4101.59 1452.5,4103C 1451.55,4103.62 1450.72,4103.45 1450,4102.5C 1447.75,4110.23 1445.91,4110.23 1444.5,4102.5C 1440.97,4105.2 1438.8,4104.2 1438,4099.5C 1437.39,4101.48 1436.39,4101.81 1435,4100.5C 1434.09,4101.33 1433.42,4102.33 1433,4103.5C 1429.09,4102.64 1426.76,4104.31 1426,4108.5C 1425,4109.17 1424,4109.83 1423,4110.5C 1422.58,4109.33 1421.91,4108.33 1421,4107.5C 1419.76,4112.15 1418.1,4112.48 1416,4108.5C 1415.63,4109.91 1414.8,4110.91 1413.5,4111.5C 1411.93,4110.29 1411.1,4108.62 1411,4106.5C 1405.97,4108.03 1400.8,4109.19 1395.5,4110C 1393.64,4111.56 1392.14,4113.39 1391,4115.5C 1390.93,4111.31 1390.26,4107.31 1389,4103.5C 1388.67,4108.83 1388.33,4114.17 1388,4119.5C 1387.61,4120.43 1386.95,4121.09 1386,4121.5C 1378.47,4117.48 1370.63,4114.15 1362.5,4111.5C 1356.46,4111.03 1354.46,4113.53 1356.5,4119C 1356.49,4120.4 1355.99,4121.57 1355,4122.5C 1352.07,4118.68 1348.9,4118.52 1345.5,4122C 1344.17,4122.67 1342.83,4122.67 1341.5,4122C 1339.62,4119.75 1338.12,4117.25 1337,4114.5C 1336.26,4115.57 1335.26,4116.24 1334,4116.5C 1332.53,4115.67 1331.03,4115.5 1329.5,4116C 1328.15,4117.72 1326.98,4119.55 1326,4121.5C 1325.01,4118.58 1324.35,4115.58 1324,4112.5C 1321.95,4116.78 1319.78,4120.94 1317.5,4125C 1316.5,4125.67 1315.5,4125.67 1314.5,4125C 1310.7,4121.7 1306.87,4118.53 1303,4115.5C 1298.84,4119.15 1294.67,4122.81 1290.5,4126.5C 1288.35,4118.79 1287.35,4118.79 1287.5,4126.5C 1283.05,4126.86 1279.55,4125.19 1277,4121.5C 1275.46,4125.47 1275.13,4129.47 1276,4133.5C 1272.57,4136.76 1268.74,4139.43 1264.5,4141.5C 1263.19,4140.69 1262.02,4139.69 1261,4138.5C 1260.67,4138.83 1260.33,4139.17 1260,4139.5C 1258.9,4135.86 1257.23,4132.53 1255,4129.5C 1254.75,4131.93 1255.25,4134.26 1256.5,4136.5C 1253.5,4138.67 1250.5,4140.83 1247.5,4143C 1246.36,4143.75 1245.36,4143.58 1244.5,4142.5C 1244.02,4141.07 1243.36,4139.74 1242.5,4138.5C 1240.96,4139.75 1239.46,4139.75 1238,4138.5C 1238.2,4147.38 1236.53,4147.71 1233,4139.5C 1232.53,4141.78 1231.53,4143.78 1230,4145.5C 1228.65,4141.47 1226.32,4138.13 1223,4135.5C 1222.8,4138.28 1223.63,4140.78 1225.5,4143C 1225.37,4144.06 1224.87,4144.89 1224,4145.5C 1223,4143.5 1222,4141.5 1221,4139.5C 1220.51,4141.13 1220.34,4142.8 1220.5,4144.5C 1220.15,4151.8 1217.65,4152.47 1213,4146.5C 1211.33,4143.83 1209.67,4141.17 1208,4138.5C 1207.5,4140.47 1207.34,4142.47 1207.5,4144.5C 1206.17,4144.5 1204.83,4144.5 1203.5,4144.5C 1203.91,4146.11 1203.91,4147.44 1203.5,4148.5C 1201.37,4146.1 1198.7,4144.77 1195.5,4144.5C 1191.28,4145.91 1186.95,4146.58 1182.5,4146.5C 1182.82,4149.9 1182.49,4153.23 1181.5,4156.5C 1177.78,4149.58 1174.62,4149.92 1172,4157.5C 1171.79,4160.23 1170.96,4162.73 1169.5,4165C 1169.83,4165.33 1170.17,4165.67 1170.5,4166C 1169.26,4166.46 1168.42,4165.96 1168,4164.5C 1168.05,4166.31 1167.88,4167.98 1167.5,4169.5C 1163.7,4167.57 1159.7,4166.23 1155.5,4165.5C 1153.09,4165.41 1151.26,4166.41 1150,4168.5C 1147.91,4166.25 1146.58,4163.59 1146,4160.5C 1143.85,4165.29 1141.52,4169.96 1139,4174.5C 1138.09,4173.67 1137.42,4172.67 1137,4171.5C 1136.4,4175.08 1135.07,4175.42 1133,4172.5C 1132.58,4173.67 1131.91,4174.67 1131,4175.5C 1128.95,4172.04 1127.29,4168.37 1126,4164.5C 1126.49,4169.16 1127.33,4173.82 1128.5,4178.5C 1128.17,4179.5 1127.83,4180.5 1127.5,4181.5C 1124.35,4177.2 1121.18,4172.87 1118,4168.5C 1117.31,4169.03 1116.81,4169.69 1116.5,4170.5C 1118.74,4174.98 1120.41,4179.65 1121.5,4184.5C 1120.5,4184.5 1119.5,4184.5 1118.5,4184.5C 1118.82,4187.68 1117.49,4188.85 1114.5,4188C 1113.87,4187.25 1113.37,4186.42 1113,4185.5C 1112.75,4186.62 1112.25,4187.62 1111.5,4188.5C 1110.4,4186.37 1109.4,4184.2 1108.5,4182C 1109.43,4181.61 1110.09,4180.95 1110.5,4180C 1109.89,4177.94 1108.89,4176.11 1107.5,4174.5C 1109.8,4171.19 1109.63,4167.86 1107,4164.5C 1106.23,4168.15 1105.56,4171.81 1105,4175.5C 1103.49,4173.7 1103.33,4171.87 1104.5,4170C 1103.87,4169.25 1103.37,4168.42 1103,4167.5C 1102.23,4168.6 1101.4,4168.6 1100.5,4167.5C 1101.13,4170.94 1102.47,4174.1 1104.5,4177C 1103.46,4181.03 1101.96,4184.86 1100,4188.5C 1099.67,4187.83 1099.33,4187.17 1099,4186.5C 1099.19,4190.48 1099.19,4194.48 1099,4198.5C 1097.19,4194.2 1094.85,4190.2 1092,4186.5C 1092.54,4189.61 1093.71,4192.61 1095.5,4195.5C 1094.75,4195.74 1093.92,4196.07 1093,4196.5C 1091.33,4194.5 1089.67,4192.5 1088,4190.5C 1087.31,4191.03 1086.81,4191.69 1086.5,4192.5C 1087.82,4197.09 1087.32,4197.42 1085,4193.5C 1084.5,4196.53 1084.67,4199.53 1085.5,4202.5C 1082.87,4197.81 1080.7,4192.81 1079,4187.5C 1078.52,4192.72 1079.68,4197.56 1082.5,4202C 1082.33,4202.5 1082.17,4203 1082,4203.5C 1080.33,4201.83 1078.67,4200.17 1077,4198.5C 1073.49,4201.55 1072.65,4205.22 1074.5,4209.5C 1072.81,4206.32 1070.15,4204.49 1066.5,4204C 1065.3,4203.1 1064.47,4201.93 1064,4200.5C 1064.25,4203.13 1064.25,4205.8 1064,4208.5C 1062.96,4206.41 1061.46,4204.75 1059.5,4203.5C 1058.83,4203.83 1058.17,4204.17 1057.5,4204.5C 1056.64,4207 1055.64,4209.33 1054.5,4211.5C 1053.97,4207.96 1052.14,4205.29 1049,4203.5C 1048.7,4205.07 1049.2,4206.4 1050.5,4207.5C 1049.17,4208.17 1049.17,4208.83 1050.5,4209.5C 1050.26,4210.79 1050.6,4211.79 1051.5,4212.5C 1051.99,4216.29 1051.16,4216.96 1049,4214.5C 1047.9,4216.39 1046.57,4217.06 1045,4216.5C 1042,4214.83 1039.67,4212.5 1038,4209.5C 1031.3,4197.43 1024.63,4185.43 1018,4173.5C 1016.63,4168.93 1015.79,4164.26 1015.5,4159.5C 1017.72,4159.18 1019.56,4159.84 1021,4161.5C 1023.17,4165.84 1025.84,4169.84 1029,4173.5C 1029.33,4170.5 1029.67,4167.5 1030,4164.5C 1032.41,4166.69 1034.91,4166.53 1037.5,4164C 1034.14,4161.65 1033.14,4158.65 1034.5,4155C 1035.5,4154.33 1036.5,4154.33 1037.5,4155C 1040.69,4157.69 1044.03,4160.19 1047.5,4162.5C 1047.83,4161.83 1048.17,4161.17 1048.5,4160.5C 1047.18,4156.91 1046.68,4153.24 1047,4149.5C 1047.42,4150.67 1048.09,4151.67 1049,4152.5C 1049.19,4150.42 1049.69,4148.42 1050.5,4146.5C 1052.42,4147.98 1054.59,4148.98 1057,4149.5C 1057.95,4149.09 1058.61,4148.43 1059,4147.5C 1066.18,4129.45 1070.84,4110.79 1073,4091.5C 1074.18,4086.46 1075.51,4081.46 1077,4076.5C 1080.16,4073.92 1083.49,4071.59 1087,4069.5C 1089.83,4063.5 1089,4058.17 1084.5,4053.5C 1086.36,4046.73 1088.53,4040.07 1091,4033.5C 1090.67,4041.16 1093.84,4043.16 1100.5,4039.5C 1105.2,4025.53 1107.36,4011.2 1107,3996.5C 1106.36,3995.35 1105.52,3994.35 1104.5,3993.5C 1113.03,3971.75 1121.86,3950.08 1131,3928.5C 1133.45,3915.21 1136.28,3902.04 1139.5,3889C 1136.67,3887.75 1134,3886.25 1131.5,3884.5C 1130.57,3883.31 1130.24,3881.98 1130.5,3880.5C 1132.86,3880.66 1135.19,3880.5 1137.5,3880C 1135.52,3877.5 1135.02,3874.67 1136,3871.5C 1139.67,3863.5 1143.33,3855.5 1147,3847.5C 1148.16,3842.72 1147.33,3838.39 1144.5,3834.5C 1145.78,3831.89 1147.45,3829.55 1149.5,3827.5C 1150.09,3827.71 1150.59,3828.04 1151,3828.5C 1151.35,3831.58 1152.01,3834.58 1153,3837.5C 1153.89,3838.71 1154.73,3838.71 1155.5,3837.5C 1156.1,3836.21 1156.6,3834.87 1157,3833.5C 1157.33,3825.17 1157.67,3816.83 1158,3808.5C 1159.27,3805.78 1161.44,3804.44 1164.5,3804.5C 1164.66,3802.14 1164.5,3799.81 1164,3797.5C 1162.61,3799.14 1161.11,3800.64 1159.5,3802C 1154.21,3801.67 1154.21,3800.67 1159.5,3799C 1160.79,3797.59 1161.95,3796.09 1163,3794.5C 1165.7,3783.59 1168.04,3772.59 1170,3761.5C 1171.22,3758.01 1172.72,3754.67 1174.5,3751.5C 1172.88,3749.16 1171.05,3749.16 1169,3751.5C 1167.1,3749.13 1166.43,3746.46 1167,3743.5C 1168.15,3744.46 1169.15,3744.12 1170,3742.5C 1171.43,3740 1171.6,3737.5 1170.5,3735C 1168,3733.92 1165.67,3732.59 1163.5,3731C 1171.93,3726.39 1179.93,3721.22 1187.5,3715.5C 1186.4,3711.46 1184.4,3707.96 1181.5,3705C 1178.67,3704.95 1176.17,3704.12 1174,3702.5C 1172.49,3697.25 1172.16,3691.92 1173,3686.5C 1175.54,3683.89 1176.71,3680.72 1176.5,3677C 1173.37,3664 1173.87,3651.17 1178,3638.5C 1177.87,3642.03 1179.54,3644.03 1183,3644.5C 1183.17,3640.51 1183,3636.51 1182.5,3632.5C 1184.45,3631.37 1185.95,3629.71 1187,3627.5C 1187.34,3624 1187.17,3620.5 1186.5,3617C 1186.33,3613.87 1187.16,3611.04 1189,3608.5C 1190.21,3613.71 1193.38,3615.54 1198.5,3614C 1199.57,3613.26 1200.24,3612.26 1200.5,3611C 1197.83,3604.32 1195.16,3597.65 1192.5,3591C 1193.17,3590.33 1193.83,3590.33 1194.5,3591C 1197.04,3593.87 1199.87,3596.37 1203,3598.5C 1202.98,3587.04 1201.64,3575.71 1199,3564.5C 1196.6,3554.38 1199.27,3546.05 1207,3539.5C 1208.39,3542.28 1208.89,3545.28 1208.5,3548.5C 1212.38,3547.79 1214.88,3545.46 1216,3541.5C 1217.68,3533.38 1215.18,3527.88 1208.5,3525C 1209.07,3523.13 1209.73,3521.3 1210.5,3519.5C 1211.27,3518.29 1212.11,3518.29 1213,3519.5C 1215.74,3524.13 1217.41,3529.13 1218,3534.5C 1219.66,3544.95 1220.5,3555.29 1220.5,3565.5C 1218.38,3561.3 1216.54,3556.97 1215,3552.5C 1214.15,3550.88 1213.15,3550.54 1212,3551.5C 1214.26,3565.46 1216.26,3579.46 1218,3593.5C 1215.92,3589.42 1213.09,3585.92 1209.5,3583C 1208.55,3582.38 1207.72,3582.55 1207,3583.5C 1206.33,3586.17 1206.33,3588.83 1207,3591.5C 1210.38,3595.25 1211.71,3599.58 1211,3604.5C 1208.26,3606.92 1205.76,3609.42 1203.5,3612C 1205.03,3624.65 1203.19,3636.82 1198,3648.5C 1196.91,3644.55 1195.08,3641.05 1192.5,3638C 1190.4,3637.75 1189.06,3638.75 1188.5,3641C 1190.8,3655.02 1193.96,3668.86 1198,3682.5C 1199.83,3694.8 1201.33,3707.13 1202.5,3719.5C 1200.71,3737.06 1196.54,3754.06 1190,3770.5C 1187.15,3778.73 1186.49,3787.06 1188,3795.5C 1190.18,3793.13 1192.34,3790.79 1194.5,3788.5C 1196.94,3790.66 1197.1,3792.99 1195,3795.5C 1192.91,3794.5 1191.24,3795.17 1190,3797.5C 1189.48,3800.03 1188.32,3802.2 1186.5,3804C 1187.61,3807.04 1188.27,3810.21 1188.5,3813.5C 1186.81,3820.73 1184.81,3827.89 1182.5,3835C 1183.23,3836.77 1183.57,3838.6 1183.5,3840.5C 1182.32,3840.28 1181.32,3840.61 1180.5,3841.5C 1178.04,3844.91 1175.71,3848.41 1173.5,3852C 1169.83,3852.17 1167.16,3853.83 1165.5,3857C 1162.94,3857.45 1161.44,3856.28 1161,3853.5C 1160.7,3862.98 1159.37,3872.31 1157,3881.5C 1155.12,3890.93 1156.79,3899.6 1162,3907.5C 1163,3905.83 1164,3904.17 1165,3902.5C 1165.17,3903 1165.33,3903.5 1165.5,3904C 1160.42,3917.93 1154.59,3931.43 1148,3944.5C 1145.98,3946.68 1143.82,3948.68 1141.5,3950.5C 1140.46,3945.69 1140.46,3940.86 1141.5,3936C 1141.33,3934.5 1141.17,3933 1141,3931.5C 1140.67,3931.83 1140.33,3932.17 1140,3932.5C 1138.22,3943.48 1138.39,3954.48 1140.5,3965.5C 1140.56,3968.06 1139.89,3970.39 1138.5,3972.5C 1137.91,3972.29 1137.41,3971.96 1137,3971.5C 1135.73,3967.6 1135.23,3963.6 1135.5,3959.5C 1132.61,3959.22 1131.11,3960.55 1131,3963.5C 1130.2,3971.55 1130.37,3979.55 1131.5,3987.5C 1129.88,3987.67 1128.22,3988 1126.5,3988.5C 1124,3992.12 1123.33,3995.96 1124.5,4000C 1127.7,4000.1 1130.7,4000.77 1133.5,4002C 1132.5,4003.67 1131.5,4005.33 1130.5,4007C 1132,4007.51 1133.16,4007.01 1134,4005.5C 1134.17,4005.83 1134.33,4006.17 1134.5,4006.5C 1130.36,4012.47 1126.03,4018.31 1121.5,4024C 1119.1,4026.15 1116.94,4025.98 1115,4023.5C 1114.33,4026.83 1114.33,4030.17 1115,4033.5C 1115.84,4035.01 1117,4035.51 1118.5,4035C 1122.6,4027.91 1127.76,4021.74 1134,4016.5C 1134.41,4022.19 1134.07,4027.86 1133,4033.5C 1131.56,4034.87 1129.89,4035.87 1128,4036.5C 1121.64,4046.88 1116.64,4057.88 1113,4069.5C 1112.33,4072.17 1112.33,4074.83 1113,4077.5C 1113.9,4076.3 1115.07,4075.47 1116.5,4075C 1120.3,4074.47 1123.97,4073.47 1127.5,4072C 1131.89,4065.16 1137.89,4060.83 1145.5,4059C 1146.33,4059.83 1147.17,4060.67 1148,4061.5C 1151.06,4054.38 1154.89,4047.71 1159.5,4041.5C 1165.31,4037.53 1170.97,4033.36 1176.5,4029C 1178.65,4027.59 1180.98,4026.76 1183.5,4026.5C 1183.34,4027.87 1183.51,4029.21 1184,4030.5C 1198.32,4008.85 1215.48,3989.68 1235.5,3973C 1236.33,3972.31 1237,3972.48 1237.5,3973.5C 1238.15,3975.12 1238.65,3976.78 1239,3978.5C 1241.43,3974.87 1244.59,3972.03 1248.5,3970C 1255.32,3966.75 1261.99,3963.25 1268.5,3959.5C 1271.58,3957.21 1272.08,3954.54 1270,3951.5C 1268.85,3952.74 1267.51,3953.74 1266,3954.5C 1291.34,3927.47 1315.01,3898.8 1337,3868.5C 1339.54,3865.69 1341.7,3865.85 1343.5,3869C 1340.83,3873.33 1338.17,3877.67 1335.5,3882C 1336.01,3883.17 1336.84,3884 1338,3884.5C 1351.39,3872.38 1363.39,3859.05 1374,3844.5C 1380.33,3838.17 1386.67,3831.83 1393,3825.5C 1393,3826.83 1393,3828.17 1393,3829.5C 1395.29,3828.21 1397.29,3826.54 1399,3824.5C 1398.68,3822.23 1397.18,3821.23 1394.5,3821.5C 1393.7,3817.41 1395.04,3814.24 1398.5,3812C 1408.19,3815.45 1411.53,3812.12 1408.5,3802C 1408.83,3801.5 1409.17,3801 1409.5,3800.5C 1411.15,3801.65 1412.65,3802.98 1414,3804.5C 1415.67,3801.17 1417.33,3797.83 1419,3794.5C 1425.05,3787.45 1430.72,3780.12 1436,3772.5C 1437.91,3769.79 1438.74,3766.79 1438.5,3763.5C 1439.55,3763.35 1440.55,3763.52 1441.5,3764C 1443.31,3766.64 1445.31,3769.14 1447.5,3771.5C 1448.45,3772.33 1449.45,3772.49 1450.5,3772C 1457.36,3766.97 1462.03,3760.3 1464.5,3752C 1463.67,3746.34 1465.67,3741.84 1470.5,3738.5C 1470.83,3738.83 1471.17,3739.17 1471.5,3739.5C 1470.5,3741.5 1469.5,3743.5 1468.5,3745.5C 1469.79,3746.41 1471.12,3746.24 1472.5,3745C 1479.33,3739.5 1486.17,3734 1493,3728.5C 1493.97,3726.7 1495.14,3725.03 1496.5,3723.5C 1495.33,3721.83 1494.17,3720.17 1493,3718.5C 1492.24,3716.23 1492.41,3714.06 1493.5,3712C 1488.83,3714.67 1484.17,3717.33 1479.5,3720C 1485.63,3710.9 1492.13,3702.07 1499,3693.5C 1499.17,3693.83 1499.33,3694.17 1499.5,3694.5C 1498.12,3697.45 1497.29,3700.45 1497,3703.5C 1505.58,3692.99 1512.58,3681.65 1518,3669.5C 1515.61,3670.72 1513.11,3671.22 1510.5,3671C 1513.79,3665.58 1516.96,3660.08 1520,3654.5C 1521.97,3654.37 1524.14,3654.21 1526.5,3654C 1530.34,3651.48 1534.18,3648.98 1538,3646.5C 1540.03,3647.52 1541.36,3649.19 1542,3651.5C 1550.21,3643.4 1557.21,3634.4 1563,3624.5C 1570.22,3608.4 1578.22,3592.73 1587,3577.5C 1588.69,3575.01 1590.02,3575.35 1591,3578.5C 1600.87,3568.1 1607.03,3555.77 1609.5,3541.5C 1610.32,3544.11 1610.82,3546.77 1611,3549.5C 1612,3548.17 1613,3546.83 1614,3545.5C 1617.39,3534.62 1621.39,3523.96 1626,3513.5C 1627.13,3515.35 1627.63,3517.35 1627.5,3519.5C 1629.66,3519.88 1631.33,3519.22 1632.5,3517.5C 1629.96,3513.53 1629.96,3509.53 1632.5,3505.5C 1633.62,3507.37 1634.46,3509.37 1635,3511.5C 1637.63,3513.99 1640.46,3514.15 1643.5,3512C 1647.83,3507.5 1652.83,3504 1658.5,3501.5C 1660.74,3502.03 1662.24,3503.37 1663,3505.5C 1664.33,3498.17 1665.67,3490.84 1667,3483.5C 1667.67,3480.17 1667.67,3476.83 1667,3473.5C 1666.65,3471.82 1665.65,3470.82 1664,3470.5C 1662.29,3471.95 1661.12,3473.79 1660.5,3476C 1660.17,3476.17 1659.83,3476.33 1659.5,3476.5C 1658.24,3473.28 1658.74,3470.28 1661,3467.5C 1663.07,3465.6 1664.9,3463.6 1666.5,3461.5C 1665.78,3463.14 1665.62,3464.8 1666,3466.5C 1678.09,3443.77 1691.75,3422.1 1707,3401.5C 1712.67,3392.83 1717.84,3383.83 1722.5,3374.5C 1723,3373.48 1723.67,3373.31 1724.5,3374C 1723.5,3377.63 1722.5,3381.3 1721.5,3385C 1721.83,3385.5 1722.17,3386 1722.5,3386.5C 1731.75,3375.72 1739.25,3363.72 1745,3350.5C 1751.94,3331.01 1759.27,3311.68 1767,3292.5C 1768.59,3291.27 1769.92,3291.61 1771,3293.5C 1771.67,3295.83 1771.67,3298.17 1771,3300.5C 1766.86,3309.45 1762.19,3318.12 1757,3326.5C 1755.12,3329.87 1755.12,3333.2 1757,3336.5C 1777.46,3297.58 1795.79,3257.58 1812,3216.5C 1817.78,3214.72 1822.45,3211.38 1826,3206.5C 1830.73,3195.66 1835.06,3184.66 1839,3173.5C 1842.64,3166.05 1847.81,3159.88 1854.5,3155C 1851.9,3152.68 1851.07,3149.85 1852,3146.5C 1853.75,3138.71 1856.92,3131.71 1861.5,3125.5C 1861.47,3126.5 1861.97,3127.16 1863,3127.5C 1865.9,3125.97 1868.73,3124.3 1871.5,3122.5C 1875,3106.79 1882,3092.96 1892.5,3081C 1894.72,3079.72 1897.05,3078.72 1899.5,3078C 1898.32,3075.16 1898.49,3072.33 1900,3069.5C 1905.27,3060.95 1909.44,3051.95 1912.5,3042.5C 1912.33,3042.17 1912.17,3041.83 1912,3041.5C 1909.02,3045.36 1905.52,3047.69 1901.5,3048.5C 1904.48,3044.36 1907.64,3040.36 1911,3036.5C 1912,3037.83 1913,3037.83 1914,3036.5C 1920.48,3025.75 1925.81,3014.42 1930,3002.5C 1932.2,2997.26 1935.04,2992.42 1938.5,2988C 1936.82,2987.65 1935.82,2986.65 1935.5,2985C 1938.37,2976.21 1941.7,2967.71 1945.5,2959.5C 1945.35,2960.55 1945.52,2961.55 1946,2962.5C 1947.71,2961.12 1949.05,2959.46 1950,2957.5C 1951.69,2947.99 1954.03,2938.65 1957,2929.5C 1957.83,2928.67 1958.67,2927.83 1959.5,2927C 1962.41,2927.28 1965.24,2927.12 1968,2926.5C 1967.12,2913.47 1969.78,2901.13 1976,2889.5C 1977.98,2885.85 1980.65,2882.85 1984,2880.5C 1983.69,2882.44 1983.69,2884.44 1984,2886.5C 1984.74,2888.64 1985.58,2888.81 1986.5,2887C 1990.6,2873.36 1995.1,2859.86 2000,2846.5C 2010.61,2821.61 2020.94,2796.61 2031,2771.5C 2036.28,2755.37 2040.78,2739.03 2044.5,2722.5C 2046.29,2726.37 2047.79,2730.37 2049,2734.5C 2055.65,2728.22 2058.65,2720.55 2058,2711.5C 2056,2706.83 2054,2702.17 2052,2697.5C 2051.33,2693.17 2051.33,2688.83 2052,2684.5C 2067.71,2648.75 2083.71,2613.08 2100,2577.5C 2117.5,2538.35 2131,2497.85 2140.5,2456C 2140.17,2455.17 2139.83,2454.33 2139.5,2453.5C 2137.61,2455.78 2135.27,2456.95 2132.5,2457C 2135.04,2454.13 2137.87,2451.63 2141,2449.5C 2142.25,2446.99 2142.75,2444.32 2142.5,2441.5C 2140.47,2441.66 2138.47,2441.5 2136.5,2441C 2142.55,2430.87 2147.05,2420.03 2150,2408.5C 2154.08,2389.44 2158.41,2370.44 2163,2351.5C 2165.9,2339.02 2171.9,2328.35 2181,2319.5C 2183.77,2298.42 2188.44,2277.75 2195,2257.5C 2197.03,2244.59 2198.03,2231.59 2198,2218.5C 2199.13,2216.79 2200.63,2216.29 2202.5,2217C 2203.86,2219.4 2205.02,2221.9 2206,2224.5C 2207.04,2223.38 2207.71,2222.04 2208,2220.5C 2208.69,2204.32 2208.52,2188.16 2207.5,2172C 2207.68,2165.09 2208.51,2158.25 2210,2151.5C 2218.13,2127.44 2226.47,2103.44 2235,2079.5C 2238.69,2066.76 2240.35,2053.76 2240,2040.5C 2240.31,2041.31 2240.81,2041.97 2241.5,2042.5C 2246.09,2039.17 2248.75,2034.67 2249.5,2029C 2248.45,2028.51 2247.45,2028.67 2246.5,2029.5C 2241.9,2036.8 2239.9,2036.13 2240.5,2027.5C 2241.23,2003.15 2242.4,1978.81 2244,1954.5C 2244.47,1949.37 2245.47,1949.37 2247,1954.5C 2249.32,1949.86 2251.65,1945.2 2254,1940.5C 2255.21,1938.95 2256.71,1937.78 2258.5,1937C 2257.83,1936 2257.17,1935 2256.5,1934C 2254.27,1933.88 2252.44,1933.05 2251,1931.5C 2249.49,1926.25 2249.16,1920.92 2250,1915.5C 2253.75,1892.83 2258.92,1870.5 2265.5,1848.5C 2263.39,1840.89 2261.06,1833.39 2258.5,1826C 2257.55,1825.52 2256.55,1825.35 2255.5,1825.5C 2255.91,1796.15 2256.74,1766.81 2258,1737.5C 2258.5,1737 2259,1736.5 2259.5,1736C 2257.89,1733.23 2256.89,1730.23 2256.5,1727C 2257.79,1719.69 2259.62,1712.52 2262,1705.5C 2259.62,1695.75 2261.62,1694.41 2268,1701.5C 2268.17,1701.17 2268.33,1700.83 2268.5,1700.5C 2267.01,1695.25 2266.51,1689.92 2267,1684.5C 2272.35,1694.14 2276.85,1693.8 2280.5,1683.5C 2280.07,1680.85 2278.74,1678.85 2276.5,1677.5C 2274.88,1681.5 2272.54,1682.17 2269.5,1679.5C 2272.04,1677.98 2274.71,1676.65 2277.5,1675.5C 2278.53,1669.36 2275.87,1666.53 2269.5,1667C 2267.63,1669.29 2266.13,1671.79 2265,1674.5C 2264.72,1647.99 2264.22,1621.49 2263.5,1595C 2263.76,1584.81 2264.43,1574.64 2265.5,1564.5C 2266.91,1565.62 2268.41,1566.62 2270,1567.5C 2269.43,1553.87 2269.43,1540.2 2270,1526.5C 2270.46,1522.58 2271.29,1518.75 2272.5,1515C 2272.36,1514.23 2272.02,1513.56 2271.5,1513C 2264.73,1511.09 2262.23,1506.59 2264,1499.5C 2269.11,1497.39 2270.78,1493.72 2269,1488.5C 2269.96,1491.38 2271.29,1494.04 2273,1496.5C 2273.37,1492.13 2272.53,1487.96 2270.5,1484C 2270.83,1483 2271.17,1482 2271.5,1481C 2269.51,1472.4 2267.84,1463.73 2266.5,1455C 2272.54,1443.7 2275.87,1431.53 2276.5,1418.5C 2276.27,1413.7 2275.43,1409.03 2274,1404.5C 2271.21,1406.84 2269.55,1409.84 2269,1413.5C 2266.94,1409.42 2266.27,1405.09 2267,1400.5C 2270.17,1397.67 2273.33,1394.83 2276.5,1392C 2273.07,1385.98 2270.07,1379.81 2267.5,1373.5C 2267.67,1372.5 2267.83,1371.5 2268,1370.5C 2269.81,1373.93 2272.31,1374.43 2275.5,1372C 2271.76,1364.59 2267.6,1357.43 2263,1350.5C 2262.23,1339.42 2262.89,1328.42 2265,1317.5C 2268.11,1306.17 2271.61,1295.01 2275.5,1284C 2272.09,1282.92 2269.59,1280.76 2268,1277.5C 2266.02,1264.93 2265.02,1252.26 2265,1239.5C 2263.41,1235.95 2261.91,1232.45 2260.5,1229C 2262.43,1215.56 2262.93,1202.06 2262,1188.5C 2259.16,1155.93 2255.66,1123.43 2251.5,1091C 2251.5,1087.96 2252.33,1087.79 2254,1090.5C 2255.1,1084.77 2254.1,1079.44 2251,1074.5C 2245.15,1068.79 2240.81,1062.12 2238,1054.5C 2237.33,1051.83 2237.33,1049.17 2238,1046.5C 2238.69,1047.36 2239.52,1048.02 2240.5,1048.5C 2242.06,1035.03 2241.22,1021.7 2238,1008.5C 2232.08,986.744 2224.58,965.578 2215.5,945C 2217,944.493 2218.16,944.993 2219,946.5C 2223.39,942.91 2223.39,939.244 2219,935.5C 2216.76,937.202 2214.26,938.202 2211.5,938.5C 2211.38,936.801 2211.05,935.135 2210.5,933.5C 2212.48,933.262 2214.14,931.929 2215.5,929.5C 2212.87,924.375 2210.04,919.375 2207,914.5C 2205.46,870.857 2198.29,828.19 2185.5,786.5C 2186.02,782.615 2188.02,781.281 2191.5,782.5C 2191.83,782 2192.17,781.5 2192.5,781C 2182.12,753.179 2170.95,725.679 2159,698.5C 2158.33,696.833 2158.33,695.167 2159,693.5C 2166.32,690.838 2167.15,687.005 2161.5,682C 2151.95,677.966 2149.29,671.633 2153.5,663C 2155.94,668.048 2158.77,672.881 2162,677.5C 2161.73,672.091 2160.06,667.091 2157,662.5C 2147.9,657.404 2141.74,649.904 2138.5,640C 2142.85,639.781 2147.02,640.615 2151,642.5C 2151.42,635.43 2149.25,629.263 2144.5,624C 2139.65,621.41 2134.65,619.076 2129.5,617C 2120.63,608.462 2119.13,598.628 2125,587.5C 2128.49,574.975 2125.99,563.809 2117.5,554C 2115.83,553.333 2114.17,553.333 2112.5,554C 2109.96,556.442 2107.13,556.942 2104,555.5C 2098.72,540.903 2091.72,527.237 2083,514.5C 2080.77,509.822 2078.94,504.989 2077.5,500C 2079.93,490.988 2083.09,490.488 2087,498.5C 2088.59,496.33 2089.92,493.996 2091,491.5C 2092.85,497.263 2094.85,502.929 2097,508.5C 2097.42,507.044 2098.26,506.544 2099.5,507C 2102.46,511.08 2105.29,515.247 2108,519.5C 2109.69,521.822 2111.53,522.322 2113.5,521C 2111.67,515.512 2109.17,510.346 2106,505.5C 2097.92,495.924 2090.42,485.924 2083.5,475.5C 2085.14,474.319 2086.8,474.319 2088.5,475.5C 2090.76,479.012 2093.26,482.346 2096,485.5C 2097.02,484.646 2097.86,483.646 2098.5,482.5C 2090.09,473.307 2090.93,472.307 2101,479.5C 2101.67,478.167 2101.67,476.833 2101,475.5C 2098.03,471.026 2094.86,466.693 2091.5,462.5C 2087.41,464.102 2084.08,466.602 2081.5,470C 2080.83,470.667 2080.17,470.667 2079.5,470C 2080.52,468.951 2080.68,467.784 2080,466.5C 2075.63,462.467 2071.63,458.134 2068,453.5C 2062.33,443.5 2056.67,433.5 2051,423.5C 2048.2,419.701 2045.04,416.201 2041.5,413C 2042.45,412.517 2043.45,412.351 2044.5,412.5C 2044.66,411.127 2044.49,409.793 2044,408.5C 2035,400.5 2026,392.5 2017,384.5C 2016.33,383.167 2016.33,381.833 2017,380.5C 2019.04,378.126 2021.37,376.126 2024,374.5C 2024.21,368.925 2022.21,364.258 2018,360.5C 2014.71,362.562 2011.21,364.229 2007.5,365.5C 2002.34,363.847 1999.18,360.514 1998,355.5C 2000.43,358.598 2003.43,360.931 2007,362.5C 2007.94,361.737 2008.44,360.737 2008.5,359.5C 2007.27,356.762 2005.44,354.429 2003,352.5C 2003,347.973 2003.5,343.473 2004.5,339C 2004.17,337.167 2003.83,335.333 2003.5,333.5C 2001.37,332.533 1999.37,331.366 1997.5,330C 1995.65,326.638 1993.32,323.638 1990.5,321C 1987.76,320.578 1985.1,320.578 1982.5,321C 1985.9,315.137 1986.4,308.97 1984,302.5C 1976.74,299.952 1969.91,296.452 1963.5,292C 1961.09,290.733 1958.76,290.233 1956.5,290.5C 1957.93,288.453 1959.93,287.453 1962.5,287.5C 1967.08,288.983 1971.75,289.483 1976.5,289C 1978.62,286.782 1978.95,284.282 1977.5,281.5C 1968.96,276.399 1960.3,271.566 1951.5,267C 1948.05,266.825 1944.72,266.658 1941.5,266.5C 1939.94,261.193 1938.44,255.86 1937,250.5C 1936.09,248.336 1934.92,246.336 1933.5,244.5C 1934.03,243.808 1934.69,243.308 1935.5,243C 1932.83,241 1930.17,239 1927.5,237C 1917.5,225.667 1906.83,215 1895.5,205C 1891.37,202.678 1887.03,200.845 1882.5,199.5C 1884.97,196.326 1885.14,192.993 1883,189.5C 1879.08,183.574 1874.41,178.241 1869,173.5C 1867.46,171.532 1866.29,169.365 1865.5,167C 1866.72,165.26 1868.38,164.26 1870.5,164C 1862.78,158.139 1854.11,154.472 1844.5,153C 1847.01,149.793 1846.84,146.626 1844,143.5C 1836.6,137.937 1830.44,131.271 1825.5,123.5C 1815.2,118.351 1804.87,113.185 1794.5,108C 1797.37,107.882 1800.04,107.216 1802.5,106C 1799.34,105.063 1796.51,103.563 1794,101.5C 1792.96,97.2699 1791.79,93.1032 1790.5,89C 1788.29,87.1929 1785.96,86.6929 1783.5,87.5C 1782.36,90.0618 1781.53,92.7284 1781,95.5C 1775.63,98.5658 1772.47,96.8991 1771.5,90.5C 1771.61,89.5581 1771.94,88.7247 1772.5,88C 1775,86.9196 1777.33,85.5862 1779.5,84C 1771.43,83.4183 1763.43,82.4183 1755.5,81C 1753.39,77.8268 1752.39,74.3268 1752.5,70.5C 1743.1,71.8088 1735.76,68.6421 1730.5,61C 1735.43,62.706 1740.1,65.206 1744.5,68.5C 1745.04,66.2362 1744.7,63.9028 1743.5,61.5C 1735.85,59.6032 1728.18,57.7698 1720.5,56C 1714.36,48.9276 1711.86,40.761 1713,31.5C 1716.37,25.1287 1720.87,19.6287 1726.5,15C 1724.7,14.6827 1724.37,14.016 1725.5,13C 1729.96,10.5463 1730.96,11.2129 1728.5,15C 1732.07,16.371 1735.57,17.871 1739,19.5C 1739.26,16.9832 1738.59,14.6498 1737,12.5C 1734.45,10.2838 1732.28,7.78375 1730.5,5C 1730.64,4.22797 1730.98,3.5613 1731.5,3C 1746.29,2.19771 1760.29,5.19771 1773.5,12C 1777.67,14.8333 1781.17,18.3333 1784,22.5C 1784.67,24.5 1784.67,26.5 1784,28.5C 1780.52,33.4308 1780.85,38.0974 1785,42.5C 1795.57,48.2018 1806.4,53.5351 1817.5,58.5C 1818.75,60.2592 1818.42,61.7592 1816.5,63C 1817.17,64 1817.83,65 1818.5,66C 1820.81,66.4966 1823.14,66.6633 1825.5,66.5C 1825.27,69.7845 1826.6,72.2845 1829.5,74C 1838.29,80.4538 1846.79,87.2871 1855,94.5C 1855.33,91.8333 1855.67,89.1667 1856,86.5C 1869.8,92.5631 1880.8,101.896 1889,114.5C 1894.66,126.492 1901.32,137.825 1909,148.5C 1911.38,151.273 1914.22,153.439 1917.5,155C 1925.06,158.277 1932.72,161.277 1940.5,164C 1938.83,167.002 1938,170.169 1938,173.5C 1943.15,175.662 1948.32,177.829 1953.5,180C 1957.67,182.833 1961.17,186.333 1964,190.5C 1973.33,205.833 1982.67,221.167 1992,236.5C 2014.4,265.635 2036.07,295.301 2057,325.5C 2074.9,355.271 2089.57,385.271 2101,415.5C 2111.85,432.021 2123.85,447.688 2137,462.5C 2149.04,477.424 2156.54,494.424 2159.5,513.5C 2159.33,514.833 2159.17,516.167 2159,517.5C 2158.28,516.549 2157.45,516.383 2156.5,517C 2157.83,520 2159.17,523 2160.5,526C 2158.21,526.015 2156.04,526.182 2154,526.5C 2153.5,528.81 2153.34,531.143 2153.5,533.5C 2157.54,534.02 2160.7,536.02 2163,539.5C 2171.1,552.381 2178.1,565.714 2184,579.5C 2181.66,576.329 2179.16,573.329 2176.5,570.5C 2173.35,573.128 2172.19,576.462 2173,580.5C 2180.01,585.847 2186.01,592.18 2191,599.5C 2201.84,619.676 2212,640.176 2221.5,661C 2219.76,663.192 2218.6,665.692 2218,668.5C 2216.74,678.176 2215.41,687.843 2214,697.5C 2213.13,701.264 2211.97,704.931 2210.5,708.5C 2214.77,711.551 2219.27,714.218 2224,716.5C 2224.95,716.095 2225.61,715.428 2226,714.5C 2228,719.17 2228.66,724.17 2228,729.5C 2229.58,733.675 2231.92,737.341 2235,740.5C 2235.33,737.793 2234.99,735.126 2234,732.5C 2231.79,724.419 2228.95,716.585 2225.5,709C 2226.05,706.73 2227.21,704.897 2229,703.5C 2232.22,705.53 2235.72,706.53 2239.5,706.5C 2242.24,715.717 2244.57,725.05 2246.5,734.5C 2244.41,740.376 2244.24,746.376 2246,752.5C 2248.24,756.794 2249.74,761.294 2250.5,766C 2248.94,766.318 2247.77,767.151 2247,768.5C 2247.57,778.225 2250.57,787.225 2256,795.5C 2262.17,805.167 2268.33,814.833 2274.5,824.5C 2274.33,824.833 2274.17,825.167 2274,825.5C 2271.69,822.809 2268.86,821.643 2265.5,822C 2263.54,825.421 2261.71,828.921 2260,832.5C 2258.89,833.305 2257.72,833.972 2256.5,834.5 Z M 2237.5,725.5 C 2240.25,726.973 2241.08,729.306 2240,732.5C 2239.15,730.146 2238.32,727.812 2237.5,725.5 Z M 2256.5,834.5 C 2250.67,825.001 2247,814.668 2245.5,803.5C 2245.6,800.549 2246.43,797.882 2248,795.5C 2251.94,808.256 2254.77,821.256 2256.5,834.5 Z M 2203.5,805.5 C 2205.63,805.147 2206.97,805.98 2207.5,808C 2206.8,811.128 2206.3,814.294 2206,817.5C 2204.85,813.553 2204.01,809.553 2203.5,805.5 Z M 1540.5,4042.5 C 1542.09,4044.53 1542.59,4046.86 1542,4049.5C 1541.02,4047.26 1540.52,4044.93 1540.5,4042.5 Z M 1473.5,4043.5 C 1474.04,4043.56 1474.38,4043.89 1474.5,4044.5C 1473.19,4047.41 1472.69,4050.41 1473,4053.5C 1473.91,4052.67 1474.58,4051.67 1475,4050.5C 1475.17,4051.17 1475.33,4051.83 1475.5,4052.5C 1474.13,4054.37 1472.97,4056.37 1472,4058.5C 1469.65,4053.15 1470.15,4048.15 1473.5,4043.5 Z M 1526.5,4045.5 C 1527.22,4045.92 1527.72,4046.58 1528,4047.5C 1528.33,4047.17 1528.67,4046.83 1529,4046.5C 1529.87,4050.96 1529.53,4055.29 1528,4059.5C 1526.62,4054.96 1526.12,4050.3 1526.5,4045.5 Z M 1532.5,4080.5 C 1533.57,4073.91 1534.57,4073.91 1535.5,4080.5C 1534.5,4080.5 1533.5,4080.5 1532.5,4080.5 Z M 1622.5,4080.5 C 1622.46,4079.24 1622.96,4078.24 1624,4077.5C 1624.58,4079 1624.08,4080 1622.5,4080.5 Z M 1101.5,4102.5 C 1095.99,4112.18 1089.49,4121.18 1082,4129.5C 1082.44,4132.57 1081.77,4135.57 1080,4138.5C 1076.97,4141.87 1073.63,4144.87 1070,4147.5C 1069.07,4150.36 1067.4,4152.69 1065,4154.5C 1074.31,4137.47 1084.98,4121.14 1097,4105.5C 1098.13,4103.86 1099.63,4102.86 1101.5,4102.5 Z M 1153.5,4102.5 C 1155.17,4105.55 1155.67,4108.89 1155,4112.5C 1154.75,4111.38 1154.25,4110.38 1153.5,4109.5C 1152.69,4111.42 1152.19,4113.42 1152,4115.5C 1151.26,4113.78 1150.43,4112.11 1149.5,4110.5C 1148.69,4110.81 1148.03,4111.31 1147.5,4112C 1148.52,4114.45 1149.02,4116.95 1149,4119.5C 1146.09,4118.25 1144.25,4116.09 1143.5,4113C 1146.35,4108.98 1149.68,4105.48 1153.5,4102.5 Z M 1140.5,4113.5 C 1141.61,4114.95 1141.78,4116.61 1141,4118.5C 1139.21,4116.98 1139.04,4115.31 1140.5,4113.5 Z M 1123.5,4128.5 C 1121.91,4127.36 1121.58,4126.03 1122.5,4124.5C 1123.43,4125.69 1123.76,4127.02 1123.5,4128.5 Z M 1100.5,4167.5 C 1098.91,4166.36 1098.58,4165.03 1099.5,4163.5C 1100.43,4164.69 1100.76,4166.02 1100.5,4167.5 Z M 1054.5,4211.5 C 1053.17,4210.17 1051.83,4208.83 1050.5,4207.5C 1049.2,4206.4 1048.7,4205.07 1049,4203.5C 1052.14,4205.29 1053.97,4207.96 1054.5,4211.5 Z"/></g>
<g><path style="opacity:0.736" fill="#fefffe" d="M 2070.5,469.5 C 2070.74,468.903 2071.24,468.57 2072,468.5C 2074.29,470.06 2076.79,471.227 2079.5,472C 2078.26,474.563 2076.93,477.063 2075.5,479.5C 2073.44,476.273 2071.77,472.94 2070.5,469.5 Z"/></g>
<g><path style="opacity:0.23" fill="#fefffe" d="M 2271.5,1413.5 C 2273.38,1414.66 2273.88,1416.33 2273,1418.5C 2271.99,1416.98 2271.49,1415.31 2271.5,1413.5 Z"/></g>
<g><path style="opacity:0.483" fill="#fefffe" d="M 2345.5,1472.5 C 2347.6,1477.57 2348.77,1482.91 2349,1488.5C 2346.06,1483.57 2344.9,1478.23 2345.5,1472.5 Z"/></g>
<g><path style="opacity:0.791" fill="#fefffe" d="M 2244.5,2337.5 C 2242.38,2344.67 2238.88,2345.67 2234,2340.5C 2232.2,2337.07 2230.04,2333.91 2227.5,2331C 2228.98,2328.36 2230.98,2326.19 2233.5,2324.5C 2234.9,2324.87 2235.9,2325.7 2236.5,2327C 2237.32,2331.46 2238.82,2335.63 2241,2339.5C 2242.11,2338.69 2243.28,2338.03 2244.5,2337.5 Z"/></g>
<g><path style="opacity:0.043" fill="#fefffe" d="M 2244.5,2336.5 C 2245.83,2337.17 2245.83,2337.17 2244.5,2336.5 Z"/></g>
<g><path style="opacity:0.7" fill="#fefffe" d="M 2137.5,2662.5 C 2138.85,2671.48 2135.51,2678.48 2127.5,2683.5C 2127.17,2683.17 2126.83,2682.83 2126.5,2682.5C 2130.18,2675.81 2133.85,2669.14 2137.5,2662.5 Z"/></g>
<g><path style="opacity:0.09" fill="#fefffe" d="M 1945.5,2959.5 C 1945.37,2958.76 1945.54,2958.09 1946,2957.5C 1946.69,2958.44 1946.53,2959.1 1945.5,2959.5 Z"/></g>
<g><path style="opacity:0.289" fill="#fefffe" d="M 1978.5,3037.5 C 1979.21,3039.79 1978.38,3041.79 1976,3043.5C 1975.46,3040.92 1976.29,3038.92 1978.5,3037.5 Z"/></g>
<g><path style="opacity:0.803" fill="#fefffe" d="M 1964.5,3061.5 C 1968.31,3061.93 1971.98,3062.76 1975.5,3064C 1974.7,3067.3 1972.7,3069.47 1969.5,3070.5C 1965.53,3068.91 1963.87,3065.91 1964.5,3061.5 Z"/></g>
<g><path style="opacity:0.027" fill="#fefffe" d="M 1868.5,3113.5 C 1868.79,3111.58 1869.63,3109.91 1871,3108.5C 1871.25,3110.67 1870.42,3112.33 1868.5,3113.5 Z"/></g>
<g><path style="opacity:0.13" fill="#fefffe" d="M 1868.5,3113.5 C 1867,3117.17 1865,3120.51 1862.5,3123.5C 1863.5,3119.49 1865.5,3116.16 1868.5,3113.5 Z"/></g>
<g><path style="opacity:0.055" fill="#fefffe" d="M 1862.5,3123.5 C 1862.67,3124.49 1862.34,3125.16 1861.5,3125.5C 1861.33,3124.51 1861.66,3123.84 1862.5,3123.5 Z"/></g>
<g><path style="opacity:0.3" fill="#fefffe" d="M 1920.5,3155.5 C 1920.31,3153.9 1920.81,3152.56 1922,3151.5C 1922.35,3153.14 1921.85,3154.47 1920.5,3155.5 Z"/></g>
<g><path style="opacity:0.225" fill="#fefffe" d="M 1920.5,3155.5 C 1920.65,3156.55 1920.48,3157.55 1920,3158.5C 1919.26,3157.25 1919.43,3156.25 1920.5,3155.5 Z"/></g>
<g><path style="opacity:0.18" fill="#fefffe" d="M 1916.5,3158.5 C 1918.98,3158.75 1918.98,3159.41 1916.5,3160.5C 1915.54,3160.03 1915.54,3159.36 1916.5,3158.5 Z"/></g>
<g><path style="opacity:0.438" fill="#fefffe" d="M 1857.5,3280.5 C 1863.64,3280.1 1863.97,3281.1 1858.5,3283.5C 1856.48,3282.87 1856.15,3281.87 1857.5,3280.5 Z"/></g>
<g><path style="opacity:0.786" fill="#fefffe" d="M 1220.5,3443.5 C 1222.79,3443.24 1224.96,3443.58 1227,3444.5C 1227.71,3448.36 1228.54,3452.2 1229.5,3456C 1229.17,3456.5 1228.83,3457 1228.5,3457.5C 1225.25,3455.62 1222.08,3453.62 1219,3451.5C 1218.55,3448.67 1219.05,3446 1220.5,3443.5 Z"/></g>
<g><path style="opacity:0.027" fill="#fefffe" d="M 1667.5,3459.5 C 1667.37,3458.76 1667.54,3458.09 1668,3457.5C 1668.69,3458.44 1668.53,3459.1 1667.5,3459.5 Z"/></g>
<g><path style="opacity:0.108" fill="#fefffe" d="M 1667.5,3459.5 C 1667.67,3460.49 1667.34,3461.16 1666.5,3461.5C 1666.33,3460.51 1666.66,3459.84 1667.5,3459.5 Z"/></g>
<g><path style="opacity:0.834" fill="#fefffe" d="M 1215.5,3460.5 C 1217.61,3461.45 1218.78,3463.12 1219,3465.5C 1219.5,3469.82 1219.67,3474.15 1219.5,3478.5C 1215.78,3478.05 1213.61,3479.72 1213,3483.5C 1212.33,3485.5 1212.33,3487.5 1213,3489.5C 1214.67,3491.17 1216.33,3492.83 1218,3494.5C 1220.88,3500.42 1224.38,3505.92 1228.5,3511C 1224.74,3513.87 1220.74,3514.2 1216.5,3512C 1211.38,3508.11 1207.71,3503.11 1205.5,3497C 1207.26,3496.86 1208.92,3497.36 1210.5,3498.5C 1210.83,3498 1211.17,3497.5 1211.5,3497C 1206.43,3483.98 1207.76,3471.81 1215.5,3460.5 Z"/></g>
<g><path style="opacity:0.323" fill="#fefffe" d="M 1713.5,3476.5 C 1713.82,3478.75 1713.32,3480.75 1712,3482.5C 1711.59,3480.23 1712.09,3478.23 1713.5,3476.5 Z"/></g>
<g><path style="opacity:0.142" fill="#fefffe" d="M 1717.5,3484.5 C 1718.24,3484.37 1718.91,3484.54 1719.5,3485C 1718,3486.5 1716.5,3488 1715,3489.5C 1715.06,3487.56 1715.89,3485.9 1717.5,3484.5 Z"/></g>
<g><path style="opacity:0.318" fill="#fefffe" d="M 1225.5,3520.5 C 1226.12,3520.61 1226.62,3520.94 1227,3521.5C 1227.41,3526.96 1228.08,3532.29 1229,3537.5C 1226.37,3532.19 1225.2,3526.52 1225.5,3520.5 Z"/></g>
<g><path style="opacity:0.119" fill="#fefffe" d="M 1209.5,3530.5 C 1211.65,3530.7 1211.81,3531.7 1210,3533.5C 1209.52,3532.55 1209.35,3531.55 1209.5,3530.5 Z"/></g>
<g><path style="opacity:0.096" fill="#fefffe" d="M 1675.5,3570.5 C 1676.53,3570.9 1676.69,3571.56 1676,3572.5C 1675.54,3571.91 1675.37,3571.24 1675.5,3570.5 Z"/></g>
<g><path style="opacity:0.099" fill="#fefffe" d="M 1666.5,3576.5 C 1666.57,3578.03 1665.91,3579.03 1664.5,3579.5C 1664.43,3577.97 1665.09,3576.97 1666.5,3576.5 Z"/></g>
<g><path style="opacity:0.063" fill="#fefffe" d="M 1664.5,3579.5 C 1663.83,3580.17 1663.83,3580.17 1664.5,3579.5 Z"/></g>
<g><path style="opacity:0.459" fill="#fefffe" d="M 1218.5,3596.5 C 1222.68,3599.76 1223.35,3603.76 1220.5,3608.5C 1219.35,3606.85 1218.02,3605.35 1216.5,3604C 1218.28,3601.86 1218.95,3599.36 1218.5,3596.5 Z"/></g>
<g><path style="opacity:0.016" fill="#fefffe" d="M 1642.5,3615.5 C 1643.53,3615.9 1643.69,3616.56 1643,3617.5C 1642.54,3616.91 1642.37,3616.24 1642.5,3615.5 Z"/></g>
<g><path style="opacity:0.039" fill="#fefffe" d="M 1182.5,3632.5 C 1181.83,3631.17 1181.83,3631.17 1182.5,3632.5 Z"/></g>
<g><path style="opacity:0.651" fill="#fefffe" d="M 1215.5,3636.5 C 1215.56,3635.96 1215.89,3635.62 1216.5,3635.5C 1219.52,3636.48 1221.18,3638.48 1221.5,3641.5C 1219.79,3650.24 1216.96,3658.57 1213,3666.5C 1212.73,3664.9 1212.23,3663.4 1211.5,3662C 1213.73,3655.15 1216.06,3648.32 1218.5,3641.5C 1218.71,3639.06 1217.71,3637.39 1215.5,3636.5 Z"/></g>
<g><path style="opacity:0.306" fill="#fefffe" d="M 1576.5,3681.5 C 1577.53,3681.9 1577.69,3682.56 1577,3683.5C 1576.16,3685.01 1575,3685.51 1573.5,3685C 1574.71,3683.96 1575.71,3682.79 1576.5,3681.5 Z"/></g>
<g><path style="opacity:0.607" fill="#fefffe" d="M 1480.5,3724.5 C 1481.04,3724.56 1481.38,3724.89 1481.5,3725.5C 1479.25,3730.59 1475.75,3734.59 1471,3737.5C 1470.58,3735.21 1471.25,3733.21 1473,3731.5C 1475.4,3728.93 1477.9,3726.6 1480.5,3724.5 Z"/></g>
<g><path style="opacity:0.724" fill="#fefffe" d="M 1156.5,3757.5 C 1157.44,3764.7 1160.27,3765.36 1165,3759.5C 1163.99,3767.57 1162.32,3775.57 1160,3783.5C 1159.5,3779.18 1159.33,3774.85 1159.5,3770.5C 1156.83,3770.5 1154.17,3770.5 1151.5,3770.5C 1152.33,3765.84 1154,3761.51 1156.5,3757.5 Z"/></g>
<g><path style="opacity:0.191" fill="#fefffe" d="M 1447.5,3835.5 C 1448.46,3836.72 1448.3,3838.05 1447,3839.5C 1444.67,3842.83 1442.33,3846.17 1440,3849.5C 1439.68,3848.09 1440.02,3846.76 1441,3845.5C 1443.43,3842.31 1445.59,3838.98 1447.5,3835.5 Z"/></g>
<g><path style="opacity:0.761" fill="#fefffe" d="M 1137.5,3851.5 C 1138.5,3851.5 1139.5,3851.5 1140.5,3851.5C 1141.34,3856.6 1140,3860.94 1136.5,3864.5C 1135.91,3864.29 1135.41,3863.96 1135,3863.5C 1134.63,3861.3 1134.13,3859.14 1133.5,3857C 1134.65,3855.02 1135.98,3853.19 1137.5,3851.5 Z"/></g>
<g><path style="opacity:0.728" fill="#fefffe" d="M 1356.5,3854.5 C 1358.03,3854.52 1358.53,3855.18 1358,3856.5C 1355,3860.17 1352,3863.83 1349,3867.5C 1348.17,3864.21 1347.67,3860.87 1347.5,3857.5C 1350.78,3857.07 1353.78,3856.07 1356.5,3854.5 Z"/></g>
<g><path style="opacity:0.047" fill="#fefffe" d="M 1179.5,3856.5 C 1178.83,3855.17 1178.83,3855.17 1179.5,3856.5 Z"/></g>
<g><path style="opacity:0.086" fill="#fefffe" d="M 1179.5,3856.5 C 1181.03,3856.52 1181.53,3857.18 1181,3858.5C 1180.28,3857.96 1179.78,3857.29 1179.5,3856.5 Z"/></g>
<g><path style="opacity:0.114" fill="#fefffe" d="M 1166.5,3918.5 C 1167.04,3918.56 1167.38,3918.89 1167.5,3919.5C 1166.21,3923.04 1164.54,3926.38 1162.5,3929.5C 1162.17,3929.33 1161.83,3929.17 1161.5,3929C 1163.46,3925.62 1165.13,3922.12 1166.5,3918.5 Z"/></g>
<g><path style="opacity:0.539" fill="#fefffe" d="M 1310.5,3957.5 C 1312.48,3959.17 1314.81,3959.83 1317.5,3959.5C 1317.62,3961.48 1316.95,3963.15 1315.5,3964.5C 1313.4,3962.41 1311.73,3960.08 1310.5,3957.5 Z"/></g>
<g><path style="opacity:0.32" fill="#fefffe" d="M 1140.5,4008.5 C 1142.34,4008.64 1142.67,4009.31 1141.5,4010.5C 1140.7,4010.04 1140.37,4009.38 1140.5,4008.5 Z"/></g>
<g><path style="opacity:0.076" fill="#fefffe" d="M 1491.5,4033.5 C 1490.47,4033.1 1490.31,4032.44 1491,4031.5C 1491.46,4032.09 1491.63,4032.76 1491.5,4033.5 Z"/></g>
<g><path style="opacity:0.09" fill="#fefffe" d="M 1491.5,4033.5 C 1492.53,4033.9 1492.69,4034.56 1492,4035.5C 1491.54,4034.91 1491.37,4034.24 1491.5,4033.5 Z"/></g>
<g><path style="opacity:0.071" fill="#fefffe" d="M 1509.5,4033.5 C 1510.83,4034.17 1510.83,4034.17 1509.5,4033.5 Z"/></g>
<g><path style="opacity:0.477" fill="#fefffe" d="M 1424.5,4037.5 C 1425.12,4037.61 1425.62,4037.94 1426,4038.5C 1426.67,4041.83 1426.67,4045.17 1426,4048.5C 1424.89,4044.91 1424.39,4041.25 1424.5,4037.5 Z"/></g>
<g><path style="opacity:0.269" fill="#fefffe" d="M 1571.5,4040.5 C 1572.63,4042.63 1572.8,4044.96 1572,4047.5C 1571.5,4045.19 1571.34,4042.86 1571.5,4040.5 Z"/></g>
<g><path style="opacity:0.181" fill="#fefffe" d="M 1621.5,4046.5 C 1622.46,4047.72 1622.3,4049.05 1621,4050.5C 1620.42,4049.07 1620.59,4047.74 1621.5,4046.5 Z"/></g>
<g><path style="opacity:0.594" fill="#fefffe" d="M 1644.5,4049.5 C 1646.63,4051.58 1646.63,4053.58 1644.5,4055.5C 1643.31,4053.48 1643.31,4051.48 1644.5,4049.5 Z"/></g>
<g><path style="opacity:0.496" fill="#fefffe" d="M 1656.5,4052.5 C 1657.27,4053.17 1657.93,4054.01 1658.5,4055C 1657.44,4057.74 1656.61,4060.57 1656,4063.5C 1655.17,4062.67 1654.33,4061.83 1653.5,4061C 1655.18,4058.46 1656.18,4055.63 1656.5,4052.5 Z"/></g>
<g><path style="opacity:0.596" fill="#fefffe" d="M 1082.5,4056.5 C 1083.82,4056.33 1084.99,4056.66 1086,4057.5C 1086.32,4059.55 1085.99,4061.55 1085,4063.5C 1083.59,4061.35 1082.76,4059.02 1082.5,4056.5 Z"/></g>
<g><path style="opacity:0.386" fill="#fefffe" d="M 1181.5,4069.5 C 1183.55,4069.71 1183.88,4070.54 1182.5,4072C 1179.3,4074.27 1175.97,4075.93 1172.5,4077C 1175.69,4074.64 1178.69,4072.14 1181.5,4069.5 Z"/></g>
<g><path style="opacity:0.043" fill="#fefffe" d="M 1170.5,4077.5 C 1171.83,4078.17 1171.83,4078.17 1170.5,4077.5 Z"/></g>
<g><path style="opacity:0.136" fill="#fefffe" d="M 1170.5,4078.5 C 1169.34,4080.25 1167.67,4081.25 1165.5,4081.5C 1166.66,4079.75 1168.33,4078.75 1170.5,4078.5 Z"/></g>
<g><path style="opacity:0.051" fill="#fefffe" d="M 1687.5,4082.5 C 1688.83,4083.17 1688.83,4083.17 1687.5,4082.5 Z"/></g>
<g><path style="opacity:0.605" fill="#fefffe" d="M 1687.5,4083.5 C 1687.37,4084.24 1687.54,4084.91 1688,4085.5C 1689,4084.17 1690,4084.17 1691,4085.5C 1692.17,4090.48 1692.84,4095.48 1693,4100.5C 1692.49,4102.9 1691.33,4103.57 1689.5,4102.5C 1690.85,4099.83 1691.18,4097.16 1690.5,4094.5C 1689.52,4094.98 1688.69,4095.64 1688,4096.5C 1687.67,4095.17 1687.33,4093.83 1687,4092.5C 1684.89,4096.39 1683.05,4100.39 1681.5,4104.5C 1681.17,4104.17 1680.83,4103.83 1680.5,4103.5C 1681.98,4099.26 1683.15,4094.93 1684,4090.5C 1684.67,4087.83 1685.84,4085.49 1687.5,4083.5 Z"/></g>
<g><path style="opacity:0.255" fill="#fefffe" d="M 1674.5,4088.5 C 1676.73,4090.36 1676.73,4092.36 1674.5,4094.5C 1674.5,4092.5 1674.5,4090.5 1674.5,4088.5 Z"/></g>
<g><path style="opacity:0.188" fill="#fefffe" d="M 1631.5,4091.5 C 1632.57,4092.25 1632.74,4093.25 1632,4094.5C 1631.52,4093.55 1631.35,4092.55 1631.5,4091.5 Z"/></g>
<g><path style="opacity:0.321" fill="#fefffe" d="M 1671.5,4093.5 C 1672.22,4093.92 1672.72,4094.58 1673,4095.5C 1673.38,4094.94 1673.88,4094.61 1674.5,4094.5C 1673.82,4097.71 1672.65,4100.71 1671,4103.5C 1670.31,4102.18 1669.47,4101.35 1668.5,4101C 1669.65,4098.54 1670.65,4096.04 1671.5,4093.5 Z"/></g>
<g><path style="opacity:0.331" fill="#fefffe" d="M 1430.5,4104.5 C 1432.4,4106.04 1433.24,4108.04 1433,4110.5C 1430.96,4109.02 1430.13,4107.02 1430.5,4104.5 Z"/></g>
<g><path style="opacity:0.039" fill="#fefffe" d="M 1220.5,4144.5 C 1221.83,4145.17 1221.83,4145.17 1220.5,4144.5 Z"/></g>
<g><path style="opacity:0.255" fill="#fefffe" d="M 1095.5,4197.5 C 1097.44,4199.01 1097.94,4201.01 1097,4203.5C 1096.5,4201.48 1096,4199.48 1095.5,4197.5 Z"/></g>
<g><path style="opacity:0.059" fill="#fefffe" d="M 1085.5,4202.5 C 1086.83,4203.17 1086.83,4203.17 1085.5,4202.5 Z"/></g>
<g><path style="opacity:0.321" fill="#fefffe" d="M 1050.5,4207.5 C 1051.83,4208.83 1053.17,4210.17 1054.5,4211.5C 1055.03,4212.85 1055.19,4214.18 1055,4215.5C 1053.96,4214.29 1052.79,4213.29 1051.5,4212.5C 1051.74,4211.21 1051.4,4210.21 1050.5,4209.5C 1050.5,4208.83 1050.5,4208.17 1050.5,4207.5 Z"/></g>
<g><path style="opacity:0.078" fill="#fefffe" d="M 1074.5,4209.5 C 1075.83,4210.17 1075.83,4210.17 1074.5,4209.5 Z"/></g>
<g><path style="opacity:0.17" fill="#fefffe" d="M 1066.5,4212.5 C 1068.34,4212.64 1068.67,4213.31 1067.5,4214.5C 1066.7,4214.04 1066.37,4213.38 1066.5,4212.5 Z"/></g>
</svg>
