<?xml version="1.0" encoding="UTF-8"?>
<!DOCTYPE svg PUBLIC "-//W3C//DTD SVG 1.1//EN" "http://www.w3.org/Graphics/SVG/1.1/DTD/svg11.dtd">
<svg xmlns="http://www.w3.org/2000/svg" version="1.1" width="3375px" height="4219px" style="shape-rendering:geometricPrecision; text-rendering:geometricPrecision; image-rendering:optimizeQuality; fill-rule:evenodd; clip-rule:evenodd" xmlns:xlink="http://www.w3.org/1999/xlink">
<g><path style="opacity:0.645" fill="#fefffe" d="M 1885.5,153.5 C 1886.04,153.56 1886.38,153.893 1886.5,154.5C 1850.37,219.437 1818.53,286.437 1791,355.5C 1775.45,396.703 1764.12,439.037 1757,482.5C 1741.19,576.641 1766.19,657.975 1832,726.5C 1839.86,734.698 1848.03,742.531 1856.5,750C 1879.83,768.667 1903.17,787.333 1926.5,806C 1984.19,855.005 2033.36,911.172 2074,974.5C 2172.31,1140.68 2171.97,1306.68 2073,1472.5C 2024.61,1547.89 1963.11,1610.39 1888.5,1660C 1880.75,1664.63 1872.91,1669.13 1865,1673.5C 1905.81,1614.26 1940.81,1551.26 1970,1484.5C 1986.19,1445.42 1998.19,1405.09 2006,1363.5C 2024.21,1262.7 2005.21,1169.7 1949,1084.5C 1920.87,1044.69 1888.7,1008.19 1852.5,975C 1823.65,949.48 1793.65,925.48 1762.5,903C 1707.33,859.757 1664.17,806.924 1633,744.5C 1592.27,653.058 1587.61,559.724 1619,464.5C 1638.12,408.576 1665.79,357.576 1702,311.5C 1752.98,246.66 1814.15,193.994 1885.5,153.5 Z"/></g>
<g><path style="opacity:0.644" fill="#fefffe" d="M 1475.5,814.5 C 1476.24,814.369 1476.91,814.536 1477.5,815C 1446.15,886.877 1417.98,960.043 1393,1034.5C 1371.21,1099.98 1356.21,1166.98 1348,1235.5C 1329.22,1379.12 1368.88,1503.46 1467,1608.5C 1505.98,1648.84 1548.48,1684.68 1594.5,1716C 1643.58,1749.71 1694.24,1781.04 1746.5,1810C 1793.66,1835.75 1840.66,1861.75 1887.5,1888C 1740.7,1891.05 1602.37,1858.72 1472.5,1791C 1403.41,1753.26 1343.91,1703.76 1294,1642.5C 1215.78,1538.65 1183.11,1421.65 1196,1291.5C 1208.29,1192.95 1240.63,1101.62 1293,1017.5C 1332.31,954.491 1379.47,897.658 1434.5,847C 1447.87,835.666 1461.54,824.832 1475.5,814.5 Z"/></g>
<g><path style="opacity:0.65" fill="#fefffe" d="M 1203.5,2156.5 C 1515.83,2156.5 1828.17,2156.5 2140.5,2156.5C 2140.5,2843.5 2140.5,3530.5 2140.5,4217.5C 1828.17,4217.5 1515.83,4217.5 1203.5,4217.5C 1203.5,3530.5 1203.5,2843.5 1203.5,2156.5 Z"/></g>
</svg>
