<?xml version="1.0" encoding="UTF-8"?>
<!DOCTYPE svg PUBLIC "-//W3C//DTD SVG 1.1//EN" "http://www.w3.org/Graphics/SVG/1.1/DTD/svg11.dtd">
<svg xmlns="http://www.w3.org/2000/svg" version="1.1" width="3375px" height="3385px" style="shape-rendering:geometricPrecision; text-rendering:geometricPrecision; image-rendering:optimizeQuality; fill-rule:evenodd; clip-rule:evenodd" xmlns:xlink="http://www.w3.org/1999/xlink">
<g><path style="opacity:0.051" fill="#391200" d="M 1940.5,21.5 C 1946.59,23.236 1952.92,24.236 1959.5,24.5C 1961.74,24.2053 1963.74,24.5386 1965.5,25.5C 1972.91,27.5697 1980.58,28.903 1988.5,29.5C 1993.57,31.2464 1998.91,32.2464 2004.5,32.5C 2012.59,34.7846 2020.92,36.4513 2029.5,37.5C 2031.41,37.2155 2033.08,37.5489 2034.5,38.5C 2038.55,40.2598 2042.88,41.2598 2047.5,41.5C 2054.55,43.9132 2061.88,45.5799 2069.5,46.5C 2071.1,46.2322 2072.43,46.5655 2073.5,47.5C 2077.55,49.2598 2081.88,50.2598 2086.5,50.5C 2092.09,51.2317 2097.43,52.565 2102.5,54.5C 2108.53,56.9244 2114.86,58.5911 2121.5,59.5C 2123.1,59.2322 2124.43,59.5655 2125.5,60.5C 2128.85,62.2576 2132.52,63.2576 2136.5,63.5C 2138.1,63.2322 2139.43,63.5655 2140.5,64.5C 2142.51,65.9238 2144.85,66.5905 2147.5,66.5C 2149.51,67.9238 2151.85,68.5905 2154.5,68.5C 2156.51,69.9238 2158.85,70.5905 2161.5,70.5C 2163.51,71.9238 2165.85,72.5905 2168.5,72.5C 2169.79,72.2627 2170.79,72.596 2171.5,73.5C 2174.5,75.2766 2177.84,76.2766 2181.5,76.5C 2183.79,76.595 2185.79,77.2616 2187.5,78.5C 2189.51,79.9238 2191.85,80.5905 2194.5,80.5C 2199.78,81.5946 2204.78,83.2613 2209.5,85.5C 2217.22,88.7387 2225.22,91.4054 2233.5,93.5C 2238.78,94.5946 2243.78,96.2613 2248.5,98.5C 2249.78,99.9313 2251.45,100.598 2253.5,100.5C 2254.79,100.263 2255.79,100.596 2256.5,101.5C 2258.79,103.267 2261.46,104.267 2264.5,104.5C 2265.79,104.263 2266.79,104.596 2267.5,105.5C 2268.78,106.931 2270.45,107.598 2272.5,107.5C 2273.79,107.263 2274.79,107.596 2275.5,108.5C 2276.78,109.931 2278.45,110.598 2280.5,110.5C 2281.79,110.263 2282.79,110.596 2283.5,111.5C 2284.78,112.931 2286.45,113.598 2288.5,113.5C 2289.79,113.263 2290.79,113.596 2291.5,114.5C 2292.78,115.931 2294.45,116.598 2296.5,116.5C 2297.78,117.931 2299.45,118.598 2301.5,118.5C 2302.78,119.931 2304.45,120.598 2306.5,120.5C 2309.44,120.98 2312.11,121.98 2314.5,123.5C 2315.78,124.931 2317.45,125.598 2319.5,125.5C 2320.78,126.931 2322.45,127.598 2324.5,127.5C 2325.78,128.931 2327.45,129.598 2329.5,129.5C 2330.49,129.328 2331.16,129.662 2331.5,130.5C 2332.78,131.931 2334.45,132.598 2336.5,132.5C 2337.78,133.931 2339.45,134.598 2341.5,134.5C 2342.49,134.328 2343.16,134.662 2343.5,135.5C 2344.78,136.931 2346.45,137.598 2348.5,137.5C 2349.49,137.328 2350.16,137.662 2350.5,138.5C 2351.78,139.931 2353.45,140.598 2355.5,140.5C 2357.15,140.66 2358.49,141.326 2359.5,142.5C 2360.78,143.931 2362.45,144.598 2364.5,144.5C 2365.49,144.328 2366.16,144.662 2366.5,145.5C 2368.43,147.293 2370.76,148.293 2373.5,148.5C 2375.15,148.66 2376.49,149.326 2377.5,150.5C 2378.78,151.931 2380.45,152.598 2382.5,152.5C 2384.82,152.992 2386.82,153.992 2388.5,155.5C 2389.78,156.931 2391.45,157.598 2393.5,157.5C 2396.48,158.326 2399.15,159.659 2401.5,161.5C 2403.43,163.293 2405.76,164.293 2408.5,164.5C 2411.48,165.326 2414.15,166.659 2416.5,168.5C 2420.42,171.29 2424.75,173.29 2429.5,174.5C 2433.82,175.992 2437.82,177.992 2441.5,180.5C 1938.5,181.833 1435.5,181.833 932.5,180.5C 939.516,176.325 946.849,172.659 954.5,169.5C 957.241,169.293 959.574,168.293 961.5,166.5C 964.515,164.326 967.849,162.659 971.5,161.5C 974.241,161.293 976.574,160.293 978.5,158.5C 980.181,156.992 982.181,155.992 984.5,155.5C 987.241,155.293 989.574,154.293 991.5,152.5C 993.181,150.992 995.181,149.992 997.5,149.5C 999.553,149.598 1001.22,148.931 1002.5,147.5C 1002.84,146.662 1003.51,146.328 1004.5,146.5C 1006.55,146.598 1008.22,145.931 1009.5,144.5C 1009.84,143.662 1010.51,143.328 1011.5,143.5C 1013.55,143.598 1015.22,142.931 1016.5,141.5C 1018.51,139.935 1020.84,138.935 1023.5,138.5C 1025.55,138.598 1027.22,137.931 1028.5,136.5C 1028.84,135.662 1029.51,135.328 1030.5,135.5C 1032.55,135.598 1034.22,134.931 1035.5,133.5C 1035.84,132.662 1036.51,132.328 1037.5,132.5C 1039.55,132.598 1041.22,131.931 1042.5,130.5C 1042.84,129.662 1043.51,129.328 1044.5,129.5C 1046.55,129.598 1048.22,128.931 1049.5,127.5C 1051.55,127.598 1053.22,126.931 1054.5,125.5C 1056.55,125.598 1058.22,124.931 1059.5,123.5C 1061.55,123.598 1063.22,122.931 1064.5,121.5C 1066.55,121.598 1068.22,120.931 1069.5,119.5C 1073.53,117.263 1077.87,115.596 1082.5,114.5C 1084.55,114.598 1086.22,113.931 1087.5,112.5C 1088.21,111.596 1089.21,111.263 1090.5,111.5C 1092.55,111.598 1094.22,110.931 1095.5,109.5C 1096.21,108.596 1097.21,108.263 1098.5,108.5C 1100.55,108.598 1102.22,107.931 1103.5,106.5C 1104.21,105.596 1105.21,105.263 1106.5,105.5C 1108.55,105.598 1110.22,104.931 1111.5,103.5C 1114.22,101.928 1117.22,100.928 1120.5,100.5C 1122.55,100.598 1124.22,99.9313 1125.5,98.5C 1128.22,96.9281 1131.22,95.9281 1134.5,95.5C 1137.54,95.2671 1140.21,94.2671 1142.5,92.5C 1143.21,91.596 1144.21,91.2627 1145.5,91.5C 1155.17,89.276 1164.5,86.276 1173.5,82.5C 1175.21,81.2616 1177.21,80.595 1179.5,80.5C 1183.16,80.2766 1186.5,79.2766 1189.5,77.5C 1191.21,76.2616 1193.21,75.595 1195.5,75.5C 1198.15,75.5905 1200.49,74.9238 1202.5,73.5C 1203.21,72.596 1204.21,72.2627 1205.5,72.5C 1208.15,72.5905 1210.49,71.9238 1212.5,70.5C 1215.15,70.5905 1217.49,69.9238 1219.5,68.5C 1222.15,68.5905 1224.49,67.9238 1226.5,66.5C 1229.15,66.5905 1231.49,65.9238 1233.5,64.5C 1234.57,63.5655 1235.9,63.2322 1237.5,63.5C 1240.15,63.5905 1242.49,62.9238 1244.5,61.5C 1245.57,60.5655 1246.9,60.2322 1248.5,60.5C 1251.15,60.5905 1253.49,59.9238 1255.5,58.5C 1256.57,57.5655 1257.9,57.2322 1259.5,57.5C 1262.15,57.5905 1264.49,56.9238 1266.5,55.5C 1267.57,54.5655 1268.9,54.2322 1270.5,54.5C 1277.79,53.5932 1284.79,51.9265 1291.5,49.5C 1293.91,48.2318 1296.57,47.5651 1299.5,47.5C 1302.78,47.5797 1305.78,46.913 1308.5,45.5C 1311.78,45.5797 1314.78,44.913 1317.5,43.5C 1320.78,43.5797 1323.78,42.913 1326.5,41.5C 1331.44,41.2462 1336.11,40.2462 1340.5,38.5C 1341.92,37.5489 1343.59,37.2155 1345.5,37.5C 1365.04,34.2468 1384.37,30.5801 1403.5,26.5C 1582.24,-2.30256 1761.24,-3.96922 1940.5,21.5 Z"/></g>
<g><path style="opacity:0.02" fill="#120500" d="M 1940.5,21.5 C 1761.24,-3.96922 1582.24,-2.30256 1403.5,26.5C 1516.19,6.79284 1629.86,-1.04049 1744.5,3C 1810.36,5.15345 1875.69,11.3201 1940.5,21.5 Z"/></g>
<g><path style="opacity:0.02" fill="#120500" d="M 1940.5,21.5 C 1947.08,21.764 1953.41,22.764 1959.5,24.5C 1952.92,24.236 1946.59,23.236 1940.5,21.5 Z"/></g>
<g><path style="opacity:0.021" fill="#120500" d="M 1965.5,25.5 C 1973.42,26.097 1981.09,27.4303 1988.5,29.5C 1980.58,28.903 1972.91,27.5697 1965.5,25.5 Z"/></g>
<g><path style="opacity:0.018" fill="#120400" d="M 1988.5,29.5 C 1994.09,29.7536 1999.43,30.7536 2004.5,32.5C 1998.91,32.2464 1993.57,31.2464 1988.5,29.5 Z"/></g>
<g><path style="opacity:0.02" fill="#120500" d="M 1403.5,26.5 C 1384.37,30.5801 1365.04,34.2468 1345.5,37.5C 1364.51,32.7733 1383.84,29.1067 1403.5,26.5 Z"/></g>
<g><path style="opacity:0.022" fill="#110500" d="M 2004.5,32.5 C 2013.13,33.2919 2021.46,34.9586 2029.5,37.5C 2020.92,36.4513 2012.59,34.7846 2004.5,32.5 Z"/></g>
<g><path style="opacity:0.018" fill="#120500" d="M 1340.5,38.5 C 1336.11,40.2462 1331.44,41.2462 1326.5,41.5C 1330.89,39.7538 1335.56,38.7538 1340.5,38.5 Z"/></g>
<g><path style="opacity:0.018" fill="#110500" d="M 2034.5,38.5 C 2039.12,38.7402 2043.45,39.7402 2047.5,41.5C 2042.88,41.2598 2038.55,40.2598 2034.5,38.5 Z"/></g>
<g><path style="opacity:0.022" fill="#110500" d="M 1326.5,41.5 C 1323.78,42.913 1320.78,43.5797 1317.5,43.5C 1320.22,42.087 1323.22,41.4203 1326.5,41.5 Z"/></g>
<g><path style="opacity:0.022" fill="#110500" d="M 2047.5,41.5 C 2055.12,42.4201 2062.45,44.0868 2069.5,46.5C 2061.88,45.5799 2054.55,43.9132 2047.5,41.5 Z"/></g>
<g><path style="opacity:0.022" fill="#120500" d="M 1317.5,43.5 C 1314.78,44.913 1311.78,45.5797 1308.5,45.5C 1311.22,44.087 1314.22,43.4203 1317.5,43.5 Z"/></g>
<g><path style="opacity:0.022" fill="#120500" d="M 1308.5,45.5 C 1305.78,46.913 1302.78,47.5797 1299.5,47.5C 1302.22,46.087 1305.22,45.4203 1308.5,45.5 Z"/></g>
<g><path style="opacity:0.018" fill="#110500" d="M 2073.5,47.5 C 2078.12,47.7402 2082.45,48.7402 2086.5,50.5C 2081.88,50.2598 2077.55,49.2598 2073.5,47.5 Z"/></g>
<g><path style="opacity:0.022" fill="#120500" d="M 1291.5,49.5 C 1284.79,51.9265 1277.79,53.5932 1270.5,54.5C 1277.21,52.0735 1284.21,50.4068 1291.5,49.5 Z"/></g>
<g><path style="opacity:0.018" fill="#110500" d="M 1266.5,55.5 C 1264.49,56.9238 1262.15,57.5905 1259.5,57.5C 1261.51,56.0762 1263.85,55.4095 1266.5,55.5 Z"/></g>
<g><path style="opacity:0.018" fill="#100500" d="M 2102.5,54.5 C 2109.14,55.4089 2115.47,57.0756 2121.5,59.5C 2114.86,58.5911 2108.53,56.9244 2102.5,54.5 Z"/></g>
<g><path style="opacity:0.018" fill="#120500" d="M 1255.5,58.5 C 1253.49,59.9238 1251.15,60.5905 1248.5,60.5C 1250.51,59.0762 1252.85,58.4095 1255.5,58.5 Z"/></g>
<g><path style="opacity:0.018" fill="#100500" d="M 2125.5,60.5 C 2129.48,60.7424 2133.15,61.7424 2136.5,63.5C 2132.52,63.2576 2128.85,62.2576 2125.5,60.5 Z"/></g>
<g><path style="opacity:0.017" fill="#120500" d="M 1244.5,61.5 C 1242.49,62.9238 1240.15,63.5905 1237.5,63.5C 1239.51,62.0762 1241.85,61.4095 1244.5,61.5 Z"/></g>
<g><path style="opacity:0.017" fill="#130500" d="M 1233.5,64.5 C 1231.49,65.9238 1229.15,66.5905 1226.5,66.5C 1228.51,65.0762 1230.85,64.4095 1233.5,64.5 Z"/></g>
<g><path style="opacity:0.018" fill="#120500" d="M 2140.5,64.5 C 2143.15,64.4095 2145.49,65.0762 2147.5,66.5C 2144.85,66.5905 2142.51,65.9238 2140.5,64.5 Z"/></g>
<g><path style="opacity:0.017" fill="#140600" d="M 1226.5,66.5 C 1224.49,67.9238 1222.15,68.5905 1219.5,68.5C 1221.51,67.0762 1223.85,66.4095 1226.5,66.5 Z"/></g>
<g><path style="opacity:0.017" fill="#130500" d="M 2147.5,66.5 C 2150.15,66.4095 2152.49,67.0762 2154.5,68.5C 2151.85,68.5905 2149.51,67.9238 2147.5,66.5 Z"/></g>
<g><path style="opacity:0.017" fill="#140600" d="M 1219.5,68.5 C 1217.49,69.9238 1215.15,70.5905 1212.5,70.5C 1214.51,69.0762 1216.85,68.4095 1219.5,68.5 Z"/></g>
<g><path style="opacity:0.017" fill="#130600" d="M 2154.5,68.5 C 2157.15,68.4095 2159.49,69.0762 2161.5,70.5C 2158.85,70.5905 2156.51,69.9238 2154.5,68.5 Z"/></g>
<g><path style="opacity:0.017" fill="#140600" d="M 1212.5,70.5 C 1210.49,71.9238 1208.15,72.5905 1205.5,72.5C 1207.51,71.0762 1209.85,70.4095 1212.5,70.5 Z"/></g>
<g><path style="opacity:0.017" fill="#130600" d="M 2161.5,70.5 C 2164.15,70.4095 2166.49,71.0762 2168.5,72.5C 2165.85,72.5905 2163.51,71.9238 2161.5,70.5 Z"/></g>
<g><path style="opacity:0.017" fill="#150600" d="M 1202.5,73.5 C 1200.49,74.9238 1198.15,75.5905 1195.5,75.5C 1197.51,74.0762 1199.85,73.4095 1202.5,73.5 Z"/></g>
<g><path style="opacity:0.017" fill="#120500" d="M 2171.5,73.5 C 2175.16,73.7234 2178.5,74.7234 2181.5,76.5C 2177.84,76.2766 2174.5,75.2766 2171.5,73.5 Z"/></g>
<g><path style="opacity:0.017" fill="#120600" d="M 1189.5,77.5 C 1186.5,79.2766 1183.16,80.2766 1179.5,80.5C 1182.5,78.7234 1185.84,77.7234 1189.5,77.5 Z"/></g>
<g><path style="opacity:0.017" fill="#140500" d="M 2187.5,78.5 C 2190.15,78.4095 2192.49,79.0762 2194.5,80.5C 2191.85,80.5905 2189.51,79.9238 2187.5,78.5 Z"/></g>
<g><path style="opacity:0.02" fill="#120500" d="M 1173.5,82.5 C 1164.5,86.276 1155.17,89.276 1145.5,91.5C 1154.5,87.724 1163.83,84.724 1173.5,82.5 Z"/></g>
<g><path style="opacity:0.017" fill="#110500" d="M 2209.5,85.5 C 2217.91,87.1937 2225.91,89.8604 2233.5,93.5C 2225.22,91.4054 2217.22,88.7387 2209.5,85.5 Z"/></g>
<g><path style="opacity:0.02" fill="#120600" d="M 1142.5,92.5 C 1140.21,94.2671 1137.54,95.2671 1134.5,95.5C 1136.79,93.7329 1139.46,92.7329 1142.5,92.5 Z"/></g>
<g><path style="opacity:0.02" fill="#110500" d="M 1125.5,98.5 C 1124.22,99.9313 1122.55,100.598 1120.5,100.5C 1121.78,99.0687 1123.45,98.4021 1125.5,98.5 Z"/></g>
<g><path style="opacity:0.02" fill="#120500" d="M 2248.5,98.5 C 2250.55,98.4021 2252.22,99.0687 2253.5,100.5C 2251.45,100.598 2249.78,99.9313 2248.5,98.5 Z"/></g>
<g><path style="opacity:0.02" fill="#100400" d="M 2256.5,101.5 C 2259.54,101.733 2262.21,102.733 2264.5,104.5C 2261.46,104.267 2258.79,103.267 2256.5,101.5 Z"/></g>
<g><path style="opacity:0.02" fill="#130600" d="M 1111.5,103.5 C 1110.22,104.931 1108.55,105.598 1106.5,105.5C 1107.78,104.069 1109.45,103.402 1111.5,103.5 Z"/></g>
<g><path style="opacity:0.02" fill="#110500" d="M 2267.5,105.5 C 2269.55,105.402 2271.22,106.069 2272.5,107.5C 2270.45,107.598 2268.78,106.931 2267.5,105.5 Z"/></g>
<g><path style="opacity:0.02" fill="#120500" d="M 1103.5,106.5 C 1102.22,107.931 1100.55,108.598 1098.5,108.5C 1099.78,107.069 1101.45,106.402 1103.5,106.5 Z"/></g>
<g><path style="opacity:0.02" fill="#130600" d="M 2275.5,108.5 C 2277.55,108.402 2279.22,109.069 2280.5,110.5C 2278.45,110.598 2276.78,109.931 2275.5,108.5 Z"/></g>
<g><path style="opacity:0.02" fill="#120500" d="M 1095.5,109.5 C 1094.22,110.931 1092.55,111.598 1090.5,111.5C 1091.78,110.069 1093.45,109.402 1095.5,109.5 Z"/></g>
<g><path style="opacity:0.024" fill="#100500" d="M 2283.5,111.5 C 2285.55,111.402 2287.22,112.069 2288.5,113.5C 2286.45,113.598 2284.78,112.931 2283.5,111.5 Z"/></g>
<g><path style="opacity:0.02" fill="#120500" d="M 1087.5,112.5 C 1086.22,113.931 1084.55,114.598 1082.5,114.5C 1083.78,113.069 1085.45,112.402 1087.5,112.5 Z"/></g>
<g><path style="opacity:0.012" fill="#100400" d="M 2291.5,114.5 C 2293.55,114.402 2295.22,115.069 2296.5,116.5C 2294.45,116.598 2292.78,115.931 2291.5,114.5 Z"/></g>
<g><path style="opacity:0.02" fill="#130600" d="M 2296.5,116.5 C 2298.55,116.402 2300.22,117.069 2301.5,118.5C 2299.45,118.598 2297.78,117.931 2296.5,116.5 Z"/></g>
<g><path style="opacity:0.02" fill="#120500" d="M 2301.5,118.5 C 2303.55,118.402 2305.22,119.069 2306.5,120.5C 2304.45,120.598 2302.78,119.931 2301.5,118.5 Z"/></g>
<g><path style="opacity:0.024" fill="#110600" d="M 1069.5,119.5 C 1068.22,120.931 1066.55,121.598 1064.5,121.5C 1065.78,120.069 1067.45,119.402 1069.5,119.5 Z"/></g>
<g><path style="opacity:0.024" fill="#100500" d="M 1064.5,121.5 C 1063.22,122.931 1061.55,123.598 1059.5,123.5C 1060.78,122.069 1062.45,121.402 1064.5,121.5 Z"/></g>
<g><path style="opacity:0.02" fill="#130600" d="M 1059.5,123.5 C 1058.22,124.931 1056.55,125.598 1054.5,125.5C 1055.78,124.069 1057.45,123.402 1059.5,123.5 Z"/></g>
<g><path style="opacity:0.024" fill="#120600" d="M 2314.5,123.5 C 2316.55,123.402 2318.22,124.069 2319.5,125.5C 2317.45,125.598 2315.78,124.931 2314.5,123.5 Z"/></g>
<g><path style="opacity:0.02" fill="#130500" d="M 1054.5,125.5 C 1053.22,126.931 1051.55,127.598 1049.5,127.5C 1050.78,126.069 1052.45,125.402 1054.5,125.5 Z"/></g>
<g><path style="opacity:0.024" fill="#110500" d="M 2319.5,125.5 C 2321.55,125.402 2323.22,126.069 2324.5,127.5C 2322.45,127.598 2320.78,126.931 2319.5,125.5 Z"/></g>
<g><path style="opacity:0.024" fill="#110600" d="M 1049.5,127.5 C 1048.22,128.931 1046.55,129.598 1044.5,129.5C 1045.78,128.069 1047.45,127.402 1049.5,127.5 Z"/></g>
<g><path style="opacity:0.024" fill="#120600" d="M 2324.5,127.5 C 2326.55,127.402 2328.22,128.069 2329.5,129.5C 2327.45,129.598 2325.78,128.931 2324.5,127.5 Z"/></g>
<g><path style="opacity:0.024" fill="#100500" d="M 1042.5,130.5 C 1041.22,131.931 1039.55,132.598 1037.5,132.5C 1038.78,131.069 1040.45,130.402 1042.5,130.5 Z"/></g>
<g><path style="opacity:0.024" fill="#100500" d="M 2331.5,130.5 C 2333.55,130.402 2335.22,131.069 2336.5,132.5C 2334.45,132.598 2332.78,131.931 2331.5,130.5 Z"/></g>
<g><path style="opacity:0.024" fill="#120600" d="M 2336.5,132.5 C 2338.55,132.402 2340.22,133.069 2341.5,134.5C 2339.45,134.598 2337.78,133.931 2336.5,132.5 Z"/></g>
<g><path style="opacity:0.02" fill="#130500" d="M 1035.5,133.5 C 1034.22,134.931 1032.55,135.598 1030.5,135.5C 1031.78,134.069 1033.45,133.402 1035.5,133.5 Z"/></g>
<g><path style="opacity:0.02" fill="#130500" d="M 2343.5,135.5 C 2345.55,135.402 2347.22,136.069 2348.5,137.5C 2346.45,137.598 2344.78,136.931 2343.5,135.5 Z"/></g>
<g><path style="opacity:0.02" fill="#130500" d="M 1028.5,136.5 C 1027.22,137.931 1025.55,138.598 1023.5,138.5C 1024.78,137.069 1026.45,136.402 1028.5,136.5 Z"/></g>
<g><path style="opacity:0.024" fill="#120500" d="M 2350.5,138.5 C 2352.55,138.402 2354.22,139.069 2355.5,140.5C 2353.45,140.598 2351.78,139.931 2350.5,138.5 Z"/></g>
<g><path style="opacity:0.024" fill="#100500" d="M 1016.5,141.5 C 1015.22,142.931 1013.55,143.598 1011.5,143.5C 1012.78,142.069 1014.45,141.402 1016.5,141.5 Z"/></g>
<g><path style="opacity:0.024" fill="#110500" d="M 2359.5,142.5 C 2361.55,142.402 2363.22,143.069 2364.5,144.5C 2362.45,144.598 2360.78,143.931 2359.5,142.5 Z"/></g>
<g><path style="opacity:0.024" fill="#110500" d="M 1009.5,144.5 C 1008.22,145.931 1006.55,146.598 1004.5,146.5C 1005.78,145.069 1007.45,144.402 1009.5,144.5 Z"/></g>
<g><path style="opacity:0.024" fill="#100500" d="M 2366.5,145.5 C 2369.24,145.707 2371.57,146.707 2373.5,148.5C 2370.76,148.293 2368.43,147.293 2366.5,145.5 Z"/></g>
<g><path style="opacity:0.024" fill="#110600" d="M 1002.5,147.5 C 1001.22,148.931 999.553,149.598 997.5,149.5C 998.78,148.069 1000.45,147.402 1002.5,147.5 Z"/></g>
<g><path style="opacity:0.024" fill="#110500" d="M 2377.5,150.5 C 2379.55,150.402 2381.22,151.069 2382.5,152.5C 2380.45,152.598 2378.78,151.931 2377.5,150.5 Z"/></g>
<g><path style="opacity:0.024" fill="#100600" d="M 991.5,152.5 C 989.574,154.293 987.241,155.293 984.5,155.5C 986.426,153.707 988.759,152.707 991.5,152.5 Z"/></g>
<g><path style="opacity:0.024" fill="#110500" d="M 2388.5,155.5 C 2390.55,155.402 2392.22,156.069 2393.5,157.5C 2391.45,157.598 2389.78,156.931 2388.5,155.5 Z"/></g>
<g><path style="opacity:0.024" fill="#100500" d="M 978.5,158.5 C 976.574,160.293 974.241,161.293 971.5,161.5C 973.426,159.707 975.759,158.707 978.5,158.5 Z"/></g>
<g><path style="opacity:0.024" fill="#0f0500" d="M 2401.5,161.5 C 2404.24,161.707 2406.57,162.707 2408.5,164.5C 2405.76,164.293 2403.43,163.293 2401.5,161.5 Z"/></g>
<g><path style="opacity:0.024" fill="#120600" d="M 961.5,166.5 C 959.574,168.293 957.241,169.293 954.5,169.5C 956.426,167.707 958.759,166.707 961.5,166.5 Z"/></g>
<g><path style="opacity:0.024" fill="#0f0500" d="M 2416.5,168.5 C 2421.25,169.71 2425.58,171.71 2429.5,174.5C 2424.75,173.29 2420.42,171.29 2416.5,168.5 Z"/></g>
<g><path style="opacity:0.031" fill="#250b00" d="M 932.5,180.5 C 1435.5,181.833 1938.5,181.833 2441.5,180.5C 2442.38,180.369 2443.04,180.702 2443.5,181.5C 2191.33,181.833 1939.17,182.167 1687,182.5C 1434.83,182.167 1182.67,181.833 930.5,181.5C 930.957,180.702 931.624,180.369 932.5,180.5 Z"/></g>
<g><path style="opacity:0.024" fill="#0e0400" d="M 2605.5,274.5 C 1992.79,274.167 1380.13,274.501 767.5,275.5C 768.058,274.21 769.058,273.377 770.5,273C 1076.17,272.833 1381.83,272.667 1687.5,272.5C 1993.17,272.667 2298.83,272.833 2604.5,273C 2605.06,273.383 2605.39,273.883 2605.5,274.5 Z"/></g>
<g><path style="opacity:0.051" fill="#391200" d="M 2605.5,274.5 C 2608.51,275.669 2611.18,277.336 2613.5,279.5C 2613.97,280.906 2614.97,281.573 2616.5,281.5C 2616.97,282.906 2617.97,283.573 2619.5,283.5C 2619.97,284.906 2620.97,285.573 2622.5,285.5C 2622.97,286.906 2623.97,287.573 2625.5,287.5C 2625.97,288.906 2626.97,289.573 2628.5,289.5C 2628.97,290.906 2629.97,291.573 2631.5,291.5C 2631.97,292.906 2632.97,293.573 2634.5,293.5C 2634.97,294.906 2635.97,295.573 2637.5,295.5C 2641.22,297.354 2644.55,299.687 2647.5,302.5C 2647.97,303.906 2648.97,304.573 2650.5,304.5C 2650.97,305.906 2651.97,306.573 2653.5,306.5C 2654.17,306.5 2654.5,306.833 2654.5,307.5C 2654.97,308.906 2655.97,309.573 2657.5,309.5C 2657.97,310.906 2658.97,311.573 2660.5,311.5C 2661.17,311.5 2661.5,311.833 2661.5,312.5C 2661.97,313.906 2662.97,314.573 2664.5,314.5C 2664.97,315.906 2665.97,316.573 2667.5,316.5C 2668.17,316.5 2668.5,316.833 2668.5,317.5C 2668.97,318.906 2669.97,319.573 2671.5,319.5C 2671.97,320.906 2672.97,321.573 2674.5,321.5C 2675.17,321.5 2675.5,321.833 2675.5,322.5C 2675.97,323.906 2676.97,324.573 2678.5,324.5C 2679.17,324.5 2679.5,324.833 2679.5,325.5C 2679.97,326.906 2680.97,327.573 2682.5,327.5C 2684.23,328.026 2685.56,329.026 2686.5,330.5C 2686.97,331.906 2687.97,332.573 2689.5,332.5C 2690.17,332.5 2690.5,332.833 2690.5,333.5C 2690.97,334.906 2691.97,335.573 2693.5,335.5C 2694.17,335.5 2694.5,335.833 2694.5,336.5C 2694.97,337.906 2695.97,338.573 2697.5,338.5C 2698.17,338.5 2698.5,338.833 2698.5,339.5C 2698.97,340.906 2699.97,341.573 2701.5,341.5C 2702.17,341.5 2702.5,341.833 2702.5,342.5C 2702.97,343.906 2703.97,344.573 2705.5,344.5C 2706.17,344.5 2706.5,344.833 2706.5,345.5C 2706.97,346.906 2707.97,347.573 2709.5,347.5C 2710.17,347.5 2710.5,347.833 2710.5,348.5C 2710.97,349.906 2711.97,350.573 2713.5,350.5C 2714.17,350.5 2714.5,350.833 2714.5,351.5C 2714.97,352.906 2715.97,353.573 2717.5,353.5C 2718.5,353.833 2719.17,354.5 2719.5,355.5C 2719.97,356.906 2720.97,357.573 2722.5,357.5C 2723.17,357.5 2723.5,357.833 2723.5,358.5C 2723.97,359.906 2724.97,360.573 2726.5,360.5C 2727.5,360.833 2728.17,361.5 2728.5,362.5C 2728.97,363.906 2729.97,364.573 2731.5,364.5C 2732.5,364.833 2733.17,365.5 2733.5,366.5C 2733.97,367.906 2734.97,368.573 2736.5,368.5C 2739.43,369.8 2741.77,371.8 2743.5,374.5C 2743.97,375.906 2744.97,376.573 2746.5,376.5C 2747.5,376.833 2748.17,377.5 2748.5,378.5C 2748.97,379.906 2749.97,380.573 2751.5,380.5C 2752.5,380.833 2753.17,381.5 2753.5,382.5C 2753.97,383.906 2754.97,384.573 2756.5,384.5C 2757.5,384.833 2758.17,385.5 2758.5,386.5C 2758.97,387.906 2759.97,388.573 2761.5,388.5C 2762.83,389.167 2763.83,390.167 2764.5,391.5C 2765.26,393.262 2766.6,394.262 2768.5,394.5C 2769.83,395.167 2770.83,396.167 2771.5,397.5C 2771.97,398.906 2772.97,399.573 2774.5,399.5C 2775.83,400.167 2776.83,401.167 2777.5,402.5C 2777.97,403.906 2778.97,404.573 2780.5,404.5C 2416.5,405.833 2052.17,406.5 1687.5,406.5C 1322.83,406.5 958.499,405.833 594.5,404.5C 594.833,403.5 595.5,402.833 596.5,402.5C 598.027,402.573 599.027,401.906 599.5,400.5C 600.167,399.167 601.167,398.167 602.5,397.5C 604.027,397.573 605.027,396.906 605.5,395.5C 606.5,393.833 607.833,392.5 609.5,391.5C 611.027,391.573 612.027,390.906 612.5,389.5C 614.751,386.705 617.418,384.372 620.5,382.5C 622.027,382.573 623.027,381.906 623.5,380.5C 623.833,379.5 624.5,378.833 625.5,378.5C 627.027,378.573 628.027,377.906 628.5,376.5C 628.833,375.5 629.5,374.833 630.5,374.5C 632.027,374.573 633.027,373.906 633.5,372.5C 633.833,371.5 634.5,370.833 635.5,370.5C 637.027,370.573 638.027,369.906 638.5,368.5C 638.833,367.5 639.5,366.833 640.5,366.5C 642.027,366.573 643.027,365.906 643.5,364.5C 644.262,362.738 645.596,361.738 647.5,361.5C 649.749,360.92 651.415,359.587 652.5,357.5C 652.833,356.5 653.5,355.833 654.5,355.5C 656.027,355.573 657.027,354.906 657.5,353.5C 657.5,352.833 657.833,352.5 658.5,352.5C 660.027,352.573 661.027,351.906 661.5,350.5C 661.5,349.833 661.833,349.5 662.5,349.5C 664.027,349.573 665.027,348.906 665.5,347.5C 665.5,346.833 665.833,346.5 666.5,346.5C 668.027,346.573 669.027,345.906 669.5,344.5C 671.404,344.262 672.738,343.262 673.5,341.5C 674.579,339.457 676.246,338.124 678.5,337.5C 680.027,337.573 681.027,336.906 681.5,335.5C 681.5,334.833 681.833,334.5 682.5,334.5C 684.027,334.573 685.027,333.906 685.5,332.5C 685.5,331.833 685.833,331.5 686.5,331.5C 688.027,331.573 689.027,330.906 689.5,329.5C 690.436,328.026 691.77,327.026 693.5,326.5C 695.027,326.573 696.027,325.906 696.5,324.5C 696.5,323.833 696.833,323.5 697.5,323.5C 699.027,323.573 700.027,322.906 700.5,321.5C 700.5,320.833 700.833,320.5 701.5,320.5C 703.027,320.573 704.027,319.906 704.5,318.5C 706.027,318.573 707.027,317.906 707.5,316.5C 707.5,315.833 707.833,315.5 708.5,315.5C 710.027,315.573 711.027,314.906 711.5,313.5C 713.027,313.573 714.027,312.906 714.5,311.5C 714.5,310.833 714.833,310.5 715.5,310.5C 717.027,310.573 718.027,309.906 718.5,308.5C 720.027,308.573 721.027,307.906 721.5,306.5C 721.5,305.833 721.833,305.5 722.5,305.5C 724.027,305.573 725.027,304.906 725.5,303.5C 727.027,303.573 728.027,302.906 728.5,301.5C 730.027,301.573 731.027,300.906 731.5,299.5C 733.027,299.573 734.027,298.906 734.5,297.5C 737.446,294.687 740.779,292.354 744.5,290.5C 746.027,290.573 747.027,289.906 747.5,288.5C 749.027,288.573 750.027,287.906 750.5,286.5C 752.027,286.573 753.027,285.906 753.5,284.5C 756.894,281.779 760.561,279.446 764.5,277.5C 766.027,277.573 767.027,276.906 767.5,275.5C 1380.13,274.501 1992.79,274.167 2605.5,274.5 Z"/></g>
<g><path style="opacity:0.018" fill="#120600" d="M 767.5,275.5 C 767.027,276.906 766.027,277.573 764.5,277.5C 764.973,276.094 765.973,275.427 767.5,275.5 Z"/></g>
<g><path style="opacity:0.008" fill="#0d0200" d="M 2613.5,279.5 C 2615.03,279.427 2616.03,280.094 2616.5,281.5C 2614.97,281.573 2613.97,280.906 2613.5,279.5 Z"/></g>
<g><path style="opacity:0.008" fill="#0c0200" d="M 2616.5,281.5 C 2618.03,281.427 2619.03,282.094 2619.5,283.5C 2617.97,283.573 2616.97,282.906 2616.5,281.5 Z"/></g>
<g><path style="opacity:0.004" fill="#0d0300" d="M 2619.5,283.5 C 2621.03,283.427 2622.03,284.094 2622.5,285.5C 2620.97,285.573 2619.97,284.906 2619.5,283.5 Z"/></g>
<g><path style="opacity:0.024" fill="#100400" d="M 753.5,284.5 C 753.027,285.906 752.027,286.573 750.5,286.5C 750.973,285.094 751.973,284.427 753.5,284.5 Z"/></g>
<g><path style="opacity:0.018" fill="#110600" d="M 2622.5,285.5 C 2624.03,285.427 2625.03,286.094 2625.5,287.5C 2623.97,287.573 2622.97,286.906 2622.5,285.5 Z"/></g>
<g><path style="opacity:0.024" fill="#100400" d="M 750.5,286.5 C 750.027,287.906 749.027,288.573 747.5,288.5C 747.973,287.094 748.973,286.427 750.5,286.5 Z"/></g>
<g><path style="opacity:0.018" fill="#110600" d="M 2625.5,287.5 C 2627.03,287.427 2628.03,288.094 2628.5,289.5C 2626.97,289.573 2625.97,288.906 2625.5,287.5 Z"/></g>
<g><path style="opacity:0.024" fill="#100400" d="M 747.5,288.5 C 747.027,289.906 746.027,290.573 744.5,290.5C 744.973,289.094 745.973,288.427 747.5,288.5 Z"/></g>
<g><path style="opacity:0.004" fill="#0f0200" d="M 2628.5,289.5 C 2630.03,289.427 2631.03,290.094 2631.5,291.5C 2629.97,291.573 2628.97,290.906 2628.5,289.5 Z"/></g>
<g><path style="opacity:0.008" fill="#0e0200" d="M 2631.5,291.5 C 2633.03,291.427 2634.03,292.094 2634.5,293.5C 2632.97,293.573 2631.97,292.906 2631.5,291.5 Z"/></g>
<g><path style="opacity:0.008" fill="#0d0200" d="M 2634.5,293.5 C 2636.03,293.427 2637.03,294.094 2637.5,295.5C 2635.97,295.573 2634.97,294.906 2634.5,293.5 Z"/></g>
<g><path style="opacity:0.018" fill="#120600" d="M 734.5,297.5 C 734.027,298.906 733.027,299.573 731.5,299.5C 731.973,298.094 732.973,297.427 734.5,297.5 Z"/></g>
<g><path style="opacity:0.024" fill="#100400" d="M 731.5,299.5 C 731.027,300.906 730.027,301.573 728.5,301.5C 728.973,300.094 729.973,299.427 731.5,299.5 Z"/></g>
<g><path style="opacity:0.024" fill="#100400" d="M 728.5,301.5 C 728.027,302.906 727.027,303.573 725.5,303.5C 725.973,302.094 726.973,301.427 728.5,301.5 Z"/></g>
<g><path style="opacity:0.008" fill="#0d0200" d="M 2647.5,302.5 C 2649.03,302.427 2650.03,303.094 2650.5,304.5C 2648.97,304.573 2647.97,303.906 2647.5,302.5 Z"/></g>
<g><path style="opacity:0.024" fill="#100400" d="M 725.5,303.5 C 725.027,304.906 724.027,305.573 722.5,305.5C 722.973,304.094 723.973,303.427 725.5,303.5 Z"/></g>
<g><path style="opacity:0.004" fill="#0e0300" d="M 2650.5,304.5 C 2652.03,304.427 2653.03,305.094 2653.5,306.5C 2651.97,306.573 2650.97,305.906 2650.5,304.5 Z"/></g>
<g><path style="opacity:0.024" fill="#120400" d="M 721.5,306.5 C 721.027,307.906 720.027,308.573 718.5,308.5C 718.973,307.094 719.973,306.427 721.5,306.5 Z"/></g>
<g><path style="opacity:0.008" fill="#130800" d="M 2654.5,307.5 C 2656.03,307.427 2657.03,308.094 2657.5,309.5C 2655.97,309.573 2654.97,308.906 2654.5,307.5 Z"/></g>
<g><path style="opacity:0.024" fill="#110400" d="M 718.5,308.5 C 718.027,309.906 717.027,310.573 715.5,310.5C 715.973,309.094 716.973,308.427 718.5,308.5 Z"/></g>
<g><path style="opacity:0.004" fill="#0e0300" d="M 2657.5,309.5 C 2659.03,309.427 2660.03,310.094 2660.5,311.5C 2658.97,311.573 2657.97,310.906 2657.5,309.5 Z"/></g>
<g><path style="opacity:0.024" fill="#120400" d="M 714.5,311.5 C 714.027,312.906 713.027,313.573 711.5,313.5C 711.973,312.094 712.973,311.427 714.5,311.5 Z"/></g>
<g><path style="opacity:0.008" fill="#130800" d="M 2661.5,312.5 C 2663.03,312.427 2664.03,313.094 2664.5,314.5C 2662.97,314.573 2661.97,313.906 2661.5,312.5 Z"/></g>
<g><path style="opacity:0.024" fill="#110400" d="M 711.5,313.5 C 711.027,314.906 710.027,315.573 708.5,315.5C 708.973,314.094 709.973,313.427 711.5,313.5 Z"/></g>
<g><path style="opacity:0.004" fill="#0e0300" d="M 2664.5,314.5 C 2666.03,314.427 2667.03,315.094 2667.5,316.5C 2665.97,316.573 2664.97,315.906 2664.5,314.5 Z"/></g>
<g><path style="opacity:0.024" fill="#120400" d="M 707.5,316.5 C 707.027,317.906 706.027,318.573 704.5,318.5C 704.973,317.094 705.973,316.427 707.5,316.5 Z"/></g>
<g><path style="opacity:0.008" fill="#130800" d="M 2668.5,317.5 C 2670.03,317.427 2671.03,318.094 2671.5,319.5C 2669.97,319.573 2668.97,318.906 2668.5,317.5 Z"/></g>
<g><path style="opacity:0.024" fill="#110400" d="M 704.5,318.5 C 704.027,319.906 703.027,320.573 701.5,320.5C 701.973,319.094 702.973,318.427 704.5,318.5 Z"/></g>
<g><path style="opacity:0.004" fill="#0e0300" d="M 2671.5,319.5 C 2673.03,319.427 2674.03,320.094 2674.5,321.5C 2672.97,321.573 2671.97,320.906 2671.5,319.5 Z"/></g>
<g><path style="opacity:0.024" fill="#100400" d="M 700.5,321.5 C 700.027,322.906 699.027,323.573 697.5,323.5C 697.973,322.094 698.973,321.427 700.5,321.5 Z"/></g>
<g><path style="opacity:0.008" fill="#0e0200" d="M 2675.5,322.5 C 2677.03,322.427 2678.03,323.094 2678.5,324.5C 2676.97,324.573 2675.97,323.906 2675.5,322.5 Z"/></g>
<g><path style="opacity:0.024" fill="#130700" d="M 696.5,324.5 C 696.027,325.906 695.027,326.573 693.5,326.5C 693.973,325.094 694.973,324.427 696.5,324.5 Z"/></g>
<g><path style="opacity:0.008" fill="#0d0200" d="M 2679.5,325.5 C 2681.03,325.427 2682.03,326.094 2682.5,327.5C 2680.97,327.573 2679.97,326.906 2679.5,325.5 Z"/></g>
<g><path style="opacity:0.024" fill="#110400" d="M 689.5,329.5 C 689.027,330.906 688.027,331.573 686.5,331.5C 686.973,330.094 687.973,329.427 689.5,329.5 Z"/></g>
<g><path style="opacity:0.004" fill="#0e0300" d="M 2686.5,330.5 C 2688.03,330.427 2689.03,331.094 2689.5,332.5C 2687.97,332.573 2686.97,331.906 2686.5,330.5 Z"/></g>
<g><path style="opacity:0.024" fill="#100400" d="M 685.5,332.5 C 685.027,333.906 684.027,334.573 682.5,334.5C 682.973,333.094 683.973,332.427 685.5,332.5 Z"/></g>
<g><path style="opacity:0.008" fill="#0e0200" d="M 2690.5,333.5 C 2692.03,333.427 2693.03,334.094 2693.5,335.5C 2691.97,335.573 2690.97,334.906 2690.5,333.5 Z"/></g>
<g><path style="opacity:0.024" fill="#120400" d="M 681.5,335.5 C 681.027,336.906 680.027,337.573 678.5,337.5C 678.973,336.094 679.973,335.427 681.5,335.5 Z"/></g>
<g><path style="opacity:0.008" fill="#0e0200" d="M 2694.5,336.5 C 2696.03,336.427 2697.03,337.094 2697.5,338.5C 2695.97,338.573 2694.97,337.906 2694.5,336.5 Z"/></g>
<g><path style="opacity:0.008" fill="#0e0200" d="M 2698.5,339.5 C 2700.03,339.427 2701.03,340.094 2701.5,341.5C 2699.97,341.573 2698.97,340.906 2698.5,339.5 Z"/></g>
<g><path style="opacity:0.024" fill="#160500" d="M 673.5,341.5 C 672.738,343.262 671.404,344.262 669.5,344.5C 670.262,342.738 671.596,341.738 673.5,341.5 Z"/></g>
<g><path style="opacity:0.008" fill="#0e0200" d="M 2702.5,342.5 C 2704.03,342.427 2705.03,343.094 2705.5,344.5C 2703.97,344.573 2702.97,343.906 2702.5,342.5 Z"/></g>
<g><path style="opacity:0.024" fill="#100400" d="M 669.5,344.5 C 669.027,345.906 668.027,346.573 666.5,346.5C 666.973,345.094 667.973,344.427 669.5,344.5 Z"/></g>
<g><path style="opacity:0.008" fill="#0f0200" d="M 2706.5,345.5 C 2708.03,345.427 2709.03,346.094 2709.5,347.5C 2707.97,347.573 2706.97,346.906 2706.5,345.5 Z"/></g>
<g><path style="opacity:0.024" fill="#100400" d="M 665.5,347.5 C 665.027,348.906 664.027,349.573 662.5,349.5C 662.973,348.094 663.973,347.427 665.5,347.5 Z"/></g>
<g><path style="opacity:0.008" fill="#0f0200" d="M 2710.5,348.5 C 2712.03,348.427 2713.03,349.094 2713.5,350.5C 2711.97,350.573 2710.97,349.906 2710.5,348.5 Z"/></g>
<g><path style="opacity:0.024" fill="#100400" d="M 661.5,350.5 C 661.027,351.906 660.027,352.573 658.5,352.5C 658.973,351.094 659.973,350.427 661.5,350.5 Z"/></g>
<g><path style="opacity:0.004" fill="#0e0300" d="M 2714.5,351.5 C 2716.03,351.427 2717.03,352.094 2717.5,353.5C 2715.97,353.573 2714.97,352.906 2714.5,351.5 Z"/></g>
<g><path style="opacity:0.024" fill="#110400" d="M 657.5,353.5 C 657.027,354.906 656.027,355.573 654.5,355.5C 654.973,354.094 655.973,353.427 657.5,353.5 Z"/></g>
<g><path style="opacity:0.008" fill="#0e0200" d="M 2719.5,355.5 C 2721.03,355.427 2722.03,356.094 2722.5,357.5C 2720.97,357.573 2719.97,356.906 2719.5,355.5 Z"/></g>
<g><path style="opacity:0.004" fill="#0e0200" d="M 2723.5,358.5 C 2725.03,358.427 2726.03,359.094 2726.5,360.5C 2724.97,360.573 2723.97,359.906 2723.5,358.5 Z"/></g>
<g><path style="opacity:0.039" fill="#230e00" d="M 652.5,357.5 C 651.415,359.587 649.749,360.92 647.5,361.5C 648.585,359.413 650.251,358.08 652.5,357.5 Z"/></g>
<g><path style="opacity:0.008" fill="#0f0200" d="M 2728.5,362.5 C 2730.03,362.427 2731.03,363.094 2731.5,364.5C 2729.97,364.573 2728.97,363.906 2728.5,362.5 Z"/></g>
<g><path style="opacity:0.024" fill="#110400" d="M 643.5,364.5 C 643.027,365.906 642.027,366.573 640.5,366.5C 640.973,365.094 641.973,364.427 643.5,364.5 Z"/></g>
<g><path style="opacity:0.008" fill="#0e0200" d="M 2733.5,366.5 C 2735.03,366.427 2736.03,367.094 2736.5,368.5C 2734.97,368.573 2733.97,367.906 2733.5,366.5 Z"/></g>
<g><path style="opacity:0.024" fill="#100400" d="M 638.5,368.5 C 638.027,369.906 637.027,370.573 635.5,370.5C 635.973,369.094 636.973,368.427 638.5,368.5 Z"/></g>
<g><path style="opacity:0.024" fill="#110400" d="M 633.5,372.5 C 633.027,373.906 632.027,374.573 630.5,374.5C 630.973,373.094 631.973,372.427 633.5,372.5 Z"/></g>
<g><path style="opacity:0.008" fill="#0e0200" d="M 2743.5,374.5 C 2745.03,374.427 2746.03,375.094 2746.5,376.5C 2744.97,376.573 2743.97,375.906 2743.5,374.5 Z"/></g>
<g><path style="opacity:0.024" fill="#110400" d="M 628.5,376.5 C 628.027,377.906 627.027,378.573 625.5,378.5C 625.973,377.094 626.973,376.427 628.5,376.5 Z"/></g>
<g><path style="opacity:0.008" fill="#0f0200" d="M 2748.5,378.5 C 2750.03,378.427 2751.03,379.094 2751.5,380.5C 2749.97,380.573 2748.97,379.906 2748.5,378.5 Z"/></g>
<g><path style="opacity:0.024" fill="#110400" d="M 623.5,380.5 C 623.027,381.906 622.027,382.573 620.5,382.5C 620.973,381.094 621.973,380.427 623.5,380.5 Z"/></g>
<g><path style="opacity:0.004" fill="#0e0200" d="M 2753.5,382.5 C 2755.03,382.427 2756.03,383.094 2756.5,384.5C 2754.97,384.573 2753.97,383.906 2753.5,382.5 Z"/></g>
<g><path style="opacity:0.004" fill="#0e0200" d="M 2758.5,386.5 C 2760.03,386.427 2761.03,387.094 2761.5,388.5C 2759.97,388.573 2758.97,387.906 2758.5,386.5 Z"/></g>
<g><path style="opacity:0.024" fill="#110400" d="M 612.5,389.5 C 612.027,390.906 611.027,391.573 609.5,391.5C 609.973,390.094 610.973,389.427 612.5,389.5 Z"/></g>
<g><path style="opacity:0.004" fill="#0c0300" d="M 2764.5,391.5 C 2766.4,391.738 2767.74,392.738 2768.5,394.5C 2766.6,394.262 2765.26,393.262 2764.5,391.5 Z"/></g>
<g><path style="opacity:0.024" fill="#110400" d="M 605.5,395.5 C 605.027,396.906 604.027,397.573 602.5,397.5C 602.973,396.094 603.973,395.427 605.5,395.5 Z"/></g>
<g><path style="opacity:0.004" fill="#0e0200" d="M 2771.5,397.5 C 2773.03,397.427 2774.03,398.094 2774.5,399.5C 2772.97,399.573 2771.97,398.906 2771.5,397.5 Z"/></g>
<g><path style="opacity:0.024" fill="#110400" d="M 599.5,400.5 C 599.027,401.906 598.027,402.573 596.5,402.5C 596.973,401.094 597.973,400.427 599.5,400.5 Z"/></g>
<g><path style="opacity:0.004" fill="#0e0200" d="M 2777.5,402.5 C 2779.03,402.427 2780.03,403.094 2780.5,404.5C 2778.97,404.573 2777.97,403.906 2777.5,402.5 Z"/></g>
<g><path style="opacity:0.031" fill="#250b00" d="M 594.5,404.5 C 958.499,405.833 1322.83,406.5 1687.5,406.5C 2052.17,406.5 2416.5,405.833 2780.5,404.5C 2781.48,404.811 2782.14,405.478 2782.5,406.5C 2417.33,406.833 2052.17,407.167 1687,407.5C 1321.83,407.167 956.667,406.833 591.5,406.5C 592.357,405.575 593.357,404.908 594.5,404.5 Z"/></g>
<g><path style="opacity:0.024" fill="#0e0400" d="M 2886.5,502.5 C 2885.37,501.878 2884.37,501.045 2883.5,500C 2086.17,499.5 1288.83,499.333 491.5,499.5C 491.611,498.883 491.944,498.383 492.5,498C 1289.17,497.333 2085.83,497.333 2882.5,498C 2884.75,498.748 2886.08,500.248 2886.5,502.5 Z"/></g>
<g><path style="opacity:0.051" fill="#391200" d="M 491.5,499.5 C 1288.83,499.333 2086.17,499.5 2883.5,500C 2884.37,501.045 2885.37,501.878 2886.5,502.5C 2894.17,509.5 2901.5,516.833 2908.5,524.5C 2909.42,527.089 2911.09,529.089 2913.5,530.5C 2916.83,533.167 2919.83,536.167 2922.5,539.5C 2922.43,541.027 2923.09,542.027 2924.5,542.5C 2927.83,545.167 2930.83,548.167 2933.5,551.5C 2933.43,553.027 2934.09,554.027 2935.5,554.5C 2938.17,556.5 2940.5,558.833 2942.5,561.5C 2942.43,563.027 2943.09,564.027 2944.5,564.5C 2949.29,568.745 2953.62,573.411 2957.5,578.5C 2957.43,580.027 2958.09,581.027 2959.5,581.5C 2961.17,582.5 2962.5,583.833 2963.5,585.5C 2963.43,587.027 2964.09,588.027 2965.5,588.5C 2967.17,589.5 2968.5,590.833 2969.5,592.5C 2969.43,594.027 2970.09,595.027 2971.5,595.5C 2974.96,598.415 2977.96,601.748 2980.5,605.5C 2980.43,607.027 2981.09,608.027 2982.5,608.5C 2989.2,614.901 2995.2,621.901 3000.5,629.5C 2563.17,630.833 2125.5,631.5 1687.5,631.5C 1249.67,631.5 812,631.167 374.5,630.5C 381.083,620.914 388.416,611.914 396.5,603.5C 397.906,603.027 398.573,602.027 398.5,600.5C 401.041,596.748 404.041,593.415 407.5,590.5C 408.906,590.027 409.573,589.027 409.5,587.5C 410.5,585.833 411.833,584.5 413.5,583.5C 414.906,583.027 415.573,582.027 415.5,580.5C 416.833,578.5 418.5,576.833 420.5,575.5C 421.906,575.027 422.573,574.027 422.5,572.5C 426.795,566.537 431.795,561.204 437.5,556.5C 438.906,556.027 439.573,555.027 439.5,553.5C 441.833,550.5 444.5,547.833 447.5,545.5C 448.906,545.027 449.573,544.027 449.5,542.5C 452.167,539.167 455.167,536.167 458.5,533.5C 460.587,532.415 461.92,530.749 462.5,528.5C 471.833,518.5 481.5,508.833 491.5,499.5 Z"/></g>
<g><path style="opacity:0.024" fill="#0c0300" d="M 2908.5,524.5 C 2910.91,525.911 2912.58,527.911 2913.5,530.5C 2911.09,529.089 2909.42,527.089 2908.5,524.5 Z"/></g>
<g><path style="opacity:0.024" fill="#0e0400" d="M 462.5,528.5 C 461.92,530.749 460.587,532.415 458.5,533.5C 459.08,531.251 460.413,529.585 462.5,528.5 Z"/></g>
<g><path style="opacity:0.024" fill="#0e0400" d="M 2922.5,539.5 C 2923.91,539.973 2924.57,540.973 2924.5,542.5C 2923.09,542.027 2922.43,541.027 2922.5,539.5 Z"/></g>
<g><path style="opacity:0.024" fill="#0e0400" d="M 449.5,542.5 C 449.573,544.027 448.906,545.027 447.5,545.5C 447.427,543.973 448.094,542.973 449.5,542.5 Z"/></g>
<g><path style="opacity:0.024" fill="#0e0400" d="M 2933.5,551.5 C 2934.91,551.973 2935.57,552.973 2935.5,554.5C 2934.09,554.027 2933.43,553.027 2933.5,551.5 Z"/></g>
<g><path style="opacity:0.024" fill="#0e0400" d="M 439.5,553.5 C 439.573,555.027 438.906,556.027 437.5,556.5C 437.427,554.973 438.094,553.973 439.5,553.5 Z"/></g>
<g><path style="opacity:0.024" fill="#0e0400" d="M 2942.5,561.5 C 2943.91,561.973 2944.57,562.973 2944.5,564.5C 2943.09,564.027 2942.43,563.027 2942.5,561.5 Z"/></g>
<g><path style="opacity:0.024" fill="#0e0400" d="M 422.5,572.5 C 422.573,574.027 421.906,575.027 420.5,575.5C 420.427,573.973 421.094,572.973 422.5,572.5 Z"/></g>
<g><path style="opacity:0.024" fill="#0e0400" d="M 2957.5,578.5 C 2958.91,578.973 2959.57,579.973 2959.5,581.5C 2958.09,581.027 2957.43,580.027 2957.5,578.5 Z"/></g>
<g><path style="opacity:0.024" fill="#0e0400" d="M 415.5,580.5 C 415.573,582.027 414.906,583.027 413.5,583.5C 413.427,581.973 414.094,580.973 415.5,580.5 Z"/></g>
<g><path style="opacity:0.024" fill="#0e0400" d="M 2963.5,585.5 C 2964.91,585.973 2965.57,586.973 2965.5,588.5C 2964.09,588.027 2963.43,587.027 2963.5,585.5 Z"/></g>
<g><path style="opacity:0.024" fill="#0e0400" d="M 409.5,587.5 C 409.573,589.027 408.906,590.027 407.5,590.5C 407.427,588.973 408.094,587.973 409.5,587.5 Z"/></g>
<g><path style="opacity:0.024" fill="#0e0400" d="M 2969.5,592.5 C 2970.91,592.973 2971.57,593.973 2971.5,595.5C 2970.09,595.027 2969.43,594.027 2969.5,592.5 Z"/></g>
<g><path style="opacity:0.024" fill="#0e0400" d="M 398.5,600.5 C 398.573,602.027 397.906,603.027 396.5,603.5C 396.427,601.973 397.094,600.973 398.5,600.5 Z"/></g>
<g><path style="opacity:0.024" fill="#0e0400" d="M 2980.5,605.5 C 2981.91,605.973 2982.57,606.973 2982.5,608.5C 2981.09,608.027 2980.43,607.027 2980.5,605.5 Z"/></g>
<g><path style="opacity:0.031" fill="#250b00" d="M 3000.5,629.5 C 3001.4,630.209 3001.74,631.209 3001.5,632.5C 2125.5,632.833 1249.5,632.5 373.5,631.5C 373.624,630.893 373.957,630.56 374.5,630.5C 812,631.167 1249.67,631.5 1687.5,631.5C 2125.5,631.5 2563.17,630.833 3000.5,629.5 Z"/></g>
<g><path style="opacity:0.024" fill="#0e0400" d="M 3071.5,724.5 C 2148.83,724.5 1226.17,724.5 303.5,724.5C 764.333,723.167 1225.5,722.5 1687,722.5C 2148.17,722.667 2609.33,722.833 3070.5,723C 3071.06,723.383 3071.39,723.883 3071.5,724.5 Z"/></g>
<g><path style="opacity:0.051" fill="#391200" d="M 303.5,724.5 C 1226.17,724.5 2148.83,724.5 3071.5,724.5C 3076.22,730.554 3080.55,736.887 3084.5,743.5C 3084.43,745.027 3085.09,746.027 3086.5,746.5C 3086.43,748.027 3087.09,749.027 3088.5,749.5C 3092.99,755.148 3096.99,761.148 3100.5,767.5C 3100.43,769.027 3101.09,770.027 3102.5,770.5C 3102.43,772.027 3103.09,773.027 3104.5,773.5C 3122.35,800.038 3139.02,827.371 3154.5,855.5C 2665.83,856.167 2177,856.5 1688,856.5C 1198.83,856.5 710,855.833 221.5,854.5C 228.332,841.498 235.665,828.832 243.5,816.5C 244.906,816.027 245.573,815.027 245.5,813.5C 250.335,804.491 255.668,795.824 261.5,787.5C 262.906,787.027 263.573,786.027 263.5,784.5C 265.446,780.561 267.779,776.894 270.5,773.5C 271.906,773.027 272.573,772.027 272.5,770.5C 275.78,764.559 279.447,758.892 283.5,753.5C 284.906,753.027 285.573,752.027 285.5,750.5C 288.676,744.811 292.342,739.477 296.5,734.5C 297.906,734.027 298.573,733.027 298.5,731.5C 299.786,728.883 301.453,726.55 303.5,724.5 Z"/></g>
<g><path style="opacity:0.02" fill="#180400" d="M 298.5,731.5 C 298.573,733.027 297.906,734.027 296.5,734.5C 296.427,732.973 297.094,731.973 298.5,731.5 Z"/></g>
<g><path style="opacity:0.02" fill="#190500" d="M 3084.5,743.5 C 3085.91,743.973 3086.57,744.973 3086.5,746.5C 3085.09,746.027 3084.43,745.027 3084.5,743.5 Z"/></g>
<g><path style="opacity:0.024" fill="#180400" d="M 3086.5,746.5 C 3087.91,746.973 3088.57,747.973 3088.5,749.5C 3087.09,749.027 3086.43,748.027 3086.5,746.5 Z"/></g>
<g><path style="opacity:0.02" fill="#180400" d="M 285.5,750.5 C 285.573,752.027 284.906,753.027 283.5,753.5C 283.427,751.973 284.094,750.973 285.5,750.5 Z"/></g>
<g><path style="opacity:0.02" fill="#190500" d="M 3100.5,767.5 C 3101.91,767.973 3102.57,768.973 3102.5,770.5C 3101.09,770.027 3100.43,769.027 3100.5,767.5 Z"/></g>
<g><path style="opacity:0.02" fill="#190500" d="M 272.5,770.5 C 272.573,772.027 271.906,773.027 270.5,773.5C 270.427,771.973 271.094,770.973 272.5,770.5 Z"/></g>
<g><path style="opacity:0.02" fill="#190500" d="M 3102.5,770.5 C 3103.91,770.973 3104.57,771.973 3104.5,773.5C 3103.09,773.027 3102.43,772.027 3102.5,770.5 Z"/></g>
<g><path style="opacity:0.02" fill="#190500" d="M 263.5,784.5 C 263.573,786.027 262.906,787.027 261.5,787.5C 261.427,785.973 262.094,784.973 263.5,784.5 Z"/></g>
<g><path style="opacity:0.02" fill="#160500" d="M 245.5,813.5 C 245.573,815.027 244.906,816.027 243.5,816.5C 243.427,814.973 244.094,813.973 245.5,813.5 Z"/></g>
<g><path style="opacity:0.031" fill="#250b00" d="M 221.5,854.5 C 710,855.833 1198.83,856.5 1688,856.5C 2177,856.5 2665.83,856.167 3154.5,855.5C 3155.04,855.56 3155.38,855.893 3155.5,856.5C 2666.17,856.833 2176.83,857.167 1687.5,857.5C 1198.17,857.167 708.833,856.833 219.5,856.5C 219.855,855.478 220.522,854.811 221.5,854.5 Z"/></g>
<g><path style="opacity:0.051" fill="#391200" d="M 3261.5,1080.5 C 2737.17,1081.17 2212.67,1081.5 1688,1081.5C 1163.17,1081.5 638.666,1080.83 114.5,1079.5C 130.946,1035.27 149.612,991.935 170.5,949.5C 676.167,949.167 1181.83,948.833 1687.5,948.5C 2193.17,948.667 2698.83,948.833 3204.5,949C 3225.85,991.859 3244.85,1035.69 3261.5,1080.5 Z"/></g>
<g><path style="opacity:0.031" fill="#250b00" d="M 114.5,1079.5 C 638.666,1080.83 1163.17,1081.5 1688,1081.5C 2212.67,1081.5 2737.17,1081.17 3261.5,1080.5C 3262.04,1080.56 3262.38,1080.89 3262.5,1081.5C 2212.83,1082.5 1163.17,1082.83 113.5,1082.5C 113.263,1081.21 113.596,1080.21 114.5,1079.5 Z"/></g>
<g><path style="opacity:0.012" fill="#110800" d="M 3294.5,1174.5 C 2223,1174.17 1151.67,1174.5 80.5,1175.5C 80.1667,1175.5 79.8333,1175.5 79.5,1175.5C 615,1174.17 1150.83,1173.5 1687,1173.5C 2223,1173.5 2758.83,1173.83 3294.5,1174.5 Z"/></g>
<g><path style="opacity:0.043" fill="#341600" d="M 80.5,1175.5 C 1151.67,1174.5 2223,1174.17 3294.5,1174.5C 3295.34,1174.84 3295.67,1175.51 3295.5,1176.5C 2223.9,1175.5 1152.24,1175.17 80.5,1175.5 Z"/></g>
<g><path style="opacity:0.051" fill="#391200" d="M 79.5,1175.5 C 79.8333,1175.5 80.1667,1175.5 80.5,1175.5C 1152.24,1175.17 2223.9,1175.5 3295.5,1176.5C 3309.19,1218.93 3320.86,1261.93 3330.5,1305.5C 3330.5,1305.83 3330.5,1306.17 3330.5,1306.5C 2235.17,1306.5 1139.83,1306.5 44.5,1306.5C 44.5,1305.5 44.5,1304.5 44.5,1303.5C 54.1399,1260.25 65.8066,1217.58 79.5,1175.5 Z"/></g>
<g><path style="opacity:0.043" fill="#310c00" d="M 44.5,1303.5 C 44.5,1304.5 44.5,1305.5 44.5,1306.5C 1139.83,1306.5 2235.17,1306.5 3330.5,1306.5C 2235,1307.5 1139.33,1307.83 43.5,1307.5C 43.2322,1305.9 43.5655,1304.57 44.5,1303.5 Z"/></g>
<g><path style="opacity:0.016" fill="#170000" d="M 3330.5,1305.5 C 3331.4,1306.21 3331.74,1307.21 3331.5,1308.5C 2235.33,1308.83 1139.33,1308.5 43.5,1307.5C 1139.33,1307.83 2235,1307.5 3330.5,1306.5C 3330.5,1306.17 3330.5,1305.83 3330.5,1305.5 Z"/></g>
<g><path style="opacity:0.012" fill="#110800" d="M 3350.5,1399.5 C 2242,1399.17 1133.67,1399.5 25.5,1400.5C 25.1667,1400.5 24.8333,1400.5 24.5,1400.5C 578.5,1399.17 1132.83,1398.5 1687.5,1398.5C 2242,1398.5 2796.33,1398.83 3350.5,1399.5 Z"/></g>
<g><path style="opacity:0.043" fill="#351600" d="M 25.5,1400.5 C 1133.67,1399.5 2242,1399.17 3350.5,1399.5C 3350.5,1400.5 3350.5,1401.5 3350.5,1402.5C 2242.37,1400.5 1134.04,1399.83 25.5,1400.5 Z"/></g>
<g><path style="opacity:0.051" fill="#391200" d="M 24.5,1400.5 C 24.8333,1400.5 25.1667,1400.5 25.5,1400.5C 1134.04,1399.83 2242.37,1400.5 3350.5,1402.5C 3358.22,1444.86 3363.88,1487.52 3367.5,1530.5C 2807.83,1531.83 2247.83,1532.5 1687.5,1532.5C 1127.33,1532.5 567.333,1532.17 7.5,1531.5C 11.117,1487.56 16.7837,1443.9 24.5,1400.5 Z"/></g>
<g><path style="opacity:0.016" fill="#160000" d="M 3367.5,1530.5 C 3368.4,1531.21 3368.74,1532.21 3368.5,1533.5C 2247.83,1533.83 1127.17,1533.5 6.5,1532.5C 6.62358,1531.89 6.95691,1531.56 7.5,1531.5C 567.333,1532.17 1127.33,1532.5 1687.5,1532.5C 2247.83,1532.5 2807.83,1531.83 3367.5,1530.5 Z"/></g>
<g><path style="opacity:0.012" fill="#110800" d="M 1.5,1624.5 C 1125.67,1623.5 2250,1623.17 3374.5,1623.5C 3374.5,1624.17 3374.5,1624.83 3374.5,1625.5C 3374.17,1625.5 3373.83,1625.5 3373.5,1625.5C 2249.67,1624.5 1125.67,1624.17 1.5,1624.5 Z"/></g>
<g><path style="opacity:0.043" fill="#341600" d="M 1.5,1624.5 C 1125.67,1624.17 2249.67,1624.5 3373.5,1625.5C 2248.96,1624.83 1124.63,1625.5 0.5,1627.5C 0.262695,1626.21 0.596028,1625.21 1.5,1624.5 Z"/></g>
<g><path style="opacity:0.051" fill="#391200" d="M 3373.5,1625.5 C 3373.83,1625.5 3374.17,1625.5 3374.5,1625.5C 3374.5,1667.5 3374.5,1709.5 3374.5,1751.5C 3373.55,1752.92 3373.22,1754.59 3373.5,1756.5C 2249.5,1756.5 1125.5,1756.5 1.5,1756.5C 1.5,1755.83 1.16667,1755.5 0.5,1755.5C 0.82404,1748.65 0.490707,1741.98 -0.5,1735.5C -0.5,1706.17 -0.5,1676.83 -0.5,1647.5C 0.490707,1641.02 0.82404,1634.35 0.5,1627.5C 1124.63,1625.5 2248.96,1624.83 3373.5,1625.5 Z"/></g>
<g><path style="opacity:0.043" fill="#320b00" d="M 3374.5,1751.5 C 3374.5,1753.5 3374.5,1755.5 3374.5,1757.5C 2250,1757.83 1125.67,1757.5 1.5,1756.5C 1125.5,1756.5 2249.5,1756.5 3373.5,1756.5C 3373.22,1754.59 3373.55,1752.92 3374.5,1751.5 Z"/></g>
<g><path style="opacity:0.016" fill="#160000" d="M 0.5,1755.5 C 1.16667,1755.5 1.5,1755.83 1.5,1756.5C 1125.67,1757.5 2250,1757.83 3374.5,1757.5C 3374.5,1757.83 3374.5,1758.17 3374.5,1758.5C 2249.83,1758.5 1125.17,1758.5 0.5,1758.5C 0.5,1757.5 0.5,1756.5 0.5,1755.5 Z"/></g>
<g><path style="opacity:0.035" fill="#230500" d="M 3367.5,1852.5 C 2807.83,1851.17 2247.83,1850.5 1687.5,1850.5C 1127.33,1850.5 567.333,1850.83 7.5,1851.5C 6.22641,1850.81 6.22641,1849.98 7.5,1849C 567.5,1848.83 1127.5,1848.67 1687.5,1848.5C 2247.5,1848.67 2807.5,1848.83 3367.5,1849C 3368.79,1850.29 3368.79,1851.46 3367.5,1852.5 Z"/></g>
<g><path style="opacity:0.051" fill="#391200" d="M 3367.5,1852.5 C 3363.89,1896.1 3358.22,1939.44 3350.5,1982.5C 2241.76,1982.83 1133.1,1982.5 24.5,1981.5C 16.964,1938.41 11.2974,1895.08 7.5,1851.5C 567.333,1850.83 1127.33,1850.5 1687.5,1850.5C 2247.83,1850.5 2807.83,1851.17 3367.5,1852.5 Z"/></g>
<g><path style="opacity:0.016" fill="#160000" d="M 24.5,1981.5 C 1133.1,1982.5 2241.76,1982.83 3350.5,1982.5C 2796.33,1983.17 2242,1983.5 1687.5,1983.5C 1132.83,1983.5 578.5,1982.83 24.5,1981.5 Z"/></g>
<g><path style="opacity:0.008" fill="#0d0000" d="M 43.5,2074.5 C 591.333,2073.83 1139.33,2073.5 1687.5,2073.5C 2235.83,2073.5 2783.83,2074.17 3331.5,2075.5C 2235.57,2074.5 1139.57,2074.17 43.5,2074.5 Z"/></g>
<g><path style="opacity:0.051" fill="#391200" d="M 43.5,2074.5 C 1139.57,2074.17 2235.57,2074.5 3331.5,2075.5C 3321.33,2119.35 3309.33,2162.68 3295.5,2205.5C 2223.9,2206.5 1152.24,2206.83 80.5,2206.5C 80.1667,2206.5 79.8333,2206.5 79.5,2206.5C 65.3209,2163.12 53.3209,2119.12 43.5,2074.5 Z"/></g>
<g><path style="opacity:0.043" fill="#310b00" d="M 3295.5,2205.5 C 3295.67,2206.49 3295.34,2207.16 3294.5,2207.5C 2223,2207.83 1151.67,2207.5 80.5,2206.5C 1152.24,2206.83 2223.9,2206.5 3295.5,2205.5 Z"/></g>
<g><path style="opacity:0.016" fill="#160000" d="M 79.5,2206.5 C 79.8333,2206.5 80.1667,2206.5 80.5,2206.5C 1151.67,2207.5 2223,2207.83 3294.5,2207.5C 2758.83,2208.17 2223,2208.5 1687,2208.5C 1150.83,2208.5 615,2207.83 79.5,2206.5 Z"/></g>
<g><path style="opacity:0.008" fill="#0c0000" d="M 3261.5,2299.5 C 2212,2299.17 1162.67,2299.5 113.5,2300.5C 113.5,2300.83 113.5,2301.17 113.5,2301.5C 112.596,2300.79 112.263,2299.79 112.5,2298.5C 1162.33,2298.17 2212,2298.5 3261.5,2299.5 Z"/></g>
<g><path style="opacity:0.035" fill="#2c0600" d="M 113.5,2300.5 C 1162.67,2299.5 2212,2299.17 3261.5,2299.5C 3261.67,2300.49 3261.34,2301.16 3260.5,2301.5C 2211.67,2300.5 1162.67,2300.17 113.5,2300.5 Z"/></g>
<g><path style="opacity:0.051" fill="#391200" d="M 113.5,2300.5 C 1162.67,2300.17 2211.67,2300.5 3260.5,2301.5C 3243.94,2346.34 3224.94,2390.18 3203.5,2433C 2698,2433.17 2192.5,2433.33 1687,2433.5C 1181.5,2433.33 676,2433.17 170.5,2433C 149.157,2390.15 130.157,2346.32 113.5,2301.5C 113.5,2301.17 113.5,2300.83 113.5,2300.5 Z"/></g>
<g><path style="opacity:0.008" fill="#0c0000" d="M 3154.5,2526.5 C 2665.83,2525.17 2176.83,2524.5 1687.5,2524.5C 1198.33,2524.5 709.333,2524.83 220.5,2525.5C 219.957,2525.44 219.624,2525.11 219.5,2524.5C 1198.17,2523.5 2176.83,2523.17 3155.5,2523.5C 3155.74,2524.79 3155.4,2525.79 3154.5,2526.5 Z"/></g>
<g><path style="opacity:0.035" fill="#2b0700" d="M 220.5,2525.5 C 709.333,2524.83 1198.33,2524.5 1687.5,2524.5C 2176.83,2524.5 2665.83,2525.17 3154.5,2526.5C 3154.5,2527.17 3154.17,2527.5 3153.5,2527.5C 2176.17,2525.5 1198.5,2524.83 220.5,2525.5 Z"/></g>
<g><path style="opacity:0.051" fill="#391200" d="M 220.5,2525.5 C 1198.5,2524.83 2176.17,2525.5 3153.5,2527.5C 3128.69,2572.46 3101.35,2615.8 3071.5,2657.5C 2148.83,2658.67 1226.17,2658.83 303.5,2658C 273.434,2615.38 245.768,2571.21 220.5,2525.5 Z"/></g>
<g><path style="opacity:0.035" fill="#230500" d="M 2999.5,2752.5 C 2562.33,2751.17 2124.83,2750.5 1687,2750.5C 1249.33,2750.5 811.833,2750.83 374.5,2751.5C 373.596,2750.79 373.263,2749.79 373.5,2748.5C 1249.5,2748.5 2125.5,2748.5 3001.5,2748.5C 3001.77,2750.38 3001.1,2751.71 2999.5,2752.5 Z"/></g>
<g><path style="opacity:0.051" fill="#391200" d="M 2999.5,2752.5 C 2963.74,2797.61 2925.4,2840.61 2884.5,2881.5C 2086.83,2881.67 1289.17,2881.5 491.5,2881C 490.756,2879.96 489.756,2879.46 488.5,2879.5C 483.175,2872.51 477.175,2866.18 470.5,2860.5C 467.167,2857.83 464.167,2854.83 461.5,2851.5C 460.833,2848.83 459.167,2847.17 456.5,2846.5C 453.833,2843.5 451.167,2840.5 448.5,2837.5C 447.833,2834.83 446.167,2833.17 443.5,2832.5C 441.5,2830.17 439.5,2827.83 437.5,2825.5C 437.5,2823.5 436.5,2822.5 434.5,2822.5C 432.5,2820.17 430.5,2817.83 428.5,2815.5C 427.864,2813.21 426.531,2811.54 424.5,2810.5C 423.167,2809.83 422.167,2808.83 421.5,2807.5C 421.5,2805.5 420.5,2804.5 418.5,2804.5C 403.118,2787.39 388.451,2769.72 374.5,2751.5C 811.833,2750.83 1249.33,2750.5 1687,2750.5C 2124.83,2750.5 2562.33,2751.17 2999.5,2752.5 Z"/></g>
<g><path style="opacity:0.031" fill="#1a0700" d="M 418.5,2804.5 C 420.5,2804.5 421.5,2805.5 421.5,2807.5C 420.167,2806.83 419.167,2805.83 418.5,2804.5 Z"/></g>
<g><path style="opacity:0.047" fill="#210d00" d="M 424.5,2810.5 C 426.531,2811.54 427.864,2813.21 428.5,2815.5C 426.457,2814.42 425.124,2812.75 424.5,2810.5 Z"/></g>
<g><path style="opacity:0.031" fill="#1a0700" d="M 434.5,2822.5 C 436.5,2822.5 437.5,2823.5 437.5,2825.5C 436.167,2824.83 435.167,2823.83 434.5,2822.5 Z"/></g>
<g><path style="opacity:0.031" fill="#1a0600" d="M 443.5,2832.5 C 446.167,2833.17 447.833,2834.83 448.5,2837.5C 446.5,2836.17 444.833,2834.5 443.5,2832.5 Z"/></g>
<g><path style="opacity:0.031" fill="#1a0600" d="M 456.5,2846.5 C 459.167,2847.17 460.833,2848.83 461.5,2851.5C 459.5,2850.17 457.833,2848.5 456.5,2846.5 Z"/></g>
<g><path style="opacity:0.047" fill="#1b0700" d="M 470.5,2860.5 C 477.175,2866.18 483.175,2872.51 488.5,2879.5C 481.797,2873.8 475.797,2867.46 470.5,2860.5 Z"/></g>
<g><path style="opacity:0.043" fill="#290900" d="M 488.5,2879.5 C 489.756,2879.46 490.756,2879.96 491.5,2881C 1289.17,2881.5 2086.83,2881.67 2884.5,2881.5C 2884.39,2882.12 2884.06,2882.62 2883.5,2883C 2086.17,2883.67 1288.83,2883.67 491.5,2883C 490.29,2881.96 489.29,2880.79 488.5,2879.5 Z"/></g>
<g><path style="opacity:0.02" fill="#140700" d="M 592.5,2975.5 C 957.333,2974.83 1322.33,2974.5 1687.5,2974.5C 2052.5,2974.83 2417.5,2975.17 2782.5,2975.5C 2782.38,2976.11 2782.04,2976.44 2781.5,2976.5C 2052,2975.5 1322.33,2975.17 592.5,2975.5 Z"/></g>
<g><path style="opacity:0.051" fill="#391200" d="M 592.5,2975.5 C 1322.33,2975.17 2052,2975.5 2781.5,2976.5C 2747.51,3006.66 2711.84,3034.66 2674.5,3060.5C 2671.8,3060.67 2670.13,3062 2669.5,3064.5C 2665.77,3067.56 2661.77,3070.23 2657.5,3072.5C 2655.97,3072.43 2654.97,3073.09 2654.5,3074.5C 2651.52,3077.32 2648.19,3079.66 2644.5,3081.5C 2642.97,3081.43 2641.97,3082.09 2641.5,3083.5C 2639.97,3083.43 2638.97,3084.09 2638.5,3085.5C 2635.8,3085.67 2634.13,3087 2633.5,3089.5C 2628.47,3093.34 2623.14,3096.68 2617.5,3099.5C 2613.95,3100.72 2610.95,3102.72 2608.5,3105.5C 2606.97,3105.43 2605.97,3106.09 2605.5,3107.5C 1993.67,3108.67 1381.67,3108.83 769.5,3108C 760.087,3102.3 751.087,3096.14 742.5,3089.5C 741.198,3087.18 739.198,3085.84 736.5,3085.5C 729.475,3081.32 722.808,3076.66 716.5,3071.5C 715.198,3069.18 713.198,3067.84 710.5,3067.5C 669.347,3039.25 630.014,3008.58 592.5,2975.5 Z"/></g>
<g><path style="opacity:0.027" fill="#230900" d="M 2674.5,3060.5 C 2673.06,3062.06 2671.39,3063.4 2669.5,3064.5C 2670.13,3062 2671.8,3060.67 2674.5,3060.5 Z"/></g>
<g><path style="opacity:0.035" fill="#220900" d="M 710.5,3067.5 C 713.198,3067.84 715.198,3069.18 716.5,3071.5C 714.147,3070.66 712.147,3069.33 710.5,3067.5 Z"/></g>
<g><path style="opacity:0.004" fill="#170500" d="M 2657.5,3072.5 C 2657.03,3073.91 2656.03,3074.57 2654.5,3074.5C 2654.97,3073.09 2655.97,3072.43 2657.5,3072.5 Z"/></g>
<g><path style="opacity:0.004" fill="#170500" d="M 2644.5,3081.5 C 2644.03,3082.91 2643.03,3083.57 2641.5,3083.5C 2641.97,3082.09 2642.97,3081.43 2644.5,3081.5 Z"/></g>
<g><path style="opacity:0.004" fill="#140400" d="M 2641.5,3083.5 C 2641.03,3084.91 2640.03,3085.57 2638.5,3085.5C 2638.97,3084.09 2639.97,3083.43 2641.5,3083.5 Z"/></g>
<g><path style="opacity:0.027" fill="#230900" d="M 2638.5,3085.5 C 2637.06,3087.06 2635.39,3088.4 2633.5,3089.5C 2634.13,3087 2635.8,3085.67 2638.5,3085.5 Z"/></g>
<g><path style="opacity:0.035" fill="#220900" d="M 736.5,3085.5 C 739.198,3085.84 741.198,3087.18 742.5,3089.5C 740.147,3088.66 738.147,3087.33 736.5,3085.5 Z"/></g>
<g><path style="opacity:0.027" fill="#230b00" d="M 2617.5,3099.5 C 2615.02,3102.24 2612.02,3104.24 2608.5,3105.5C 2610.95,3102.72 2613.95,3100.72 2617.5,3099.5 Z"/></g>
<g><path style="opacity:0.004" fill="#140400" d="M 2608.5,3105.5 C 2608.03,3106.91 2607.03,3107.57 2605.5,3107.5C 2605.97,3106.09 2606.97,3105.43 2608.5,3105.5 Z"/></g>
<g><path style="opacity:0.02" fill="#140700" d="M 2435.5,3205.5 C 2436.82,3203.31 2438.82,3201.81 2441.5,3201C 1938.83,3200.33 1436.17,3200.33 933.5,3201C 935.584,3201.7 937.251,3202.86 938.5,3204.5C 935.738,3203.62 933.071,3202.45 930.5,3201C 930.833,3200.67 931.167,3200.33 931.5,3200C 1183.67,3199.83 1435.83,3199.67 1688,3199.5C 1940.17,3199.83 2192.33,3200.17 2444.5,3200.5C 2441.63,3202.43 2438.63,3204.1 2435.5,3205.5 Z"/></g>
<g><path style="opacity:0.051" fill="#391200" d="M 2435.5,3205.5 C 2429.5,3208.17 2423.5,3210.83 2417.5,3213.5C 2413.66,3213.91 2410.66,3215.58 2408.5,3218.5C 2404.71,3219.9 2401.04,3221.56 2397.5,3223.5C 2397.44,3222.96 2397.11,3222.62 2396.5,3222.5C 2393.94,3223.61 2391.61,3224.94 2389.5,3226.5C 2388.49,3227.67 2387.15,3228.34 2385.5,3228.5C 2382.25,3228.79 2379.58,3230.13 2377.5,3232.5C 2376.61,3233.11 2375.61,3233.44 2374.5,3233.5C 2371.76,3233.71 2369.43,3234.71 2367.5,3236.5C 2360.91,3240.29 2353.91,3243.29 2346.5,3245.5C 2343.76,3245.71 2341.43,3246.71 2339.5,3248.5C 2338.22,3249.93 2336.55,3250.6 2334.5,3250.5C 2331.76,3250.71 2329.43,3251.71 2327.5,3253.5C 2325.62,3253.23 2324.29,3253.9 2323.5,3255.5C 2321.7,3256.73 2319.7,3257.4 2317.5,3257.5C 2314.91,3257.46 2312.91,3258.46 2311.5,3260.5C 2308.6,3261.78 2305.6,3262.78 2302.5,3263.5C 2300.62,3263.23 2299.29,3263.9 2298.5,3265.5C 2295.71,3267.1 2292.71,3268.1 2289.5,3268.5C 2287.62,3268.23 2286.29,3268.9 2285.5,3270.5C 2282.6,3271.78 2279.6,3272.78 2276.5,3273.5C 2274.62,3273.23 2273.29,3273.9 2272.5,3275.5C 2269.3,3276.9 2265.97,3277.9 2262.5,3278.5C 2257.47,3279.4 2252.8,3281.06 2248.5,3283.5C 2247.79,3284.4 2246.79,3284.74 2245.5,3284.5C 2242.65,3284.55 2240.32,3285.55 2238.5,3287.5C 2238.17,3287.5 2237.83,3287.5 2237.5,3287.5C 2231.09,3288.53 2225.09,3290.53 2219.5,3293.5C 2218.79,3294.4 2217.79,3294.74 2216.5,3294.5C 2212.29,3294.68 2208.63,3296.01 2205.5,3298.5C 2205.17,3298.5 2204.83,3298.5 2204.5,3298.5C 2200.84,3298.72 2197.5,3299.72 2194.5,3301.5C 2189.84,3302.06 2185.5,3303.39 2181.5,3305.5C 2180.79,3306.4 2179.79,3306.74 2178.5,3306.5C 2174.84,3306.72 2171.5,3307.72 2168.5,3309.5C 2167.33,3310.34 2166,3311.01 2164.5,3311.5C 2164.26,3310.9 2163.76,3310.57 2163,3310.5C 2156.63,3312.24 2150.46,3314.24 2144.5,3316.5C 2140.52,3316.74 2136.85,3317.74 2133.5,3319.5C 2128.19,3320.08 2123.19,3321.41 2118.5,3323.5C 2113.19,3324.08 2108.19,3325.41 2103.5,3327.5C 2101.16,3329.04 2098.5,3329.71 2095.5,3329.5C 2088.21,3330.41 2081.21,3332.07 2074.5,3334.5C 2057.55,3338.15 2040.55,3341.65 2023.5,3345C 2021.56,3345.12 2020.23,3345.95 2019.5,3347.5C 2019.17,3347.5 2018.83,3347.5 2018.5,3347.5C 2018.08,3346.88 2017.42,3346.54 2016.5,3346.5C 2000.19,3349.63 1983.86,3352.63 1967.5,3355.5C 1965.97,3355.64 1964.97,3356.31 1964.5,3357.5C 1964.17,3357.5 1963.83,3357.5 1963.5,3357.5C 1962.73,3356.85 1961.73,3356.52 1960.5,3356.5C 1956.5,3357.17 1952.5,3357.83 1948.5,3358.5C 1946.97,3358.64 1945.97,3359.31 1945.5,3360.5C 1945.17,3360.5 1944.83,3360.5 1944.5,3360.5C 1943.73,3359.85 1942.73,3359.52 1941.5,3359.5C 1924.86,3362.02 1908.19,3364.35 1891.5,3366.5C 1889.67,3366.59 1888.33,3367.25 1887.5,3368.5C 1887.17,3368.5 1886.83,3368.5 1886.5,3368.5C 1885.38,3367.84 1884.05,3367.51 1882.5,3367.5C 1877.69,3367.56 1873.36,3368.56 1869.5,3370.5C 1869.17,3370.5 1868.83,3370.5 1868.5,3370.5C 1867.38,3369.84 1866.05,3369.51 1864.5,3369.5C 1859.51,3370.09 1854.51,3370.59 1849.5,3371C 1848.58,3371.28 1847.92,3371.78 1847.5,3372.5C 1847.17,3372.5 1846.83,3372.5 1846.5,3372.5C 1845.38,3371.84 1844.05,3371.51 1842.5,3371.5C 1835.01,3372.3 1827.51,3372.97 1820,3373.5C 1817.39,3373.53 1815.22,3374.2 1813.5,3375.5C 1813.17,3375.5 1812.83,3375.5 1812.5,3375.5C 1810.36,3374.84 1808.03,3374.5 1805.5,3374.5C 1802.73,3374.53 1800.4,3375.2 1798.5,3376.5C 1798.17,3376.5 1797.83,3376.5 1797.5,3376.5C 1795.36,3375.84 1793.03,3375.5 1790.5,3375.5C 1780.78,3375.61 1771.44,3376.61 1762.5,3378.5C 1762.17,3378.5 1761.83,3378.5 1761.5,3378.5C 1711.33,3377.67 1661,3377.17 1610.5,3377C 1568.7,3375.1 1527.03,3371.6 1485.5,3366.5C 1484.27,3366.52 1483.27,3366.85 1482.5,3367.5C 1482.17,3367.5 1481.83,3367.5 1481.5,3367.5C 1480.05,3366.06 1478.22,3365.39 1476,3365.5C 1474.62,3365.51 1473.45,3365.85 1472.5,3366.5C 1472.17,3366.5 1471.83,3366.5 1471.5,3366.5C 1470.67,3365.25 1469.33,3364.59 1467.5,3364.5C 1453.81,3362.69 1440.14,3360.69 1426.5,3358.5C 1425.27,3358.52 1424.27,3358.85 1423.5,3359.5C 1423.17,3359.5 1422.83,3359.5 1422.5,3359.5C 1422.03,3358.31 1421.03,3357.64 1419.5,3357.5C 1415.81,3356.94 1412.15,3356.27 1408.5,3355.5C 1407.58,3355.54 1406.92,3355.88 1406.5,3356.5C 1406.17,3356.5 1405.83,3356.5 1405.5,3356.5C 1405.39,3355.88 1405.06,3355.38 1404.5,3355C 1401.66,3354.55 1398.82,3354.05 1396,3353.5C 1394.93,3353.53 1394.1,3353.86 1393.5,3354.5C 1391.88,3353.96 1390.22,3353.63 1388.5,3353.5C 1386.97,3351.87 1384.97,3351.04 1382.5,3351C 1376.15,3349.9 1369.82,3348.73 1363.5,3347.5C 1362.58,3347.54 1361.92,3347.88 1361.5,3348.5C 1359.56,3347.85 1357.56,3347.52 1355.5,3347.5C 1354.77,3345.95 1353.44,3345.12 1351.5,3345C 1342.94,3343.42 1334.44,3341.59 1326,3339.5C 1325.24,3339.57 1324.74,3339.9 1324.5,3340.5C 1324.17,3340.5 1323.83,3340.5 1323.5,3340.5C 1320.68,3338.29 1317.35,3337.29 1313.5,3337.5C 1294.14,3332.45 1274.64,3327.45 1255,3322.5C 1254.24,3322.57 1253.74,3322.9 1253.5,3323.5C 1252.83,3323.5 1252.5,3323.17 1252.5,3322.5C 1247.81,3320.41 1242.81,3319.08 1237.5,3318.5C 1235.49,3317.08 1233.15,3316.41 1230.5,3316.5C 1228.49,3315.08 1226.15,3314.41 1223.5,3314.5C 1221.49,3313.08 1219.15,3312.41 1216.5,3312.5C 1214.49,3311.08 1212.15,3310.41 1209.5,3310.5C 1205.5,3308.39 1201.16,3307.06 1196.5,3306.5C 1193.5,3304.72 1190.16,3303.72 1186.5,3303.5C 1185.21,3303.74 1184.21,3303.4 1183.5,3302.5C 1164.78,3295.59 1145.78,3289.26 1126.5,3283.5C 1123.22,3283.07 1120.22,3282.07 1117.5,3280.5C 1115.21,3278.73 1112.54,3277.73 1109.5,3277.5C 1107.21,3275.73 1104.54,3274.73 1101.5,3274.5C 1100.04,3274.57 1098.71,3274.23 1097.5,3273.5C 1096.71,3271.9 1095.38,3271.23 1093.5,3271.5C 1092.21,3271.74 1091.21,3271.4 1090.5,3270.5C 1084.14,3267.26 1077.47,3264.6 1070.5,3262.5C 1066.86,3261.74 1063.53,3260.4 1060.5,3258.5C 1057.47,3256.6 1054.14,3255.26 1050.5,3254.5C 1048.3,3254.4 1046.3,3253.73 1044.5,3252.5C 1043.09,3250.46 1041.09,3249.46 1038.5,3249.5C 1034.11,3248.6 1030.11,3246.93 1026.5,3244.5C 1023.63,3242.21 1020.3,3240.87 1016.5,3240.5C 1015.51,3240.67 1014.84,3240.34 1014.5,3239.5C 1012.57,3237.71 1010.24,3236.71 1007.5,3236.5C 1007.17,3236.5 1006.83,3236.5 1006.5,3236.5C 1005.09,3234.46 1003.09,3233.46 1000.5,3233.5C 999.391,3233.44 998.391,3233.11 997.5,3232.5C 995.421,3230.13 992.754,3228.79 989.5,3228.5C 987.716,3228.11 986.05,3227.44 984.5,3226.5C 982.421,3224.13 979.754,3222.79 976.5,3222.5C 974.046,3221.77 971.713,3220.77 969.5,3219.5C 966.086,3216.46 962.086,3214.46 957.5,3213.5C 951.041,3210.77 944.708,3207.77 938.5,3204.5C 937.251,3202.86 935.584,3201.7 933.5,3201C 1436.17,3200.33 1938.83,3200.33 2441.5,3201C 2438.82,3201.81 2436.82,3203.31 2435.5,3205.5 Z"/></g>
<g><path style="opacity:0.024" fill="#1f0c00" d="M 2417.5,3213.5 C 2414.7,3215.4 2411.7,3217.07 2408.5,3218.5C 2410.66,3215.58 2413.66,3213.91 2417.5,3213.5 Z"/></g>
<g><path style="opacity:0.035" fill="#1e0a00" d="M 957.5,3213.5 C 962.086,3214.46 966.086,3216.46 969.5,3219.5C 965.182,3218.01 961.182,3216.01 957.5,3213.5 Z"/></g>
<g><path style="opacity:0.024" fill="#1d0900" d="M 976.5,3222.5 C 979.754,3222.79 982.421,3224.13 984.5,3226.5C 981.515,3225.67 978.849,3224.34 976.5,3222.5 Z"/></g>
<g><path style="opacity:0.024" fill="#1e0b00" d="M 2397.5,3223.5 C 2395.05,3225.06 2392.38,3226.06 2389.5,3226.5C 2391.61,3224.94 2393.94,3223.61 2396.5,3222.5C 2397.11,3222.62 2397.44,3222.96 2397.5,3223.5 Z"/></g>
<g><path style="opacity:0.024" fill="#1e0a00" d="M 2385.5,3228.5 C 2383.15,3230.34 2380.48,3231.67 2377.5,3232.5C 2379.58,3230.13 2382.25,3228.79 2385.5,3228.5 Z"/></g>
<g><path style="opacity:0.024" fill="#1d0900" d="M 989.5,3228.5 C 992.754,3228.79 995.421,3230.13 997.5,3232.5C 994.515,3231.67 991.849,3230.34 989.5,3228.5 Z"/></g>
<g><path style="opacity:0.024" fill="#1f0800" d="M 1000.5,3233.5 C 1003.09,3233.46 1005.09,3234.46 1006.5,3236.5C 1004.18,3236.01 1002.18,3235.01 1000.5,3233.5 Z"/></g>
<g><path style="opacity:0.024" fill="#1e0b00" d="M 2374.5,3233.5 C 2372.57,3235.29 2370.24,3236.29 2367.5,3236.5C 2369.43,3234.71 2371.76,3233.71 2374.5,3233.5 Z"/></g>
<g><path style="opacity:0.027" fill="#1f0900" d="M 1007.5,3236.5 C 1010.24,3236.71 1012.57,3237.71 1014.5,3239.5C 1011.76,3239.29 1009.43,3238.29 1007.5,3236.5 Z"/></g>
<g><path style="opacity:0.024" fill="#200a00" d="M 1016.5,3240.5 C 1020.3,3240.87 1023.63,3242.21 1026.5,3244.5C 1022.86,3243.74 1019.53,3242.4 1016.5,3240.5 Z"/></g>
<g><path style="opacity:0.027" fill="#1d0900" d="M 2346.5,3245.5 C 2344.57,3247.29 2342.24,3248.29 2339.5,3248.5C 2341.43,3246.71 2343.76,3245.71 2346.5,3245.5 Z"/></g>
<g><path style="opacity:0.024" fill="#1e0900" d="M 1038.5,3249.5 C 1041.09,3249.46 1043.09,3250.46 1044.5,3252.5C 1042.18,3252.01 1040.18,3251.01 1038.5,3249.5 Z"/></g>
<g><path style="opacity:0.027" fill="#1d0900" d="M 2334.5,3250.5 C 2332.57,3252.29 2330.24,3253.29 2327.5,3253.5C 2329.43,3251.71 2331.76,3250.71 2334.5,3250.5 Z"/></g>
<g><path style="opacity:0.027" fill="#1e0900" d="M 1050.5,3254.5 C 1054.14,3255.26 1057.47,3256.6 1060.5,3258.5C 1056.7,3258.13 1053.37,3256.79 1050.5,3254.5 Z"/></g>
<g><path style="opacity:0.004" fill="#160400" d="M 2327.5,3253.5 C 2326.49,3254.67 2325.15,3255.34 2323.5,3255.5C 2324.29,3253.9 2325.62,3253.23 2327.5,3253.5 Z"/></g>
<g><path style="opacity:0.024" fill="#1e0a00" d="M 2317.5,3257.5 C 2315.82,3259.01 2313.82,3260.01 2311.5,3260.5C 2312.91,3258.46 2314.91,3257.46 2317.5,3257.5 Z"/></g>
<g><path style="opacity:0.024" fill="#200a00" d="M 1070.5,3262.5 C 1077.47,3264.6 1084.14,3267.26 1090.5,3270.5C 1083.37,3268.79 1076.7,3266.13 1070.5,3262.5 Z"/></g>
<g><path style="opacity:0.004" fill="#150400" d="M 2302.5,3263.5 C 2301.49,3264.67 2300.15,3265.34 2298.5,3265.5C 2299.29,3263.9 2300.62,3263.23 2302.5,3263.5 Z"/></g>
<g><path style="opacity:0.004" fill="#150400" d="M 2289.5,3268.5 C 2288.49,3269.67 2287.15,3270.34 2285.5,3270.5C 2286.29,3268.9 2287.62,3268.23 2289.5,3268.5 Z"/></g>
<g><path style="opacity:0.016" fill="#180400" d="M 1093.5,3271.5 C 1095.38,3271.23 1096.71,3271.9 1097.5,3273.5C 1095.85,3273.34 1094.51,3272.67 1093.5,3271.5 Z"/></g>
<g><path style="opacity:0.004" fill="#170400" d="M 2276.5,3273.5 C 2275.49,3274.67 2274.15,3275.34 2272.5,3275.5C 2273.29,3273.9 2274.62,3273.23 2276.5,3273.5 Z"/></g>
<g><path style="opacity:0.031" fill="#210a00" d="M 1101.5,3274.5 C 1104.54,3274.73 1107.21,3275.73 1109.5,3277.5C 1106.46,3277.27 1103.79,3276.27 1101.5,3274.5 Z"/></g>
<g><path style="opacity:0.031" fill="#210a00" d="M 1109.5,3277.5 C 1112.54,3277.73 1115.21,3278.73 1117.5,3280.5C 1114.46,3280.27 1111.79,3279.27 1109.5,3277.5 Z"/></g>
<g><path style="opacity:0.031" fill="#220a00" d="M 2262.5,3278.5 C 2258.2,3280.94 2253.53,3282.6 2248.5,3283.5C 2252.8,3281.06 2257.47,3279.4 2262.5,3278.5 Z"/></g>
<g><path style="opacity:0.024" fill="#1b0800" d="M 2245.5,3284.5 C 2243.49,3286.07 2241.16,3287.07 2238.5,3287.5C 2240.32,3285.55 2242.65,3284.55 2245.5,3284.5 Z"/></g>
<g><path style="opacity:0.031" fill="#220d00" d="M 2237.5,3287.5 C 2231.78,3290.07 2225.78,3292.07 2219.5,3293.5C 2225.09,3290.53 2231.09,3288.53 2237.5,3287.5 Z"/></g>
<g><path style="opacity:0.031" fill="#210a00" d="M 2216.5,3294.5 C 2213.06,3296.2 2209.39,3297.54 2205.5,3298.5C 2208.63,3296.01 2212.29,3294.68 2216.5,3294.5 Z"/></g>
<g><path style="opacity:0.031" fill="#220c00" d="M 1126.5,3283.5 C 1145.78,3289.26 1164.78,3295.59 1183.5,3302.5C 1164.09,3297.14 1145.09,3290.81 1126.5,3283.5 Z"/></g>
<g><path style="opacity:0.024" fill="#1c0900" d="M 2204.5,3298.5 C 2201.5,3300.28 2198.16,3301.28 2194.5,3301.5C 2197.5,3299.72 2200.84,3298.72 2204.5,3298.5 Z"/></g>
<g><path style="opacity:0.027" fill="#1d0900" d="M 2194.5,3301.5 C 2190.5,3303.61 2186.16,3304.94 2181.5,3305.5C 2185.5,3303.39 2189.84,3302.06 2194.5,3301.5 Z"/></g>
<g><path style="opacity:0.035" fill="#220a00" d="M 1186.5,3303.5 C 1190.16,3303.72 1193.5,3304.72 1196.5,3306.5C 1192.84,3306.28 1189.5,3305.28 1186.5,3303.5 Z"/></g>
<g><path style="opacity:0.033" fill="#210900" d="M 1196.5,3306.5 C 1201.16,3307.06 1205.5,3308.39 1209.5,3310.5C 1204.84,3309.94 1200.5,3308.61 1196.5,3306.5 Z"/></g>
<g><path style="opacity:0.024" fill="#200900" d="M 2178.5,3306.5 C 2175.5,3308.28 2172.16,3309.28 2168.5,3309.5C 2171.5,3307.72 2174.84,3306.72 2178.5,3306.5 Z"/></g>
<g><path style="opacity:0.031" fill="#220b00" d="M 1209.5,3310.5 C 1212.15,3310.41 1214.49,3311.08 1216.5,3312.5C 1213.85,3312.59 1211.51,3311.92 1209.5,3310.5 Z"/></g>
<g><path style="opacity:0.027" fill="#1e0900" d="M 2164.5,3311.5 C 2157.94,3313.58 2151.27,3315.24 2144.5,3316.5C 2150.46,3314.24 2156.63,3312.24 2163,3310.5C 2163.76,3310.57 2164.26,3310.9 2164.5,3311.5 Z"/></g>
<g><path style="opacity:0.031" fill="#220b00" d="M 1216.5,3312.5 C 1219.15,3312.41 1221.49,3313.08 1223.5,3314.5C 1220.85,3314.59 1218.51,3313.92 1216.5,3312.5 Z"/></g>
<g><path style="opacity:0.031" fill="#220b00" d="M 1223.5,3314.5 C 1226.15,3314.41 1228.49,3315.08 1230.5,3316.5C 1227.85,3316.59 1225.51,3315.92 1223.5,3314.5 Z"/></g>
<g><path style="opacity:0.031" fill="#220b00" d="M 1230.5,3316.5 C 1233.15,3316.41 1235.49,3317.08 1237.5,3318.5C 1234.85,3318.59 1232.51,3317.92 1230.5,3316.5 Z"/></g>
<g><path style="opacity:0.033" fill="#200900" d="M 2144.5,3316.5 C 2141.15,3318.26 2137.48,3319.26 2133.5,3319.5C 2136.85,3317.74 2140.52,3316.74 2144.5,3316.5 Z"/></g>
<g><path style="opacity:0.033" fill="#210900" d="M 1237.5,3318.5 C 1242.81,3319.08 1247.81,3320.41 1252.5,3322.5C 1247.19,3321.92 1242.19,3320.59 1237.5,3318.5 Z"/></g>
<g><path style="opacity:0.031" fill="#200a00" d="M 2133.5,3319.5 C 2128.81,3321.59 2123.81,3322.92 2118.5,3323.5C 2123.19,3321.41 2128.19,3320.08 2133.5,3319.5 Z"/></g>
<g><path style="opacity:0.027" fill="#210900" d="M 1253.5,3323.5 C 1253.74,3322.9 1254.24,3322.57 1255,3322.5C 1274.64,3327.45 1294.14,3332.45 1313.5,3337.5C 1293.36,3333.46 1273.36,3328.8 1253.5,3323.5 Z"/></g>
<g><path style="opacity:0.031" fill="#200900" d="M 2118.5,3323.5 C 2113.81,3325.59 2108.81,3326.92 2103.5,3327.5C 2108.19,3325.41 2113.19,3324.08 2118.5,3323.5 Z"/></g>
<g><path style="opacity:0.031" fill="#220a00" d="M 2095.5,3329.5 C 2088.79,3331.93 2081.79,3333.59 2074.5,3334.5C 2081.21,3332.07 2088.21,3330.41 2095.5,3329.5 Z"/></g>
<g><path style="opacity:0.031" fill="#220900" d="M 1313.5,3337.5 C 1317.35,3337.29 1320.68,3338.29 1323.5,3340.5C 1319.98,3339.79 1316.64,3338.79 1313.5,3337.5 Z"/></g>
<g><path style="opacity:0.033" fill="#210900" d="M 1324.5,3340.5 C 1324.74,3339.9 1325.24,3339.57 1326,3339.5C 1334.44,3341.59 1342.94,3343.42 1351.5,3345C 1353.44,3345.12 1354.77,3345.95 1355.5,3347.5C 1345.22,3345.04 1334.88,3342.71 1324.5,3340.5 Z"/></g>
<g><path style="opacity:0.033" fill="#200900" d="M 2074.5,3334.5 C 2056.4,3339.46 2038.07,3343.79 2019.5,3347.5C 2020.23,3345.95 2021.56,3345.12 2023.5,3345C 2040.55,3341.65 2057.55,3338.15 2074.5,3334.5 Z"/></g>
<g><path style="opacity:0.033" fill="#210900" d="M 1361.5,3348.5 C 1361.92,3347.88 1362.58,3347.54 1363.5,3347.5C 1369.82,3348.73 1376.15,3349.9 1382.5,3351C 1384.97,3351.04 1386.97,3351.87 1388.5,3353.5C 1379.53,3351.71 1370.53,3350.04 1361.5,3348.5 Z"/></g>
<g><path style="opacity:0.033" fill="#210900" d="M 2018.5,3347.5 C 2000.45,3350.71 1982.45,3354.04 1964.5,3357.5C 1964.97,3356.31 1965.97,3355.64 1967.5,3355.5C 1983.86,3352.63 2000.19,3349.63 2016.5,3346.5C 2017.42,3346.54 2018.08,3346.88 2018.5,3347.5 Z"/></g>
<g><path style="opacity:0.033" fill="#220a00" d="M 1393.5,3354.5 C 1394.1,3353.86 1394.93,3353.53 1396,3353.5C 1398.82,3354.05 1401.66,3354.55 1404.5,3355C 1405.06,3355.38 1405.39,3355.88 1405.5,3356.5C 1401.55,3355.62 1397.55,3354.95 1393.5,3354.5 Z"/></g>
<g><path style="opacity:0.033" fill="#210900" d="M 1406.5,3356.5 C 1406.92,3355.88 1407.58,3355.54 1408.5,3355.5C 1412.15,3356.27 1415.81,3356.94 1419.5,3357.5C 1421.03,3357.64 1422.03,3358.31 1422.5,3359.5C 1417.24,3358.29 1411.9,3357.29 1406.5,3356.5 Z"/></g>
<g><path style="opacity:0.033" fill="#200b00" d="M 1963.5,3357.5 C 1957.4,3358.13 1951.4,3359.13 1945.5,3360.5C 1945.97,3359.31 1946.97,3358.64 1948.5,3358.5C 1952.5,3357.83 1956.5,3357.17 1960.5,3356.5C 1961.73,3356.52 1962.73,3356.85 1963.5,3357.5 Z"/></g>
<g><path style="opacity:0.033" fill="#220a00" d="M 1423.5,3359.5 C 1424.27,3358.85 1425.27,3358.52 1426.5,3358.5C 1440.14,3360.69 1453.81,3362.69 1467.5,3364.5C 1469.33,3364.59 1470.67,3365.25 1471.5,3366.5C 1455.54,3363.98 1439.54,3361.65 1423.5,3359.5 Z"/></g>
<g><path style="opacity:0.033" fill="#210a00" d="M 1944.5,3360.5 C 1925.46,3363.17 1906.46,3365.84 1887.5,3368.5C 1888.33,3367.25 1889.67,3366.59 1891.5,3366.5C 1908.19,3364.35 1924.86,3362.02 1941.5,3359.5C 1942.73,3359.52 1943.73,3359.85 1944.5,3360.5 Z"/></g>
<g><path style="opacity:0.033" fill="#230a00" d="M 1472.5,3366.5 C 1473.45,3365.85 1474.62,3365.51 1476,3365.5C 1478.22,3365.39 1480.05,3366.06 1481.5,3367.5C 1478.54,3366.84 1475.54,3366.51 1472.5,3366.5 Z"/></g>
<g><path style="opacity:0.034" fill="#1f0800" d="M 1886.5,3368.5 C 1880.78,3368.88 1875.12,3369.54 1869.5,3370.5C 1873.36,3368.56 1877.69,3367.56 1882.5,3367.5C 1884.05,3367.51 1885.38,3367.84 1886.5,3368.5 Z"/></g>
<g><path style="opacity:0.034" fill="#200a00" d="M 1868.5,3370.5 C 1861.49,3371.1 1854.49,3371.77 1847.5,3372.5C 1847.92,3371.78 1848.58,3371.28 1849.5,3371C 1854.51,3370.59 1859.51,3370.09 1864.5,3369.5C 1866.05,3369.51 1867.38,3369.84 1868.5,3370.5 Z"/></g>
<g><path style="opacity:0.033" fill="#210a00" d="M 1846.5,3372.5 C 1835.49,3373.44 1824.49,3374.44 1813.5,3375.5C 1815.22,3374.2 1817.39,3373.53 1820,3373.5C 1827.51,3372.97 1835.01,3372.3 1842.5,3371.5C 1844.05,3371.51 1845.38,3371.84 1846.5,3372.5 Z"/></g>
<g><path style="opacity:0.033" fill="#200a00" d="M 1812.5,3375.5 C 1807.79,3375.35 1803.12,3375.69 1798.5,3376.5C 1800.4,3375.2 1802.73,3374.53 1805.5,3374.5C 1808.03,3374.5 1810.36,3374.84 1812.5,3375.5 Z"/></g>
<g><path style="opacity:0.012" fill="#1f0700" d="M 1797.5,3376.5 C 1785.81,3376.93 1774.14,3377.6 1762.5,3378.5C 1771.44,3376.61 1780.78,3375.61 1790.5,3375.5C 1793.03,3375.5 1795.36,3375.84 1797.5,3376.5 Z"/></g>
<g><path style="opacity:0.031" fill="#240b00" d="M 1482.5,3367.5 C 1483.27,3366.85 1484.27,3366.52 1485.5,3366.5C 1527.03,3371.6 1568.7,3375.1 1610.5,3377C 1661,3377.17 1711.33,3377.67 1761.5,3378.5C 1709.5,3378.67 1657.5,3378.5 1605.5,3378C 1564.36,3375.99 1523.36,3372.49 1482.5,3367.5 Z"/></g>
</svg>
